999
FreeCAD v0.19 24291 (Git)
  0
SECTION
  2
HEADER
  9
$ACADVER
  1
AC1014
  9
$ACADMAINTVER
 70
     9
  9
$DWGCODEPAGE
  3
ANSI_1252
  9
$TEXTSTYLE
  7
STANDARD
  9
$DIMSTYLE
  2
STANDARD
  9
$DIMTXSTY
  7
STANDARD
  9
$CMLSTYLE
  2
STANDARD
  9
$PEXTMAX
 10
50
 20
50
 30
50
  9
$PEXTMIN
 10
0
 20
0
 30
0
  9
$HANDSEED
  5
FFFF
  0
ENDSEC
  0
SECTION
  2
CLASSES
  0
CLASS
  1
ACDBDICTIONARYWDFLT
  2
AcDbDictionaryWithDefault
  3
ObjectDBX Classes
 90
        0
280
     0
281
     0
  0
CLASS
  1
XRECORD
  2
AcDbXrecord
  3
ObjectDBX Classes
 90
        0
280
     0
281
     0
  0
CLASS
  1
LWPOLYLINE
  2
AcDbPolyline
  3
ObjectDBX Classes
 90
        0
280
     0
281
     1
  0
ENDSEC
  0
SECTION
  2
TABLES
  0
TABLE
  2
VPORT
  5
20
330
0
100
AcDbSymbolTable
 70
     1
  0
VPORT
  5
21
330
20
100
AcDbSymbolTableRecord
100
AcDbViewportTableRecord
  2
*ACTIVE
 70
     0
  0
ENDTAB
  0
TABLE
  2
LTYPE
  5
22
330
0
100
AcDbSymbolTable
 70
     1
  0
LTYPE
  5
23
330
21
100
AcDbSymbolTableRecord
100
AcDbLinetypeTableRecord
  2
BYBLOCK
 70
     0
  3

 72
    65
 73
     0
 40
0.0
  0
LTYPE
  5
24
330
21
100
AcDbSymbolTableRecord
100
AcDbLinetypeTableRecord
  2
BYLAYER
 70
     0
  3

 72
    65
 73
     0
 40
0.0
  0
LTYPE
  5
25
330
21
100
AcDbSymbolTableRecord
100
AcDbLinetypeTableRecord
  2
CONTINUOUS
 70
     0
  3
Solid line
 72
    65
 73
     0
 40
0.0
  0
ENDTAB
  0
TABLE
  2
LAYER
  5
D5D
330
0
100
AcDbSymbolTable
 70
3
  0
LAYER
  5
D5E
330
D5D
100
AcDbSymbolTableRecord
100
AcDbLayerTableRecord
  2
0
 70
   0
 62
   7
  6
CONTINUOUS
  0
LAYER
  5
D5F
330
D5D
100
AcDbSymbolTableRecord
100
AcDbLayerTableRecord
  2
none
 70
    0
 62
    7
  6
CONTINUOUS
  0
LAYER
  5
D60
330
D5D
100
AcDbSymbolTableRecord
100
AcDbLayerTableRecord
  2
Facebinder
 70
    0
 62
    7
  6
CONTINUOUS
  0
ENDTAB
  0
TABLE
  2
STYLE
  5
70
330
0
100
AcDbSymbolTable
 70
     2
  0
STYLE
  5
71
330
70
100
AcDbSymbolTableRecord
100
AcDbTextStyleTableRecord
  2
STANDARD
 70
     0
 40
0.0
 41
1.0
 50
0.0
 71
     0
 42
2.5
  3
arial.ttf
  4

  0
STYLE
  5
72
330
70
100
AcDbSymbolTableRecord
100
AcDbTextStyleTableRecord
  2
ANNOTATIVE
 70
     0
 40
0.0
 41
1.0
 50
0.0
 71
     0
 42
2.5
  3
arial.ttf
  4

  0
ENDTAB
  0
TABLE
  2
VIEW
  5
73
330
0
100
AcDbSymbolTable
 70
     0
  0
ENDTAB
  0
TABLE
  2
UCS
  5
74
330
0
100
AcDbSymbolTable
 70
     0
  0
ENDTAB
  0
TABLE
  2
APPID
  5
75
330
0
100
AcDbSymbolTable
 70
     2
  0
APPID
  5
76
330
75
100
AcDbSymbolTableRecord
100
AcDbRegAppTableRecord
  2
ACAD
 70
     0
  0
APPID
  5
77
330
75
100
AcDbSymbolTableRecord
100
AcDbRegAppTableRecord
  2
ACADANNOTATIVE
 70
     0
  0
ENDTAB
  0
TABLE
  2
DIMSTYLE
  5
78
330
0
100
AcDbSymbolTable
 70
     2
  0
DIMSTYLE
105
79
330
78
100
AcDbSymbolTableRecord
100
AcDbDimStyleTableRecord
  2
STANDARD
 70
     0
  3

  4

  5

  6

  7

 40
0.0
 41
2.5
 42
0.625
 43
3.75
 44
1.25
 45
0.0
 46
0.0
 47
0.0
 48
0.0
140
2.5
141
2.5
142
0.0
143
0.03937007874016
144
1.0
145
0.0
146
1.0
147
0.625
 71
     0
 72
     0
 73
     0
 74
     0
 75
     0
 76
     0
 77
     1
 78
     8
170
     0
171
     3
172
     1
173
     0
174
     0
175
     0
176
     0
177
     0
178
     0
270
     2
271
     2
272
     2
273
     2
274
     3
340
71
275
     0
280
     0
281
     0
282
     0
283
     0
284
     8
285
     0
286
     0
287
     3
288
     0
  0
ENDTAB
  0
TABLE
  2
BLOCK_RECORD
  5
A01
330
0
100
AcDbSymbolTable
  70
5
  0
BLOCK_RECORD
  5
A02
330
A01
100
AcDbSymbolTableRecord
100
AcDbBlockTableRecord
  2
*MODEL_SPACE
  0
BLOCK_RECORD
  5
A03
330
A01
100
AcDbSymbolTableRecord
100
AcDbBlockTableRecord
  2
*PAPER_SPACE
  0
ENDTAB
  0
ENDSEC
  0
SECTION
  2
BLOCKS
  0
BLOCK
  5
A04
330
A02
100
AcDbEntity
  8
0
100
AcDbBlockBegin
  2
*MODEL_SPACE
 70
   0
 10
0
 20
0
 30
0
  3
*MODEL_SPACE
  1
 
  0
ENDBLK
  5
A05
330
A02
100
AcDbEntity
  8
0
100
AcDbBlockEnd
  0
BLOCK
  5
A06
330
A03
100
AcDbEntity
 67
1
  8
0
100
AcDbBlockBegin
  2
*PAPER_SPACE
 70
   0
 10
0
 20
0
 30
0
  3
*PAPER_SPACE
  1
 
  0
ENDBLK
  5
A07
330
A03
100
AcDbEntity
 67
    1
  8
0
100
AcDbBlockEnd
  0
ENDSEC
  0
SECTION
  2
ENTITIES
  0
LINE
  5
A08
330
A02
100
AcDbEntity
  8
Facebinder
100
AcDbLine
 10
298.368
 20
-125.732
 30
1.59694
 11
222.784
 21
-125.732
 31
1.59694
  0
ARC
  5
A09
330
A02
100
AcDbEntity
  8
Facebinder
100
AcDbCircle
 10
298.368
 20
-126.732
 30
1.59694
 40
1
100
AcDbArc
 50
29.7
 51
90
  0
LINE
  5
A0A
330
A02
100
AcDbEntity
  8
Facebinder
100
AcDbLine
 10
299.236
 20
-126.236
 30
1.59694
 11
301.618
 21
-130.413
 31
1.59694
  0
ARC
  5
A0B
330
A02
100
AcDbEntity
  8
Facebinder
100
AcDbCircle
 10
303.948
 20
-128.732
 30
1.59694
 40
2.8731
100
AcDbArc
 50
-144.191
 51
-35.8089
  0
LINE
  5
A0C
330
A02
100
AcDbEntity
  8
Facebinder
100
AcDbLine
 10
306.278
 20
-130.413
 30
1.59694
 11
308.661
 21
-126.236
 31
1.59694
  0
ARC
  5
A0D
330
A02
100
AcDbEntity
  8
Facebinder
100
AcDbCircle
 10
309.529
 20
-126.732
 30
1.59694
 40
1
100
AcDbArc
 50
90
 51
150.3
  0
LINE
  5
A0E
330
A02
100
AcDbEntity
  8
Facebinder
100
AcDbLine
 10
345.321
 20
-125.732
 30
1.59694
 11
309.529
 21
-125.732
 31
1.59694
  0
ARC
  5
A0F
330
A02
100
AcDbEntity
  8
Facebinder
100
AcDbCircle
 10
345.321
 20
-123.732
 30
1.59694
 40
2
100
AcDbArc
 50
-90
 51
0
  0
LINE
  5
A10
330
A02
100
AcDbEntity
  8
Facebinder
100
AcDbLine
 10
347.321
 20
-123.732
 30
1.59694
 11
347.321
 21
-1.97489
 31
1.59694
  0
ARC
  5
A11
330
A02
100
AcDbEntity
  8
Facebinder
100
AcDbCircle
 10
345.321
 20
-1.97489
 30
1.59694
 40
2
100
AcDbArc
 50
0
 51
90
  0
LINE
  5
A12
330
A02
100
AcDbEntity
  8
Facebinder
100
AcDbLine
 10
345.321
 20
0.0251061
 30
1.59694
 11
309.529
 21
0.0251061
 31
1.59694
  0
ARC
  5
A13
330
A02
100
AcDbEntity
  8
Facebinder
100
AcDbCircle
 10
309.529
 20
1.02511
 30
1.59694
 40
1
100
AcDbArc
 50
-150.3
 51
-90
  0
LINE
  5
A14
330
A02
100
AcDbEntity
  8
Facebinder
100
AcDbLine
 10
308.661
 20
0.529647
 30
1.59694
 11
306.278
 21
4.70611
 31
1.59694
  0
ARC
  5
A15
330
A02
100
AcDbEntity
  8
Facebinder
100
AcDbCircle
 10
303.948
 20
3.02511
 30
1.59694
 40
2.8731
100
AcDbArc
 50
35.8089
 51
144.191
  0
LINE
  5
A16
330
A02
100
AcDbEntity
  8
Facebinder
100
AcDbLine
 10
301.618
 20
4.70611
 30
1.59694
 11
299.236
 21
0.529647
 31
1.59694
  0
ARC
  5
A17
330
A02
100
AcDbEntity
  8
Facebinder
100
AcDbCircle
 10
298.368
 20
1.02511
 30
1.59694
 40
1
100
AcDbArc
 50
-90
 51
-29.7
  0
LINE
  5
A18
330
A02
100
AcDbEntity
  8
Facebinder
100
AcDbLine
 10
298.368
 20
0.0251061
 30
1.59694
 11
222.784
 21
0.0251061
 31
1.59694
  0
ARC
  5
A19
330
A02
100
AcDbEntity
  8
Facebinder
100
AcDbCircle
 10
222.784
 20
1.02511
 30
1.59694
 40
1
100
AcDbArc
 50
-150.3
 51
-90
  0
LINE
  5
A1A
330
A02
100
AcDbEntity
  8
Facebinder
100
AcDbLine
 10
221.916
 20
0.529647
 30
1.59694
 11
219.533
 21
4.70611
 31
1.59694
  0
ARC
  5
A1B
330
A02
100
AcDbEntity
  8
Facebinder
100
AcDbCircle
 10
217.203
 20
3.02511
 30
1.59694
 40
2.8731
100
AcDbArc
 50
35.8089
 51
144.191
  0
LINE
  5
A1C
330
A02
100
AcDbEntity
  8
Facebinder
100
AcDbLine
 10
214.873
 20
4.70611
 30
1.59694
 11
212.491
 21
0.529647
 31
1.59694
  0
ARC
  5
A1D
330
A02
100
AcDbEntity
  8
Facebinder
100
AcDbCircle
 10
211.623
 20
1.02511
 30
1.59694
 40
1
100
AcDbArc
 50
-90
 51
-29.7
  0
LINE
  5
A1E
330
A02
100
AcDbEntity
  8
Facebinder
100
AcDbLine
 10
211.623
 20
0.0251061
 30
1.59694
 11
136.04
 21
0.0251061
 31
1.59694
  0
ARC
  5
A1F
330
A02
100
AcDbEntity
  8
Facebinder
100
AcDbCircle
 10
136.04
 20
1.02511
 30
1.59694
 40
1
100
AcDbArc
 50
-150.3
 51
-90
  0
LINE
  5
A20
330
A02
100
AcDbEntity
  8
Facebinder
100
AcDbLine
 10
135.172
 20
0.529647
 30
1.59694
 11
132.789
 21
4.70611
 31
1.59694
  0
ARC
  5
A21
330
A02
100
AcDbEntity
  8
Facebinder
100
AcDbCircle
 10
130.459
 20
3.02511
 30
1.59694
 40
2.8731
100
AcDbArc
 50
35.8089
 51
144.191
  0
LINE
  5
A22
330
A02
100
AcDbEntity
  8
Facebinder
100
AcDbLine
 10
128.129
 20
4.70611
 30
1.59694
 11
125.747
 21
0.529647
 31
1.59694
  0
ARC
  5
A23
330
A02
100
AcDbEntity
  8
Facebinder
100
AcDbCircle
 10
124.878
 20
1.02511
 30
1.59694
 40
1
100
AcDbArc
 50
-90
 51
-29.7
  0
LINE
  5
A24
330
A02
100
AcDbEntity
  8
Facebinder
100
AcDbLine
 10
124.878
 20
0.0251061
 30
1.59694
 11
49.2951
 21
0.0251061
 31
1.59694
  0
ARC
  5
A25
330
A02
100
AcDbEntity
  8
Facebinder
100
AcDbCircle
 10
49.2951
 20
1.02511
 30
1.59694
 40
1
100
AcDbArc
 50
-150.3
 51
-90
  0
LINE
  5
A26
330
A02
100
AcDbEntity
  8
Facebinder
100
AcDbLine
 10
48.4265
 20
0.529647
 30
1.59694
 11
46.0443
 21
4.70611
 31
1.59694
  0
ARC
  5
A27
330
A02
100
AcDbEntity
  8
Facebinder
100
AcDbCircle
 10
43.7143
 20
3.02511
 30
1.59694
 40
2.8731
100
AcDbArc
 50
35.8089
 51
144.191
  0
LINE
  5
A28
330
A02
100
AcDbEntity
  8
Facebinder
100
AcDbLine
 10
41.3843
 20
4.70611
 30
1.59694
 11
39.0021
 21
0.529647
 31
1.59694
  0
ARC
  5
A29
330
A02
100
AcDbEntity
  8
Facebinder
100
AcDbCircle
 10
38.1335
 20
1.02511
 30
1.59694
 40
1
100
AcDbArc
 50
-90
 51
-29.7
  0
LINE
  5
A2A
330
A02
100
AcDbEntity
  8
Facebinder
100
AcDbLine
 10
38.1335
 20
0.0251061
 30
1.59694
 11
2.17793
 21
0.0251061
 31
1.59694
  0
ARC
  5
A2B
330
A02
100
AcDbEntity
  8
Facebinder
100
AcDbCircle
 10
2.17793
 20
-1.97489
 30
1.59694
 40
2
100
AcDbArc
 50
90
 51
-180
  0
LINE
  5
A2C
330
A02
100
AcDbEntity
  8
Facebinder
100
AcDbLine
 10
0.177935
 20
-123.732
 30
1.59694
 11
0.177935
 21
-1.97489
 31
1.59694
  0
ARC
  5
A2D
330
A02
100
AcDbEntity
  8
Facebinder
100
AcDbCircle
 10
2.17793
 20
-123.732
 30
1.59694
 40
2
100
AcDbArc
 50
180
 51
-90
  0
LINE
  5
A2E
330
A02
100
AcDbEntity
  8
Facebinder
100
AcDbLine
 10
38.1335
 20
-125.732
 30
1.59694
 11
2.17793
 21
-125.732
 31
1.59694
  0
ARC
  5
A2F
330
A02
100
AcDbEntity
  8
Facebinder
100
AcDbCircle
 10
38.1335
 20
-126.732
 30
1.59694
 40
1
100
AcDbArc
 50
29.7
 51
90
  0
LINE
  5
A30
330
A02
100
AcDbEntity
  8
Facebinder
100
AcDbLine
 10
39.0021
 20
-126.236
 30
1.59694
 11
41.3843
 21
-130.413
 31
1.59694
  0
ARC
  5
A31
330
A02
100
AcDbEntity
  8
Facebinder
100
AcDbCircle
 10
43.7143
 20
-128.732
 30
1.59694
 40
2.8731
100
AcDbArc
 50
-144.191
 51
-35.8089
  0
LINE
  5
A32
330
A02
100
AcDbEntity
  8
Facebinder
100
AcDbLine
 10
48.4265
 20
-126.236
 30
1.59694
 11
46.0443
 21
-130.413
 31
1.59694
  0
ARC
  5
A33
330
A02
100
AcDbEntity
  8
Facebinder
100
AcDbCircle
 10
49.2951
 20
-126.732
 30
1.59694
 40
1
100
AcDbArc
 50
90
 51
150.3
  0
LINE
  5
A34
330
A02
100
AcDbEntity
  8
Facebinder
100
AcDbLine
 10
75.7869
 20
-125.732
 30
1.59694
 11
49.2951
 21
-125.732
 31
1.59694
  0
ARC
  5
A35
330
A02
100
AcDbEntity
  8
Facebinder
100
AcDbCircle
 10
75.7869
 20
-124.732
 30
1.59694
 40
1
100
AcDbArc
 50
-90
 51
-8.14222e-13
  0
LINE
  5
A36
330
A02
100
AcDbEntity
  8
Facebinder
100
AcDbLine
 10
76.7869
 20
-124.732
 30
1.59694
 11
76.7869
 21
-108.284
 31
1.59694
  0
ARC
  5
A37
330
A02
100
AcDbEntity
  8
Facebinder
100
AcDbCircle
 10
77.7869
 20
-108.284
 30
1.59694
 40
1
100
AcDbArc
 50
90
 51
180
  0
LINE
  5
A38
330
A02
100
AcDbEntity
  8
Facebinder
100
AcDbLine
 10
77.7869
 20
-107.284
 30
1.59694
 11
88.581
 21
-107.284
 31
1.59694
  0
ARC
  5
A39
330
A02
100
AcDbEntity
  8
Facebinder
100
AcDbCircle
 10
88.581
 20
-108.284
 30
1.59694
 40
1
100
AcDbArc
 50
0
 51
90
  0
LINE
  5
A3A
330
A02
100
AcDbEntity
  8
Facebinder
100
AcDbLine
 10
89.581
 20
-108.284
 30
1.59694
 11
89.581
 21
-124.732
 31
1.59694
  0
ARC
  5
A3B
330
A02
100
AcDbEntity
  8
Facebinder
100
AcDbCircle
 10
90.581
 20
-124.732
 30
1.59694
 40
1
100
AcDbArc
 50
180
 51
-90
  0
LINE
  5
A3C
330
A02
100
AcDbEntity
  8
Facebinder
100
AcDbLine
 10
90.581
 20
-125.732
 30
1.59694
 11
175.787
 21
-125.732
 31
1.59694
  0
ARC
  5
A3D
330
A02
100
AcDbEntity
  8
Facebinder
100
AcDbCircle
 10
175.787
 20
-124.732
 30
1.59694
 40
1
100
AcDbArc
 50
-90
 51
0
  0
LINE
  5
A3E
330
A02
100
AcDbEntity
  8
Facebinder
100
AcDbLine
 10
176.787
 20
-124.732
 30
1.59694
 11
176.787
 21
-108.284
 31
1.59694
  0
ARC
  5
A3F
330
A02
100
AcDbEntity
  8
Facebinder
100
AcDbCircle
 10
177.787
 20
-108.284
 30
1.59694
 40
1
100
AcDbArc
 50
90
 51
180
  0
LINE
  5
A40
330
A02
100
AcDbEntity
  8
Facebinder
100
AcDbLine
 10
177.787
 20
-107.284
 30
1.59694
 11
183.787
 21
-107.284
 31
1.59694
  0
ARC
  5
A41
330
A02
100
AcDbEntity
  8
Facebinder
100
AcDbCircle
 10
183.787
 20
-108.284
 30
1.59694
 40
1
100
AcDbArc
 50
6.92924e-07
 51
90
  0
LINE
  5
A42
330
A02
100
AcDbEntity
  8
Facebinder
100
AcDbLine
 10
184.787
 20
-108.284
 30
1.59694
 11
184.787
 21
-123.082
 31
1.59694
  0
ARC
  5
A43
330
A02
100
AcDbEntity
  8
Facebinder
100
AcDbCircle
 10
185.787
 20
-123.082
 30
1.59694
 40
1
100
AcDbArc
 50
-180
 51
-90
  0
LINE
  5
A44
330
A02
100
AcDbEntity
  8
Facebinder
100
AcDbLine
 10
194.213
 20
-124.082
 30
1.59694
 11
185.787
 21
-124.082
 31
1.59694
  0
ARC
  5
A45
330
A02
100
AcDbEntity
  8
Facebinder
100
AcDbCircle
 10
194.213
 20
-123.082
 30
1.59694
 40
1
100
AcDbArc
 50
-90
 51
6.92925e-07
  0
LINE
  5
A46
330
A02
100
AcDbEntity
  8
Facebinder
100
AcDbLine
 10
195.213
 20
-108.284
 30
1.59694
 11
195.213
 21
-123.082
 31
1.59694
  0
ARC
  5
A47
330
A02
100
AcDbEntity
  8
Facebinder
100
AcDbCircle
 10
196.213
 20
-108.284
 30
1.59694
 40
1
100
AcDbArc
 50
90
 51
-180
  0
LINE
  5
A48
330
A02
100
AcDbEntity
  8
Facebinder
100
AcDbLine
 10
196.213
 20
-107.284
 30
1.59694
 11
202.762
 21
-107.284
 31
1.59694
  0
ARC
  5
A49
330
A02
100
AcDbEntity
  8
Facebinder
100
AcDbCircle
 10
202.762
 20
-108.284
 30
1.59694
 40
1
100
AcDbArc
 50
0
 51
90
  0
LINE
  5
A4A
330
A02
100
AcDbEntity
  8
Facebinder
100
AcDbLine
 10
203.762
 20
-108.284
 30
1.59694
 11
203.762
 21
-108.534
 31
1.59694
  0
ARC
  5
A4B
330
A02
100
AcDbEntity
  8
Facebinder
100
AcDbCircle
 10
204.762
 20
-108.534
 30
1.59694
 40
1
100
AcDbArc
 50
180
 51
-90
  0
LINE
  5
A4C
330
A02
100
AcDbEntity
  8
Facebinder
100
AcDbLine
 10
204.762
 20
-109.534
 30
1.59694
 11
208.762
 21
-109.534
 31
1.59694
  0
ARC
  5
A4D
330
A02
100
AcDbEntity
  8
Facebinder
100
AcDbCircle
 10
208.762
 20
-110.034
 30
1.59694
 40
0.5
100
AcDbArc
 50
0
 51
90
  0
LINE
  5
A4E
330
A02
100
AcDbEntity
  8
Facebinder
100
AcDbLine
 10
209.262
 20
-110.034
 30
1.59694
 11
209.262
 21
-123.034
 31
1.59694
  0
ARC
  5
A4F
330
A02
100
AcDbEntity
  8
Facebinder
100
AcDbCircle
 10
208.762
 20
-123.034
 30
1.59694
 40
0.5
100
AcDbArc
 50
-90
 51
0
  0
LINE
  5
A50
330
A02
100
AcDbEntity
  8
Facebinder
100
AcDbLine
 10
208.762
 20
-123.534
 30
1.59694
 11
204.262
 21
-123.534
 31
1.59694
  0
ARC
  5
A51
330
A02
100
AcDbEntity
  8
Facebinder
100
AcDbCircle
 10
204.262
 20
-124.034
 30
1.59694
 40
0.5
100
AcDbArc
 50
90
 51
180
  0
LINE
  5
A52
330
A02
100
AcDbEntity
  8
Facebinder
100
AcDbLine
 10
203.762
 20
-124.034
 30
1.59694
 11
203.762
 21
-125.232
 31
1.59694
  0
ARC
  5
A53
330
A02
100
AcDbEntity
  8
Facebinder
100
AcDbCircle
 10
204.262
 20
-125.232
 30
1.59694
 40
0.5
100
AcDbArc
 50
180
 51
-90
  0
LINE
  5
A54
330
A02
100
AcDbEntity
  8
Facebinder
100
AcDbLine
 10
211.623
 20
-125.732
 30
1.59694
 11
204.262
 21
-125.732
 31
1.59694
  0
ARC
  5
A55
330
A02
100
AcDbEntity
  8
Facebinder
100
AcDbCircle
 10
211.623
 20
-126.732
 30
1.59694
 40
1
100
AcDbArc
 50
29.7
 51
90
  0
LINE
  5
A56
330
A02
100
AcDbEntity
  8
Facebinder
100
AcDbLine
 10
212.491
 20
-126.236
 30
1.59694
 11
214.873
 21
-130.413
 31
1.59694
  0
ARC
  5
A57
330
A02
100
AcDbEntity
  8
Facebinder
100
AcDbCircle
 10
217.203
 20
-128.732
 30
1.59694
 40
2.8731
100
AcDbArc
 50
-144.191
 51
-35.8089
  0
LINE
  5
A58
330
A02
100
AcDbEntity
  8
Facebinder
100
AcDbLine
 10
221.916
 20
-126.236
 30
1.59694
 11
219.533
 21
-130.413
 31
1.59694
  0
ARC
  5
A59
330
A02
100
AcDbEntity
  8
Facebinder
100
AcDbCircle
 10
222.784
 20
-126.732
 30
1.59694
 40
1
100
AcDbArc
 50
90
 51
150.3
  0
LINE
  5
A5A
330
A02
100
AcDbEntity
  8
Facebinder
100
AcDbLine
 10
21.1438
 20
-110.034
 30
1.59694
 11
21.1438
 21
-123.033
 31
1.59694
  0
ARC
  5
A5B
330
A02
100
AcDbEntity
  8
Facebinder
100
AcDbCircle
 10
20.6438
 20
-123.033
 30
1.59694
 40
0.5
100
AcDbArc
 50
-90
 51
0
  0
LINE
  5
A5C
330
A02
100
AcDbEntity
  8
Facebinder
100
AcDbLine
 10
20.6438
 20
-123.533
 30
1.59694
 11
5.26276
 21
-123.533
 31
1.59694
  0
ARC
  5
A5D
330
A02
100
AcDbEntity
  8
Facebinder
100
AcDbCircle
 10
5.26276
 20
-123.033
 30
1.59694
 40
0.5
100
AcDbArc
 50
180
 51
-90
  0
LINE
  5
A5E
330
A02
100
AcDbEntity
  8
Facebinder
100
AcDbLine
 10
4.76276
 20
-123.033
 30
1.59694
 11
4.76276
 21
-110.034
 31
1.59694
  0
ARC
  5
A5F
330
A02
100
AcDbEntity
  8
Facebinder
100
AcDbCircle
 10
5.26276
 20
-110.034
 30
1.59694
 40
0.5
100
AcDbArc
 50
90
 51
180
  0
LINE
  5
A60
330
A02
100
AcDbEntity
  8
Facebinder
100
AcDbLine
 10
20.6438
 20
-109.534
 30
1.59694
 11
5.26276
 21
-109.534
 31
1.59694
  0
ARC
  5
A61
330
A02
100
AcDbEntity
  8
Facebinder
100
AcDbCircle
 10
20.6438
 20
-110.034
 30
1.59694
 40
0.5
100
AcDbArc
 50
0
 51
90
  0
LINE
  5
A62
330
A02
100
AcDbEntity
  8
Facebinder
100
AcDbLine
 10
325.944
 20
-90.9844
 30
1.59694
 11
325.944
 21
-103.984
 31
1.59694
  0
ARC
  5
A63
330
A02
100
AcDbEntity
  8
Facebinder
100
AcDbCircle
 10
325.444
 20
-103.984
 30
1.59694
 40
0.5
100
AcDbArc
 50
-90
 51
0
  0
LINE
  5
A64
330
A02
100
AcDbEntity
  8
Facebinder
100
AcDbLine
 10
325.444
 20
-104.484
 30
1.59694
 11
312.444
 21
-104.484
 31
1.59694
  0
ARC
  5
A65
330
A02
100
AcDbEntity
  8
Facebinder
100
AcDbCircle
 10
312.444
 20
-103.984
 30
1.59694
 40
0.5
100
AcDbArc
 50
180
 51
-90
  0
LINE
  5
A66
330
A02
100
AcDbEntity
  8
Facebinder
100
AcDbLine
 10
311.944
 20
-103.984
 30
1.59694
 11
311.944
 21
-90.9844
 31
1.59694
  0
ARC
  5
A67
330
A02
100
AcDbEntity
  8
Facebinder
100
AcDbCircle
 10
312.444
 20
-90.9844
 30
1.59694
 40
0.5
100
AcDbArc
 50
90
 51
180
  0
LINE
  5
A68
330
A02
100
AcDbEntity
  8
Facebinder
100
AcDbLine
 10
312.444
 20
-90.4844
 30
1.59694
 11
325.444
 21
-90.4844
 31
1.59694
  0
ARC
  5
A69
330
A02
100
AcDbEntity
  8
Facebinder
100
AcDbCircle
 10
325.444
 20
-90.9844
 30
1.59694
 40
0.5
100
AcDbArc
 50
0
 51
90
  0
ARC
  5
A6A
330
A02
100
AcDbEntity
  8
Facebinder
100
AcDbCircle
 10
250.282
 20
-34.2114
 30
1.59694
 40
0.5
100
AcDbArc
 50
-84.294
 51
0
  0
LINE
  5
A6B
330
A02
100
AcDbEntity
  8
Facebinder
100
AcDbLine
 10
250.782
 20
-34.2114
 30
1.59694
 11
250.782
 21
-31.8343
 31
1.59694
  0
ARC
  5
A6C
330
A02
100
AcDbEntity
  8
Facebinder
100
AcDbCircle
 10
251.282
 20
-31.8343
 30
1.59694
 40
0.5
100
AcDbArc
 50
90
 51
180
  0
LINE
  5
A6D
330
A02
100
AcDbEntity
  8
Facebinder
100
AcDbLine
 10
251.282
 20
-31.3343
 30
1.59694
 11
257.781
 21
-31.3343
 31
1.59694
  0
ARC
  5
A6E
330
A02
100
AcDbEntity
  8
Facebinder
100
AcDbCircle
 10
257.781
 20
-31.8343
 30
1.59694
 40
0.5
100
AcDbArc
 50
0
 51
90
  0
LINE
  5
A6F
330
A02
100
AcDbEntity
  8
Facebinder
100
AcDbLine
 10
258.281
 20
-31.8343
 30
1.59694
 11
258.281
 21
-32.8343
 31
1.59694
  0
ARC
  5
A70
330
A02
100
AcDbEntity
  8
Facebinder
100
AcDbCircle
 10
258.781
 20
-32.8343
 30
1.59694
 40
0.5
100
AcDbArc
 50
180
 51
-90
  0
LINE
  5
A71
330
A02
100
AcDbEntity
  8
Facebinder
100
AcDbLine
 10
258.781
 20
-33.3343
 30
1.59694
 11
274.332
 21
-33.3343
 31
1.59694
  0
ARC
  5
A72
330
A02
100
AcDbEntity
  8
Facebinder
100
AcDbCircle
 10
274.332
 20
-32.8343
 30
1.59694
 40
0.5
100
AcDbArc
 50
-90
 51
0
  0
LINE
  5
A73
330
A02
100
AcDbEntity
  8
Facebinder
100
AcDbLine
 10
274.832
 20
-32.8343
 30
1.59694
 11
274.832
 21
-31.8343
 31
1.59694
  0
ARC
  5
A74
330
A02
100
AcDbEntity
  8
Facebinder
100
AcDbCircle
 10
275.332
 20
-31.8343
 30
1.59694
 40
0.5
100
AcDbArc
 50
90
 51
180
  0
LINE
  5
A75
330
A02
100
AcDbEntity
  8
Facebinder
100
AcDbLine
 10
275.332
 20
-31.3343
 30
1.59694
 11
282.731
 21
-31.3343
 31
1.59694
  0
ARC
  5
A76
330
A02
100
AcDbEntity
  8
Facebinder
100
AcDbCircle
 10
282.731
 20
-31.8343
 30
1.59694
 40
0.5
100
AcDbArc
 50
0
 51
90
  0
LINE
  5
A77
330
A02
100
AcDbEntity
  8
Facebinder
100
AcDbLine
 10
283.231
 20
-31.8343
 30
1.59694
 11
283.231
 21
-49.8346
 31
1.59694
  0
ARC
  5
A78
330
A02
100
AcDbEntity
  8
Facebinder
100
AcDbCircle
 10
282.731
 20
-49.8346
 30
1.59694
 40
0.5
100
AcDbArc
 50
-90
 51
0
  0
LINE
  5
A79
330
A02
100
AcDbEntity
  8
Facebinder
100
AcDbLine
 10
282.731
 20
-50.3346
 30
1.59694
 11
251.282
 21
-50.3346
 31
1.59694
  0
ARC
  5
A7A
330
A02
100
AcDbEntity
  8
Facebinder
100
AcDbCircle
 10
251.282
 20
-49.8346
 30
1.59694
 40
0.5
100
AcDbArc
 50
180
 51
-90
  0
LINE
  5
A7B
330
A02
100
AcDbEntity
  8
Facebinder
100
AcDbLine
 10
250.782
 20
-49.8346
 30
1.59694
 11
250.782
 21
-47.8336
 31
1.59694
  0
ARC
  5
A7C
330
A02
100
AcDbEntity
  8
Facebinder
100
AcDbCircle
 10
250.282
 20
-47.8336
 30
1.59694
 40
0.5
100
AcDbArc
 50
0
 51
84.294
  0
ARC
  5
A7D
330
A02
100
AcDbEntity
  8
Facebinder
100
AcDbCircle
 10
250.381
 20
-46.8385
 30
1.59694
 40
0.5
100
AcDbArc
 50
-180
 51
-95.706
  0
LINE
  5
A7E
330
A02
100
AcDbEntity
  8
Facebinder
100
AcDbLine
 10
249.881
 20
-46.8385
 30
1.59694
 11
249.881
 21
-35.2064
 31
1.59694
  0
ARC
  5
A7F
330
A02
100
AcDbEntity
  8
Facebinder
100
AcDbCircle
 10
250.381
 20
-35.2064
 30
1.59694
 40
0.5
100
AcDbArc
 50
95.706
 51
-180
  0
LINE
  5
A80
330
A02
100
AcDbEntity
  8
Facebinder
100
AcDbLine
 10
254.006
 20
-66.3836
 30
1.59694
 11
241.007
 21
-66.3836
 31
1.59694
  0
ARC
  5
A81
330
A02
100
AcDbEntity
  8
Facebinder
100
AcDbCircle
 10
241.007
 20
-65.8836
 30
1.59694
 40
0.5
100
AcDbArc
 50
180
 51
-90
  0
LINE
  5
A82
330
A02
100
AcDbEntity
  8
Facebinder
100
AcDbLine
 10
240.507
 20
-65.8836
 30
1.59694
 11
240.507
 21
-52.8843
 31
1.59694
  0
ARC
  5
A83
330
A02
100
AcDbEntity
  8
Facebinder
100
AcDbCircle
 10
241.007
 20
-52.8843
 30
1.59694
 40
0.5
100
AcDbArc
 50
90
 51
180
  0
LINE
  5
A84
330
A02
100
AcDbEntity
  8
Facebinder
100
AcDbLine
 10
241.007
 20
-52.3843
 30
1.59694
 11
254.006
 21
-52.3843
 31
1.59694
  0
ARC
  5
A85
330
A02
100
AcDbEntity
  8
Facebinder
100
AcDbCircle
 10
254.006
 20
-52.8843
 30
1.59694
 40
0.5
100
AcDbArc
 50
0
 51
90
  0
LINE
  5
A86
330
A02
100
AcDbEntity
  8
Facebinder
100
AcDbLine
 10
254.506
 20
-52.8843
 30
1.59694
 11
254.506
 21
-65.8836
 31
1.59694
  0
ARC
  5
A87
330
A02
100
AcDbEntity
  8
Facebinder
100
AcDbCircle
 10
254.006
 20
-65.8836
 30
1.59694
 40
0.5
100
AcDbArc
 50
-90
 51
0
  0
LINE
  5
A88
330
A02
100
AcDbEntity
  8
Facebinder
100
AcDbLine
 10
280.2
 20
-123.533
 30
1.59694
 11
264.819
 21
-123.533
 31
1.59694
  0
ARC
  5
A89
330
A02
100
AcDbEntity
  8
Facebinder
100
AcDbCircle
 10
264.819
 20
-123.033
 30
1.59694
 40
0.5
100
AcDbArc
 50
180
 51
-90
  0
LINE
  5
A8A
330
A02
100
AcDbEntity
  8
Facebinder
100
AcDbLine
 10
264.319
 20
-123.033
 30
1.59694
 11
264.319
 21
-110.034
 31
1.59694
  0
ARC
  5
A8B
330
A02
100
AcDbEntity
  8
Facebinder
100
AcDbCircle
 10
264.819
 20
-110.034
 30
1.59694
 40
0.5
100
AcDbArc
 50
90
 51
180
  0
LINE
  5
A8C
330
A02
100
AcDbEntity
  8
Facebinder
100
AcDbLine
 10
264.819
 20
-109.534
 30
1.59694
 11
280.2
 21
-109.534
 31
1.59694
  0
ARC
  5
A8D
330
A02
100
AcDbEntity
  8
Facebinder
100
AcDbCircle
 10
280.2
 20
-110.034
 30
1.59694
 40
0.5
100
AcDbArc
 50
0
 51
90
  0
LINE
  5
A8E
330
A02
100
AcDbEntity
  8
Facebinder
100
AcDbLine
 10
280.7
 20
-110.034
 30
1.59694
 11
280.7
 21
-123.033
 31
1.59694
  0
ARC
  5
A8F
330
A02
100
AcDbEntity
  8
Facebinder
100
AcDbCircle
 10
280.2
 20
-123.033
 30
1.59694
 40
0.5
100
AcDbArc
 50
-90
 51
0
  0
LINE
  5
A90
330
A02
100
AcDbEntity
  8
Facebinder
100
AcDbLine
 10
217.194
 20
-90.4844
 30
1.59694
 11
230.194
 21
-90.4844
 31
1.59694
  0
ARC
  5
A91
330
A02
100
AcDbEntity
  8
Facebinder
100
AcDbCircle
 10
230.194
 20
-90.9844
 30
1.59694
 40
0.5
100
AcDbArc
 50
0
 51
90
  0
LINE
  5
A92
330
A02
100
AcDbEntity
  8
Facebinder
100
AcDbLine
 10
230.694
 20
-90.9844
 30
1.59694
 11
230.694
 21
-103.984
 31
1.59694
  0
ARC
  5
A93
330
A02
100
AcDbEntity
  8
Facebinder
100
AcDbCircle
 10
230.194
 20
-103.984
 30
1.59694
 40
0.5
100
AcDbArc
 50
-90
 51
0
  0
LINE
  5
A94
330
A02
100
AcDbEntity
  8
Facebinder
100
AcDbLine
 10
230.194
 20
-104.484
 30
1.59694
 11
217.194
 21
-104.484
 31
1.59694
  0
ARC
  5
A95
330
A02
100
AcDbEntity
  8
Facebinder
100
AcDbCircle
 10
217.194
 20
-103.984
 30
1.59694
 40
0.5
100
AcDbArc
 50
180
 51
-90
  0
LINE
  5
A96
330
A02
100
AcDbEntity
  8
Facebinder
100
AcDbLine
 10
216.694
 20
-103.984
 30
1.59694
 11
216.694
 21
-90.9844
 31
1.59694
  0
ARC
  5
A97
330
A02
100
AcDbEntity
  8
Facebinder
100
AcDbCircle
 10
217.194
 20
-90.9844
 30
1.59694
 40
0.5
100
AcDbArc
 50
90
 51
180
  0
LINE
  5
A98
330
A02
100
AcDbEntity
  8
Facebinder
100
AcDbLine
 10
211.644
 20
-90.9844
 30
1.59694
 11
211.644
 21
-103.984
 31
1.59694
  0
ARC
  5
A99
330
A02
100
AcDbEntity
  8
Facebinder
100
AcDbCircle
 10
211.144
 20
-103.984
 30
1.59694
 40
0.5
100
AcDbArc
 50
-90
 51
0
  0
LINE
  5
A9A
330
A02
100
AcDbEntity
  8
Facebinder
100
AcDbLine
 10
211.144
 20
-104.484
 30
1.59694
 11
198.144
 21
-104.484
 31
1.59694
  0
ARC
  5
A9B
330
A02
100
AcDbEntity
  8
Facebinder
100
AcDbCircle
 10
198.144
 20
-103.984
 30
1.59694
 40
0.5
100
AcDbArc
 50
180
 51
-90
  0
LINE
  5
A9C
330
A02
100
AcDbEntity
  8
Facebinder
100
AcDbLine
 10
197.644
 20
-103.984
 30
1.59694
 11
197.644
 21
-90.9844
 31
1.59694
  0
ARC
  5
A9D
330
A02
100
AcDbEntity
  8
Facebinder
100
AcDbCircle
 10
198.144
 20
-90.9844
 30
1.59694
 40
0.5
100
AcDbArc
 50
90
 51
180
  0
LINE
  5
A9E
330
A02
100
AcDbEntity
  8
Facebinder
100
AcDbLine
 10
198.144
 20
-90.4844
 30
1.59694
 11
211.144
 21
-90.4844
 31
1.59694
  0
ARC
  5
A9F
330
A02
100
AcDbEntity
  8
Facebinder
100
AcDbCircle
 10
211.144
 20
-90.9844
 30
1.59694
 40
0.5
100
AcDbArc
 50
0
 51
90
  0
CIRCLE
  5
AA0
330
A02
100
AcDbEntity
  8
Facebinder
100
AcDbCircle
 10
217.203
 20
-128.732
 40
1.1
  0
CIRCLE
  5
AA1
330
A02
100
AcDbEntity
  8
Facebinder
100
AcDbCircle
 10
303.948
 20
-128.732
 40
1.1
  0
CIRCLE
  5
AA2
330
A02
100
AcDbEntity
  8
Facebinder
100
AcDbCircle
 10
337.995
 20
-97.4833
 40
2.2
  0
LINE
  5
AA3
330
A02
100
AcDbEntity
  8
Facebinder
100
AcDbLine
 10
226.719
 20
-71.4343
 30
1.59694
 11
239.719
 21
-71.4343
 31
1.59694
  0
ARC
  5
AA4
330
A02
100
AcDbEntity
  8
Facebinder
100
AcDbCircle
 10
239.719
 20
-71.9343
 30
1.59694
 40
0.5
100
AcDbArc
 50
0
 51
90
  0
LINE
  5
AA5
330
A02
100
AcDbEntity
  8
Facebinder
100
AcDbLine
 10
240.219
 20
-71.9343
 30
1.59694
 11
240.219
 21
-84.9336
 31
1.59694
  0
ARC
  5
AA6
330
A02
100
AcDbEntity
  8
Facebinder
100
AcDbCircle
 10
239.719
 20
-84.9336
 30
1.59694
 40
0.5
100
AcDbArc
 50
-90
 51
0
  0
LINE
  5
AA7
330
A02
100
AcDbEntity
  8
Facebinder
100
AcDbLine
 10
239.719
 20
-85.4336
 30
1.59694
 11
226.719
 21
-85.4336
 31
1.59694
  0
ARC
  5
AA8
330
A02
100
AcDbEntity
  8
Facebinder
100
AcDbCircle
 10
226.719
 20
-84.9336
 30
1.59694
 40
0.5
100
AcDbArc
 50
180
 51
-90
  0
LINE
  5
AA9
330
A02
100
AcDbEntity
  8
Facebinder
100
AcDbLine
 10
226.219
 20
-84.9336
 30
1.59694
 11
226.219
 21
-71.9343
 31
1.59694
  0
ARC
  5
AAA
330
A02
100
AcDbEntity
  8
Facebinder
100
AcDbCircle
 10
226.719
 20
-71.9343
 30
1.59694
 40
0.5
100
AcDbArc
 50
90
 51
180
  0
LINE
  5
AAB
330
A02
100
AcDbEntity
  8
Facebinder
100
AcDbLine
 10
221.169
 20
-71.9343
 30
1.59694
 11
221.169
 21
-84.9336
 31
1.59694
  0
ARC
  5
AAC
330
A02
100
AcDbEntity
  8
Facebinder
100
AcDbCircle
 10
220.669
 20
-84.9336
 30
1.59694
 40
0.5
100
AcDbArc
 50
-90
 51
0
  0
LINE
  5
AAD
330
A02
100
AcDbEntity
  8
Facebinder
100
AcDbLine
 10
220.669
 20
-85.4336
 30
1.59694
 11
207.669
 21
-85.4336
 31
1.59694
  0
ARC
  5
AAE
330
A02
100
AcDbEntity
  8
Facebinder
100
AcDbCircle
 10
207.669
 20
-84.9336
 30
1.59694
 40
0.5
100
AcDbArc
 50
180
 51
-90
  0
LINE
  5
AAF
330
A02
100
AcDbEntity
  8
Facebinder
100
AcDbLine
 10
207.169
 20
-84.9336
 30
1.59694
 11
207.169
 21
-71.9343
 31
1.59694
  0
ARC
  5
AB0
330
A02
100
AcDbEntity
  8
Facebinder
100
AcDbCircle
 10
207.669
 20
-71.9343
 30
1.59694
 40
0.5
100
AcDbArc
 50
90
 51
180
  0
LINE
  5
AB1
330
A02
100
AcDbEntity
  8
Facebinder
100
AcDbLine
 10
207.669
 20
-71.4343
 30
1.59694
 11
220.669
 21
-71.4343
 31
1.59694
  0
ARC
  5
AB2
330
A02
100
AcDbEntity
  8
Facebinder
100
AcDbCircle
 10
220.669
 20
-71.9343
 30
1.59694
 40
0.5
100
AcDbArc
 50
0
 51
90
  0
LINE
  5
AB3
330
A02
100
AcDbEntity
  8
Facebinder
100
AcDbLine
 10
202.119
 20
-71.9343
 30
1.59694
 11
202.119
 21
-84.9336
 31
1.59694
  0
ARC
  5
AB4
330
A02
100
AcDbEntity
  8
Facebinder
100
AcDbCircle
 10
201.619
 20
-84.9336
 30
1.59694
 40
0.5
100
AcDbArc
 50
-90
 51
0
  0
LINE
  5
AB5
330
A02
100
AcDbEntity
  8
Facebinder
100
AcDbLine
 10
201.619
 20
-85.4336
 30
1.59694
 11
188.619
 21
-85.4336
 31
1.59694
  0
ARC
  5
AB6
330
A02
100
AcDbEntity
  8
Facebinder
100
AcDbCircle
 10
188.619
 20
-84.9336
 30
1.59694
 40
0.5
100
AcDbArc
 50
180
 51
-90
  0
LINE
  5
AB7
330
A02
100
AcDbEntity
  8
Facebinder
100
AcDbLine
 10
188.119
 20
-84.9336
 30
1.59694
 11
188.119
 21
-71.9343
 31
1.59694
  0
ARC
  5
AB8
330
A02
100
AcDbEntity
  8
Facebinder
100
AcDbCircle
 10
188.619
 20
-71.9343
 30
1.59694
 40
0.5
100
AcDbArc
 50
90
 51
180
  0
LINE
  5
AB9
330
A02
100
AcDbEntity
  8
Facebinder
100
AcDbLine
 10
188.619
 20
-71.4343
 30
1.59694
 11
201.619
 21
-71.4343
 31
1.59694
  0
ARC
  5
ABA
330
A02
100
AcDbEntity
  8
Facebinder
100
AcDbCircle
 10
201.619
 20
-71.9343
 30
1.59694
 40
0.5
100
AcDbArc
 50
0
 51
90
  0
LINE
  5
ABB
330
A02
100
AcDbEntity
  8
Facebinder
100
AcDbLine
 10
183.069
 20
-71.9343
 30
1.59694
 11
183.069
 21
-84.9336
 31
1.59694
  0
ARC
  5
ABC
330
A02
100
AcDbEntity
  8
Facebinder
100
AcDbCircle
 10
182.569
 20
-84.9336
 30
1.59694
 40
0.5
100
AcDbArc
 50
-90
 51
0
  0
LINE
  5
ABD
330
A02
100
AcDbEntity
  8
Facebinder
100
AcDbLine
 10
182.569
 20
-85.4336
 30
1.59694
 11
169.569
 21
-85.4336
 31
1.59694
  0
ARC
  5
ABE
330
A02
100
AcDbEntity
  8
Facebinder
100
AcDbCircle
 10
169.569
 20
-84.9336
 30
1.59694
 40
0.5
100
AcDbArc
 50
180
 51
-90
  0
LINE
  5
ABF
330
A02
100
AcDbEntity
  8
Facebinder
100
AcDbLine
 10
169.069
 20
-84.9336
 30
1.59694
 11
169.069
 21
-71.9343
 31
1.59694
  0
ARC
  5
AC0
330
A02
100
AcDbEntity
  8
Facebinder
100
AcDbCircle
 10
169.569
 20
-71.9343
 30
1.59694
 40
0.5
100
AcDbArc
 50
90
 51
180
  0
LINE
  5
AC1
330
A02
100
AcDbEntity
  8
Facebinder
100
AcDbLine
 10
169.569
 20
-71.4343
 30
1.59694
 11
182.569
 21
-71.4343
 31
1.59694
  0
ARC
  5
AC2
330
A02
100
AcDbEntity
  8
Facebinder
100
AcDbCircle
 10
182.569
 20
-71.9343
 30
1.59694
 40
0.5
100
AcDbArc
 50
0
 51
90
  0
LINE
  5
AC3
330
A02
100
AcDbEntity
  8
Facebinder
100
AcDbLine
 10
164.019
 20
-71.9343
 30
1.59694
 11
164.019
 21
-84.9336
 31
1.59694
  0
ARC
  5
AC4
330
A02
100
AcDbEntity
  8
Facebinder
100
AcDbCircle
 10
163.519
 20
-84.9336
 30
1.59694
 40
0.5
100
AcDbArc
 50
-90
 51
0
  0
LINE
  5
AC5
330
A02
100
AcDbEntity
  8
Facebinder
100
AcDbLine
 10
163.519
 20
-85.4336
 30
1.59694
 11
150.519
 21
-85.4336
 31
1.59694
  0
ARC
  5
AC6
330
A02
100
AcDbEntity
  8
Facebinder
100
AcDbCircle
 10
150.519
 20
-84.9336
 30
1.59694
 40
0.5
100
AcDbArc
 50
180
 51
-90
  0
LINE
  5
AC7
330
A02
100
AcDbEntity
  8
Facebinder
100
AcDbLine
 10
150.019
 20
-84.9336
 30
1.59694
 11
150.019
 21
-71.9343
 31
1.59694
  0
ARC
  5
AC8
330
A02
100
AcDbEntity
  8
Facebinder
100
AcDbCircle
 10
150.519
 20
-71.9343
 30
1.59694
 40
0.5
100
AcDbArc
 50
90
 51
180
  0
LINE
  5
AC9
330
A02
100
AcDbEntity
  8
Facebinder
100
AcDbLine
 10
150.519
 20
-71.4343
 30
1.59694
 11
163.519
 21
-71.4343
 31
1.59694
  0
ARC
  5
ACA
330
A02
100
AcDbEntity
  8
Facebinder
100
AcDbCircle
 10
163.519
 20
-71.9343
 30
1.59694
 40
0.5
100
AcDbArc
 50
0
 51
90
  0
LINE
  5
ACB
330
A02
100
AcDbEntity
  8
Facebinder
100
AcDbLine
 10
144.969
 20
-71.9343
 30
1.59694
 11
144.969
 21
-84.9336
 31
1.59694
  0
ARC
  5
ACC
330
A02
100
AcDbEntity
  8
Facebinder
100
AcDbCircle
 10
144.469
 20
-84.9336
 30
1.59694
 40
0.5
100
AcDbArc
 50
-90
 51
0
  0
LINE
  5
ACD
330
A02
100
AcDbEntity
  8
Facebinder
100
AcDbLine
 10
144.469
 20
-85.4336
 30
1.59694
 11
131.469
 21
-85.4336
 31
1.59694
  0
ARC
  5
ACE
330
A02
100
AcDbEntity
  8
Facebinder
100
AcDbCircle
 10
131.469
 20
-84.9336
 30
1.59694
 40
0.5
100
AcDbArc
 50
180
 51
-90
  0
LINE
  5
ACF
330
A02
100
AcDbEntity
  8
Facebinder
100
AcDbLine
 10
130.969
 20
-84.9336
 30
1.59694
 11
130.969
 21
-71.9343
 31
1.59694
  0
ARC
  5
AD0
330
A02
100
AcDbEntity
  8
Facebinder
100
AcDbCircle
 10
131.469
 20
-71.9343
 30
1.59694
 40
0.5
100
AcDbArc
 50
90
 51
180
  0
LINE
  5
AD1
330
A02
100
AcDbEntity
  8
Facebinder
100
AcDbLine
 10
131.469
 20
-71.4343
 30
1.59694
 11
144.469
 21
-71.4343
 31
1.59694
  0
ARC
  5
AD2
330
A02
100
AcDbEntity
  8
Facebinder
100
AcDbCircle
 10
144.469
 20
-71.9343
 30
1.59694
 40
0.5
100
AcDbArc
 50
0
 51
90
  0
LINE
  5
AD3
330
A02
100
AcDbEntity
  8
Facebinder
100
AcDbLine
 10
125.919
 20
-71.9343
 30
1.59694
 11
125.919
 21
-84.9336
 31
1.59694
  0
ARC
  5
AD4
330
A02
100
AcDbEntity
  8
Facebinder
100
AcDbCircle
 10
125.419
 20
-84.9336
 30
1.59694
 40
0.5
100
AcDbArc
 50
-90
 51
0
  0
LINE
  5
AD5
330
A02
100
AcDbEntity
  8
Facebinder
100
AcDbLine
 10
125.419
 20
-85.4336
 30
1.59694
 11
112.419
 21
-85.4336
 31
1.59694
  0
ARC
  5
AD6
330
A02
100
AcDbEntity
  8
Facebinder
100
AcDbCircle
 10
112.419
 20
-84.9336
 30
1.59694
 40
0.5
100
AcDbArc
 50
180
 51
-90
  0
LINE
  5
AD7
330
A02
100
AcDbEntity
  8
Facebinder
100
AcDbLine
 10
111.919
 20
-84.9336
 30
1.59694
 11
111.919
 21
-71.9343
 31
1.59694
  0
ARC
  5
AD8
330
A02
100
AcDbEntity
  8
Facebinder
100
AcDbCircle
 10
112.419
 20
-71.9343
 30
1.59694
 40
0.5
100
AcDbArc
 50
90
 51
180
  0
LINE
  5
AD9
330
A02
100
AcDbEntity
  8
Facebinder
100
AcDbLine
 10
112.419
 20
-71.4343
 30
1.59694
 11
125.419
 21
-71.4343
 31
1.59694
  0
ARC
  5
ADA
330
A02
100
AcDbEntity
  8
Facebinder
100
AcDbCircle
 10
125.419
 20
-71.9343
 30
1.59694
 40
0.5
100
AcDbArc
 50
0
 51
90
  0
LINE
  5
ADB
330
A02
100
AcDbEntity
  8
Facebinder
100
AcDbLine
 10
106.869
 20
-71.9343
 30
1.59694
 11
106.869
 21
-84.9336
 31
1.59694
  0
ARC
  5
ADC
330
A02
100
AcDbEntity
  8
Facebinder
100
AcDbCircle
 10
106.369
 20
-84.9336
 30
1.59694
 40
0.5
100
AcDbArc
 50
-90
 51
0
  0
LINE
  5
ADD
330
A02
100
AcDbEntity
  8
Facebinder
100
AcDbLine
 10
106.369
 20
-85.4336
 30
1.59694
 11
93.3691
 21
-85.4336
 31
1.59694
  0
ARC
  5
ADE
330
A02
100
AcDbEntity
  8
Facebinder
100
AcDbCircle
 10
93.3691
 20
-84.9336
 30
1.59694
 40
0.5
100
AcDbArc
 50
180
 51
-90
  0
LINE
  5
ADF
330
A02
100
AcDbEntity
  8
Facebinder
100
AcDbLine
 10
92.8691
 20
-84.9336
 30
1.59694
 11
92.8691
 21
-71.9343
 31
1.59694
  0
ARC
  5
AE0
330
A02
100
AcDbEntity
  8
Facebinder
100
AcDbCircle
 10
93.3691
 20
-71.9343
 30
1.59694
 40
0.5
100
AcDbArc
 50
90
 51
180
  0
LINE
  5
AE1
330
A02
100
AcDbEntity
  8
Facebinder
100
AcDbLine
 10
93.3691
 20
-71.4343
 30
1.59694
 11
106.369
 21
-71.4343
 31
1.59694
  0
ARC
  5
AE2
330
A02
100
AcDbEntity
  8
Facebinder
100
AcDbCircle
 10
106.369
 20
-71.9343
 30
1.59694
 40
0.5
100
AcDbArc
 50
0
 51
90
  0
LINE
  5
AE3
330
A02
100
AcDbEntity
  8
Facebinder
100
AcDbLine
 10
87.8184
 20
-71.9343
 30
1.59694
 11
87.8184
 21
-84.9336
 31
1.59694
  0
ARC
  5
AE4
330
A02
100
AcDbEntity
  8
Facebinder
100
AcDbCircle
 10
87.3184
 20
-84.9336
 30
1.59694
 40
0.5
100
AcDbArc
 50
-90
 51
0
  0
LINE
  5
AE5
330
A02
100
AcDbEntity
  8
Facebinder
100
AcDbLine
 10
87.3184
 20
-85.4336
 30
1.59694
 11
74.3191
 21
-85.4336
 31
1.59694
  0
ARC
  5
AE6
330
A02
100
AcDbEntity
  8
Facebinder
100
AcDbCircle
 10
74.3191
 20
-84.9336
 30
1.59694
 40
0.5
100
AcDbArc
 50
180
 51
-90
  0
LINE
  5
AE7
330
A02
100
AcDbEntity
  8
Facebinder
100
AcDbLine
 10
73.8191
 20
-84.9336
 30
1.59694
 11
73.8191
 21
-71.9343
 31
1.59694
  0
ARC
  5
AE8
330
A02
100
AcDbEntity
  8
Facebinder
100
AcDbCircle
 10
74.3191
 20
-71.9343
 30
1.59694
 40
0.5
100
AcDbArc
 50
90
 51
180
  0
LINE
  5
AE9
330
A02
100
AcDbEntity
  8
Facebinder
100
AcDbLine
 10
74.3191
 20
-71.4343
 30
1.59694
 11
87.3184
 21
-71.4343
 31
1.59694
  0
ARC
  5
AEA
330
A02
100
AcDbEntity
  8
Facebinder
100
AcDbCircle
 10
87.3184
 20
-71.9343
 30
1.59694
 40
0.5
100
AcDbArc
 50
0
 51
90
  0
LINE
  5
AEB
330
A02
100
AcDbEntity
  8
Facebinder
100
AcDbLine
 10
68.7684
 20
-71.9343
 30
1.59694
 11
68.7684
 21
-84.9336
 31
1.59694
  0
ARC
  5
AEC
330
A02
100
AcDbEntity
  8
Facebinder
100
AcDbCircle
 10
68.2684
 20
-84.9336
 30
1.59694
 40
0.5
100
AcDbArc
 50
-90
 51
0
  0
LINE
  5
AED
330
A02
100
AcDbEntity
  8
Facebinder
100
AcDbLine
 10
68.2684
 20
-85.4336
 30
1.59694
 11
55.2691
 21
-85.4336
 31
1.59694
  0
ARC
  5
AEE
330
A02
100
AcDbEntity
  8
Facebinder
100
AcDbCircle
 10
55.2691
 20
-84.9336
 30
1.59694
 40
0.5
100
AcDbArc
 50
180
 51
-90
  0
LINE
  5
AEF
330
A02
100
AcDbEntity
  8
Facebinder
100
AcDbLine
 10
54.7691
 20
-84.9336
 30
1.59694
 11
54.7691
 21
-71.9343
 31
1.59694
  0
ARC
  5
AF0
330
A02
100
AcDbEntity
  8
Facebinder
100
AcDbCircle
 10
55.2691
 20
-71.9343
 30
1.59694
 40
0.5
100
AcDbArc
 50
90
 51
180
  0
LINE
  5
AF1
330
A02
100
AcDbEntity
  8
Facebinder
100
AcDbLine
 10
55.2691
 20
-71.4343
 30
1.59694
 11
68.2684
 21
-71.4343
 31
1.59694
  0
ARC
  5
AF2
330
A02
100
AcDbEntity
  8
Facebinder
100
AcDbCircle
 10
68.2684
 20
-71.9343
 30
1.59694
 40
0.5
100
AcDbArc
 50
0
 51
90
  0
LINE
  5
AF3
330
A02
100
AcDbEntity
  8
Facebinder
100
AcDbLine
 10
5.26252
 20
-71.4343
 30
1.59694
 11
23.0248
 21
-71.4343
 31
1.59694
  0
ARC
  5
AF4
330
A02
100
AcDbEntity
  8
Facebinder
100
AcDbCircle
 10
23.0248
 20
-71.9343
 30
1.59694
 40
0.5
100
AcDbArc
 50
0
 51
90
  0
LINE
  5
AF5
330
A02
100
AcDbEntity
  8
Facebinder
100
AcDbLine
 10
23.5248
 20
-71.9343
 30
1.59694
 11
23.5248
 21
-84.9333
 31
1.59694
  0
ARC
  5
AF6
330
A02
100
AcDbEntity
  8
Facebinder
100
AcDbCircle
 10
23.0248
 20
-84.9333
 30
1.59694
 40
0.5
100
AcDbArc
 50
-90
 51
0
  0
LINE
  5
AF7
330
A02
100
AcDbEntity
  8
Facebinder
100
AcDbLine
 10
23.0248
 20
-85.4333
 30
1.59694
 11
5.26252
 21
-85.4333
 31
1.59694
  0
ARC
  5
AF8
330
A02
100
AcDbEntity
  8
Facebinder
100
AcDbCircle
 10
5.26252
 20
-84.9333
 30
1.59694
 40
0.5
100
AcDbArc
 50
180
 51
-90
  0
LINE
  5
AF9
330
A02
100
AcDbEntity
  8
Facebinder
100
AcDbLine
 10
4.76252
 20
-84.9333
 30
1.59694
 11
4.76252
 21
-71.9343
 31
1.59694
  0
ARC
  5
AFA
330
A02
100
AcDbEntity
  8
Facebinder
100
AcDbCircle
 10
5.26252
 20
-71.9343
 30
1.59694
 40
0.5
100
AcDbArc
 50
90
 51
180
  0
LINE
  5
AFB
330
A02
100
AcDbEntity
  8
Facebinder
100
AcDbLine
 10
49.7184
 20
-71.9343
 30
1.59694
 11
49.7184
 21
-84.9336
 31
1.59694
  0
ARC
  5
AFC
330
A02
100
AcDbEntity
  8
Facebinder
100
AcDbCircle
 10
49.2184
 20
-84.9336
 30
1.59694
 40
0.5
100
AcDbArc
 50
-90
 51
0
  0
LINE
  5
AFD
330
A02
100
AcDbEntity
  8
Facebinder
100
AcDbLine
 10
49.2184
 20
-85.4336
 30
1.59694
 11
36.2191
 21
-85.4336
 31
1.59694
  0
ARC
  5
AFE
330
A02
100
AcDbEntity
  8
Facebinder
100
AcDbCircle
 10
36.2191
 20
-84.9336
 30
1.59694
 40
0.5
100
AcDbArc
 50
180
 51
-90
  0
LINE
  5
AFF
330
A02
100
AcDbEntity
  8
Facebinder
100
AcDbLine
 10
35.7191
 20
-84.9336
 30
1.59694
 11
35.7191
 21
-71.9343
 31
1.59694
  0
ARC
  5
B00
330
A02
100
AcDbEntity
  8
Facebinder
100
AcDbCircle
 10
36.2191
 20
-71.9343
 30
1.59694
 40
0.5
100
AcDbArc
 50
90
 51
180
  0
LINE
  5
B01
330
A02
100
AcDbEntity
  8
Facebinder
100
AcDbLine
 10
36.2191
 20
-71.4343
 30
1.59694
 11
49.2184
 21
-71.4343
 31
1.59694
  0
ARC
  5
B02
330
A02
100
AcDbEntity
  8
Facebinder
100
AcDbCircle
 10
49.2184
 20
-71.9343
 30
1.59694
 40
0.5
100
AcDbArc
 50
0
 51
90
  0
LINE
  5
B03
330
A02
100
AcDbEntity
  8
Facebinder
100
AcDbLine
 10
20.6436
 20
-66.3836
 30
1.59694
 11
7.64401
 21
-66.3836
 31
1.59694
  0
ARC
  5
B04
330
A02
100
AcDbEntity
  8
Facebinder
100
AcDbCircle
 10
7.64401
 20
-65.8836
 30
1.59694
 40
0.5
100
AcDbArc
 50
180
 51
-90
  0
LINE
  5
B05
330
A02
100
AcDbEntity
  8
Facebinder
100
AcDbLine
 10
7.14401
 20
-65.8836
 30
1.59694
 11
7.14401
 21
-52.8843
 31
1.59694
  0
ARC
  5
B06
330
A02
100
AcDbEntity
  8
Facebinder
100
AcDbCircle
 10
7.64401
 20
-52.8843
 30
1.59694
 40
0.5
100
AcDbArc
 50
90
 51
180
  0
LINE
  5
B07
330
A02
100
AcDbEntity
  8
Facebinder
100
AcDbLine
 10
7.64401
 20
-52.3843
 30
1.59694
 11
20.6436
 21
-52.3843
 31
1.59694
  0
ARC
  5
B08
330
A02
100
AcDbEntity
  8
Facebinder
100
AcDbCircle
 10
20.6436
 20
-52.8843
 30
1.59694
 40
0.5
100
AcDbArc
 50
0
 51
90
  0
LINE
  5
B09
330
A02
100
AcDbEntity
  8
Facebinder
100
AcDbLine
 10
21.1436
 20
-52.8843
 30
1.59694
 11
21.1436
 21
-65.8836
 31
1.59694
  0
ARC
  5
B0A
330
A02
100
AcDbEntity
  8
Facebinder
100
AcDbCircle
 10
20.6436
 20
-65.8836
 30
1.59694
 40
0.5
100
AcDbArc
 50
-90
 51
0
  0
LINE
  5
B0B
330
A02
100
AcDbEntity
  8
Facebinder
100
AcDbLine
 10
30.9566
 20
-65.8836
 30
1.59694
 11
30.9566
 21
-52.8843
 31
1.59694
  0
ARC
  5
B0C
330
A02
100
AcDbEntity
  8
Facebinder
100
AcDbCircle
 10
31.4566
 20
-52.8843
 30
1.59694
 40
0.5
100
AcDbArc
 50
90
 51
180
  0
LINE
  5
B0D
330
A02
100
AcDbEntity
  8
Facebinder
100
AcDbLine
 10
31.4566
 20
-52.3843
 30
1.59694
 11
44.4559
 21
-52.3843
 31
1.59694
  0
ARC
  5
B0E
330
A02
100
AcDbEntity
  8
Facebinder
100
AcDbCircle
 10
44.4559
 20
-52.8843
 30
1.59694
 40
0.5
100
AcDbArc
 50
0
 51
90
  0
LINE
  5
B0F
330
A02
100
AcDbEntity
  8
Facebinder
100
AcDbLine
 10
44.9559
 20
-52.8843
 30
1.59694
 11
44.9559
 21
-65.8836
 31
1.59694
  0
ARC
  5
B10
330
A02
100
AcDbEntity
  8
Facebinder
100
AcDbCircle
 10
44.4559
 20
-65.8836
 30
1.59694
 40
0.5
100
AcDbArc
 50
-90
 51
0
  0
LINE
  5
B11
330
A02
100
AcDbEntity
  8
Facebinder
100
AcDbLine
 10
44.4559
 20
-66.3836
 30
1.59694
 11
31.4566
 21
-66.3836
 31
1.59694
  0
ARC
  5
B12
330
A02
100
AcDbEntity
  8
Facebinder
100
AcDbCircle
 10
31.4566
 20
-65.8836
 30
1.59694
 40
0.5
100
AcDbArc
 50
180
 51
-90
  0
LINE
  5
B13
330
A02
100
AcDbEntity
  8
Facebinder
100
AcDbLine
 10
50.0066
 20
-65.8836
 30
1.59694
 11
50.0066
 21
-52.8843
 31
1.59694
  0
ARC
  5
B14
330
A02
100
AcDbEntity
  8
Facebinder
100
AcDbCircle
 10
50.5066
 20
-52.8843
 30
1.59694
 40
0.5
100
AcDbArc
 50
90
 51
180
  0
LINE
  5
B15
330
A02
100
AcDbEntity
  8
Facebinder
100
AcDbLine
 10
50.5066
 20
-52.3843
 30
1.59694
 11
63.5059
 21
-52.3843
 31
1.59694
  0
ARC
  5
B16
330
A02
100
AcDbEntity
  8
Facebinder
100
AcDbCircle
 10
63.5059
 20
-52.8843
 30
1.59694
 40
0.5
100
AcDbArc
 50
0
 51
90
  0
LINE
  5
B17
330
A02
100
AcDbEntity
  8
Facebinder
100
AcDbLine
 10
64.0059
 20
-52.8843
 30
1.59694
 11
64.0059
 21
-65.8836
 31
1.59694
  0
ARC
  5
B18
330
A02
100
AcDbEntity
  8
Facebinder
100
AcDbCircle
 10
63.5059
 20
-65.8836
 30
1.59694
 40
0.5
100
AcDbArc
 50
-90
 51
0
  0
LINE
  5
B19
330
A02
100
AcDbEntity
  8
Facebinder
100
AcDbLine
 10
63.5059
 20
-66.3836
 30
1.59694
 11
50.5066
 21
-66.3836
 31
1.59694
  0
ARC
  5
B1A
330
A02
100
AcDbEntity
  8
Facebinder
100
AcDbCircle
 10
50.5066
 20
-65.8836
 30
1.59694
 40
0.5
100
AcDbArc
 50
180
 51
-90
  0
LINE
  5
B1B
330
A02
100
AcDbEntity
  8
Facebinder
100
AcDbLine
 10
69.0566
 20
-65.8836
 30
1.59694
 11
69.0566
 21
-52.8843
 31
1.59694
  0
ARC
  5
B1C
330
A02
100
AcDbEntity
  8
Facebinder
100
AcDbCircle
 10
69.5566
 20
-52.8843
 30
1.59694
 40
0.5
100
AcDbArc
 50
90
 51
180
  0
LINE
  5
B1D
330
A02
100
AcDbEntity
  8
Facebinder
100
AcDbLine
 10
69.5566
 20
-52.3843
 30
1.59694
 11
82.5559
 21
-52.3843
 31
1.59694
  0
ARC
  5
B1E
330
A02
100
AcDbEntity
  8
Facebinder
100
AcDbCircle
 10
82.5559
 20
-52.8843
 30
1.59694
 40
0.5
100
AcDbArc
 50
0
 51
90
  0
LINE
  5
B1F
330
A02
100
AcDbEntity
  8
Facebinder
100
AcDbLine
 10
83.0559
 20
-52.8843
 30
1.59694
 11
83.0559
 21
-65.8836
 31
1.59694
  0
ARC
  5
B20
330
A02
100
AcDbEntity
  8
Facebinder
100
AcDbCircle
 10
82.5559
 20
-65.8836
 30
1.59694
 40
0.5
100
AcDbArc
 50
-90
 51
0
  0
LINE
  5
B21
330
A02
100
AcDbEntity
  8
Facebinder
100
AcDbLine
 10
82.5559
 20
-66.3836
 30
1.59694
 11
69.5566
 21
-66.3836
 31
1.59694
  0
ARC
  5
B22
330
A02
100
AcDbEntity
  8
Facebinder
100
AcDbCircle
 10
69.5566
 20
-65.8836
 30
1.59694
 40
0.5
100
AcDbArc
 50
180
 51
-90
  0
LINE
  5
B23
330
A02
100
AcDbEntity
  8
Facebinder
100
AcDbLine
 10
88.1066
 20
-65.8836
 30
1.59694
 11
88.1066
 21
-52.8843
 31
1.59694
  0
ARC
  5
B24
330
A02
100
AcDbEntity
  8
Facebinder
100
AcDbCircle
 10
88.6066
 20
-52.8843
 30
1.59694
 40
0.5
100
AcDbArc
 50
90
 51
180
  0
LINE
  5
B25
330
A02
100
AcDbEntity
  8
Facebinder
100
AcDbLine
 10
88.6066
 20
-52.3843
 30
1.59694
 11
101.606
 21
-52.3843
 31
1.59694
  0
ARC
  5
B26
330
A02
100
AcDbEntity
  8
Facebinder
100
AcDbCircle
 10
101.606
 20
-52.8843
 30
1.59694
 40
0.5
100
AcDbArc
 50
0
 51
90
  0
LINE
  5
B27
330
A02
100
AcDbEntity
  8
Facebinder
100
AcDbLine
 10
102.106
 20
-52.8843
 30
1.59694
 11
102.106
 21
-65.8836
 31
1.59694
  0
ARC
  5
B28
330
A02
100
AcDbEntity
  8
Facebinder
100
AcDbCircle
 10
101.606
 20
-65.8836
 30
1.59694
 40
0.5
100
AcDbArc
 50
-90
 51
0
  0
LINE
  5
B29
330
A02
100
AcDbEntity
  8
Facebinder
100
AcDbLine
 10
101.606
 20
-66.3836
 30
1.59694
 11
88.6066
 21
-66.3836
 31
1.59694
  0
ARC
  5
B2A
330
A02
100
AcDbEntity
  8
Facebinder
100
AcDbCircle
 10
88.6066
 20
-65.8836
 30
1.59694
 40
0.5
100
AcDbArc
 50
180
 51
-90
  0
LINE
  5
B2B
330
A02
100
AcDbEntity
  8
Facebinder
100
AcDbLine
 10
107.157
 20
-65.8836
 30
1.59694
 11
107.157
 21
-52.8843
 31
1.59694
  0
ARC
  5
B2C
330
A02
100
AcDbEntity
  8
Facebinder
100
AcDbCircle
 10
107.657
 20
-52.8843
 30
1.59694
 40
0.5
100
AcDbArc
 50
90
 51
180
  0
LINE
  5
B2D
330
A02
100
AcDbEntity
  8
Facebinder
100
AcDbLine
 10
107.657
 20
-52.3843
 30
1.59694
 11
120.656
 21
-52.3843
 31
1.59694
  0
ARC
  5
B2E
330
A02
100
AcDbEntity
  8
Facebinder
100
AcDbCircle
 10
120.656
 20
-52.8843
 30
1.59694
 40
0.5
100
AcDbArc
 50
0
 51
90
  0
LINE
  5
B2F
330
A02
100
AcDbEntity
  8
Facebinder
100
AcDbLine
 10
121.156
 20
-52.8843
 30
1.59694
 11
121.156
 21
-65.8836
 31
1.59694
  0
ARC
  5
B30
330
A02
100
AcDbEntity
  8
Facebinder
100
AcDbCircle
 10
120.656
 20
-65.8836
 30
1.59694
 40
0.5
100
AcDbArc
 50
-90
 51
0
  0
LINE
  5
B31
330
A02
100
AcDbEntity
  8
Facebinder
100
AcDbLine
 10
120.656
 20
-66.3836
 30
1.59694
 11
107.657
 21
-66.3836
 31
1.59694
  0
ARC
  5
B32
330
A02
100
AcDbEntity
  8
Facebinder
100
AcDbCircle
 10
107.657
 20
-65.8836
 30
1.59694
 40
0.5
100
AcDbArc
 50
180
 51
-90
  0
LINE
  5
B33
330
A02
100
AcDbEntity
  8
Facebinder
100
AcDbLine
 10
126.207
 20
-65.8836
 30
1.59694
 11
126.207
 21
-52.8843
 31
1.59694
  0
ARC
  5
B34
330
A02
100
AcDbEntity
  8
Facebinder
100
AcDbCircle
 10
126.707
 20
-52.8843
 30
1.59694
 40
0.5
100
AcDbArc
 50
90
 51
180
  0
LINE
  5
B35
330
A02
100
AcDbEntity
  8
Facebinder
100
AcDbLine
 10
126.707
 20
-52.3843
 30
1.59694
 11
139.706
 21
-52.3843
 31
1.59694
  0
ARC
  5
B36
330
A02
100
AcDbEntity
  8
Facebinder
100
AcDbCircle
 10
139.706
 20
-52.8843
 30
1.59694
 40
0.5
100
AcDbArc
 50
0
 51
90
  0
LINE
  5
B37
330
A02
100
AcDbEntity
  8
Facebinder
100
AcDbLine
 10
140.206
 20
-52.8843
 30
1.59694
 11
140.206
 21
-65.8836
 31
1.59694
  0
ARC
  5
B38
330
A02
100
AcDbEntity
  8
Facebinder
100
AcDbCircle
 10
139.706
 20
-65.8836
 30
1.59694
 40
0.5
100
AcDbArc
 50
-90
 51
0
  0
LINE
  5
B39
330
A02
100
AcDbEntity
  8
Facebinder
100
AcDbLine
 10
139.706
 20
-66.3836
 30
1.59694
 11
126.707
 21
-66.3836
 31
1.59694
  0
ARC
  5
B3A
330
A02
100
AcDbEntity
  8
Facebinder
100
AcDbCircle
 10
126.707
 20
-65.8836
 30
1.59694
 40
0.5
100
AcDbArc
 50
180
 51
-90
  0
LINE
  5
B3B
330
A02
100
AcDbEntity
  8
Facebinder
100
AcDbLine
 10
145.257
 20
-65.8836
 30
1.59694
 11
145.257
 21
-52.8843
 31
1.59694
  0
ARC
  5
B3C
330
A02
100
AcDbEntity
  8
Facebinder
100
AcDbCircle
 10
145.757
 20
-52.8843
 30
1.59694
 40
0.5
100
AcDbArc
 50
90
 51
180
  0
LINE
  5
B3D
330
A02
100
AcDbEntity
  8
Facebinder
100
AcDbLine
 10
145.757
 20
-52.3843
 30
1.59694
 11
158.756
 21
-52.3843
 31
1.59694
  0
ARC
  5
B3E
330
A02
100
AcDbEntity
  8
Facebinder
100
AcDbCircle
 10
158.756
 20
-52.8843
 30
1.59694
 40
0.5
100
AcDbArc
 50
0
 51
90
  0
LINE
  5
B3F
330
A02
100
AcDbEntity
  8
Facebinder
100
AcDbLine
 10
159.256
 20
-52.8843
 30
1.59694
 11
159.256
 21
-65.8836
 31
1.59694
  0
ARC
  5
B40
330
A02
100
AcDbEntity
  8
Facebinder
100
AcDbCircle
 10
158.756
 20
-65.8836
 30
1.59694
 40
0.5
100
AcDbArc
 50
-90
 51
0
  0
LINE
  5
B41
330
A02
100
AcDbEntity
  8
Facebinder
100
AcDbLine
 10
158.756
 20
-66.3836
 30
1.59694
 11
145.757
 21
-66.3836
 31
1.59694
  0
ARC
  5
B42
330
A02
100
AcDbEntity
  8
Facebinder
100
AcDbCircle
 10
145.757
 20
-65.8836
 30
1.59694
 40
0.5
100
AcDbArc
 50
180
 51
-90
  0
LINE
  5
B43
330
A02
100
AcDbEntity
  8
Facebinder
100
AcDbLine
 10
164.307
 20
-65.8836
 30
1.59694
 11
164.307
 21
-52.8843
 31
1.59694
  0
ARC
  5
B44
330
A02
100
AcDbEntity
  8
Facebinder
100
AcDbCircle
 10
164.807
 20
-52.8843
 30
1.59694
 40
0.5
100
AcDbArc
 50
90
 51
180
  0
LINE
  5
B45
330
A02
100
AcDbEntity
  8
Facebinder
100
AcDbLine
 10
164.807
 20
-52.3843
 30
1.59694
 11
177.806
 21
-52.3843
 31
1.59694
  0
ARC
  5
B46
330
A02
100
AcDbEntity
  8
Facebinder
100
AcDbCircle
 10
177.806
 20
-52.8843
 30
1.59694
 40
0.5
100
AcDbArc
 50
0
 51
90
  0
LINE
  5
B47
330
A02
100
AcDbEntity
  8
Facebinder
100
AcDbLine
 10
178.306
 20
-52.8843
 30
1.59694
 11
178.306
 21
-65.8836
 31
1.59694
  0
ARC
  5
B48
330
A02
100
AcDbEntity
  8
Facebinder
100
AcDbCircle
 10
177.806
 20
-65.8836
 30
1.59694
 40
0.5
100
AcDbArc
 50
-90
 51
0
  0
LINE
  5
B49
330
A02
100
AcDbEntity
  8
Facebinder
100
AcDbLine
 10
177.806
 20
-66.3836
 30
1.59694
 11
164.807
 21
-66.3836
 31
1.59694
  0
ARC
  5
B4A
330
A02
100
AcDbEntity
  8
Facebinder
100
AcDbCircle
 10
164.807
 20
-65.8836
 30
1.59694
 40
0.5
100
AcDbArc
 50
180
 51
-90
  0
LINE
  5
B4B
330
A02
100
AcDbEntity
  8
Facebinder
100
AcDbLine
 10
183.357
 20
-65.8836
 30
1.59694
 11
183.357
 21
-52.8843
 31
1.59694
  0
ARC
  5
B4C
330
A02
100
AcDbEntity
  8
Facebinder
100
AcDbCircle
 10
183.857
 20
-52.8843
 30
1.59694
 40
0.5
100
AcDbArc
 50
90
 51
180
  0
LINE
  5
B4D
330
A02
100
AcDbEntity
  8
Facebinder
100
AcDbLine
 10
183.857
 20
-52.3843
 30
1.59694
 11
196.856
 21
-52.3843
 31
1.59694
  0
ARC
  5
B4E
330
A02
100
AcDbEntity
  8
Facebinder
100
AcDbCircle
 10
196.856
 20
-52.8843
 30
1.59694
 40
0.5
100
AcDbArc
 50
0
 51
90
  0
LINE
  5
B4F
330
A02
100
AcDbEntity
  8
Facebinder
100
AcDbLine
 10
197.356
 20
-52.8843
 30
1.59694
 11
197.356
 21
-65.8836
 31
1.59694
  0
ARC
  5
B50
330
A02
100
AcDbEntity
  8
Facebinder
100
AcDbCircle
 10
196.856
 20
-65.8836
 30
1.59694
 40
0.5
100
AcDbArc
 50
-90
 51
0
  0
LINE
  5
B51
330
A02
100
AcDbEntity
  8
Facebinder
100
AcDbLine
 10
196.856
 20
-66.3836
 30
1.59694
 11
183.857
 21
-66.3836
 31
1.59694
  0
ARC
  5
B52
330
A02
100
AcDbEntity
  8
Facebinder
100
AcDbCircle
 10
183.857
 20
-65.8836
 30
1.59694
 40
0.5
100
AcDbArc
 50
180
 51
-90
  0
LINE
  5
B53
330
A02
100
AcDbEntity
  8
Facebinder
100
AcDbLine
 10
202.407
 20
-65.8836
 30
1.59694
 11
202.407
 21
-52.8843
 31
1.59694
  0
ARC
  5
B54
330
A02
100
AcDbEntity
  8
Facebinder
100
AcDbCircle
 10
202.907
 20
-52.8843
 30
1.59694
 40
0.5
100
AcDbArc
 50
90
 51
180
  0
LINE
  5
B55
330
A02
100
AcDbEntity
  8
Facebinder
100
AcDbLine
 10
202.907
 20
-52.3843
 30
1.59694
 11
215.906
 21
-52.3843
 31
1.59694
  0
ARC
  5
B56
330
A02
100
AcDbEntity
  8
Facebinder
100
AcDbCircle
 10
215.906
 20
-52.8843
 30
1.59694
 40
0.5
100
AcDbArc
 50
0
 51
90
  0
LINE
  5
B57
330
A02
100
AcDbEntity
  8
Facebinder
100
AcDbLine
 10
216.406
 20
-52.8843
 30
1.59694
 11
216.406
 21
-65.8836
 31
1.59694
  0
ARC
  5
B58
330
A02
100
AcDbEntity
  8
Facebinder
100
AcDbCircle
 10
215.906
 20
-65.8836
 30
1.59694
 40
0.5
100
AcDbArc
 50
-90
 51
0
  0
LINE
  5
B59
330
A02
100
AcDbEntity
  8
Facebinder
100
AcDbLine
 10
215.906
 20
-66.3836
 30
1.59694
 11
202.907
 21
-66.3836
 31
1.59694
  0
ARC
  5
B5A
330
A02
100
AcDbEntity
  8
Facebinder
100
AcDbCircle
 10
202.907
 20
-65.8836
 30
1.59694
 40
0.5
100
AcDbArc
 50
180
 51
-90
  0
LINE
  5
B5B
330
A02
100
AcDbEntity
  8
Facebinder
100
AcDbLine
 10
221.457
 20
-65.8836
 30
1.59694
 11
221.457
 21
-52.8843
 31
1.59694
  0
ARC
  5
B5C
330
A02
100
AcDbEntity
  8
Facebinder
100
AcDbCircle
 10
221.957
 20
-52.8843
 30
1.59694
 40
0.5
100
AcDbArc
 50
90
 51
180
  0
LINE
  5
B5D
330
A02
100
AcDbEntity
  8
Facebinder
100
AcDbLine
 10
221.957
 20
-52.3843
 30
1.59694
 11
234.956
 21
-52.3843
 31
1.59694
  0
ARC
  5
B5E
330
A02
100
AcDbEntity
  8
Facebinder
100
AcDbCircle
 10
234.956
 20
-52.8843
 30
1.59694
 40
0.5
100
AcDbArc
 50
0
 51
90
  0
LINE
  5
B5F
330
A02
100
AcDbEntity
  8
Facebinder
100
AcDbLine
 10
235.456
 20
-52.8843
 30
1.59694
 11
235.456
 21
-65.8836
 31
1.59694
  0
ARC
  5
B60
330
A02
100
AcDbEntity
  8
Facebinder
100
AcDbCircle
 10
234.956
 20
-65.8836
 30
1.59694
 40
0.5
100
AcDbArc
 50
-90
 51
0
  0
LINE
  5
B61
330
A02
100
AcDbEntity
  8
Facebinder
100
AcDbLine
 10
234.956
 20
-66.3836
 30
1.59694
 11
221.957
 21
-66.3836
 31
1.59694
  0
ARC
  5
B62
330
A02
100
AcDbEntity
  8
Facebinder
100
AcDbCircle
 10
221.957
 20
-65.8836
 30
1.59694
 40
0.5
100
AcDbArc
 50
180
 51
-90
  0
LINE
  5
B63
330
A02
100
AcDbEntity
  8
Facebinder
100
AcDbLine
 10
264.319
 20
-65.8836
 30
1.59694
 11
264.319
 21
-52.8843
 31
1.59694
  0
ARC
  5
B64
330
A02
100
AcDbEntity
  8
Facebinder
100
AcDbCircle
 10
264.819
 20
-52.8843
 30
1.59694
 40
0.5
100
AcDbArc
 50
90
 51
180
  0
LINE
  5
B65
330
A02
100
AcDbEntity
  8
Facebinder
100
AcDbLine
 10
264.819
 20
-52.3843
 30
1.59694
 11
277.819
 21
-52.3843
 31
1.59694
  0
ARC
  5
B66
330
A02
100
AcDbEntity
  8
Facebinder
100
AcDbCircle
 10
277.819
 20
-52.8843
 30
1.59694
 40
0.5
100
AcDbArc
 50
0
 51
90
  0
LINE
  5
B67
330
A02
100
AcDbEntity
  8
Facebinder
100
AcDbLine
 10
278.319
 20
-52.8843
 30
1.59694
 11
278.319
 21
-65.8836
 31
1.59694
  0
ARC
  5
B68
330
A02
100
AcDbEntity
  8
Facebinder
100
AcDbCircle
 10
277.819
 20
-65.8836
 30
1.59694
 40
0.5
100
AcDbArc
 50
-90
 51
0
  0
LINE
  5
B69
330
A02
100
AcDbEntity
  8
Facebinder
100
AcDbLine
 10
277.819
 20
-66.3836
 30
1.59694
 11
264.819
 21
-66.3836
 31
1.59694
  0
ARC
  5
B6A
330
A02
100
AcDbEntity
  8
Facebinder
100
AcDbCircle
 10
264.819
 20
-65.8836
 30
1.59694
 40
0.5
100
AcDbArc
 50
180
 51
-90
  0
LINE
  5
B6B
330
A02
100
AcDbEntity
  8
Facebinder
100
AcDbLine
 10
292.894
 20
-65.8836
 30
1.59694
 11
292.894
 21
-52.3843
 31
1.59694
  0
LINE
  5
B6C
330
A02
100
AcDbEntity
  8
Facebinder
100
AcDbLine
 10
292.894
 20
-52.3843
 30
1.59694
 11
306.394
 21
-52.3843
 31
1.59694
  0
ARC
  5
B6D
330
A02
100
AcDbEntity
  8
Facebinder
100
AcDbCircle
 10
306.394
 20
-52.8843
 30
1.59694
 40
0.5
100
AcDbArc
 50
0
 51
90
  0
LINE
  5
B6E
330
A02
100
AcDbEntity
  8
Facebinder
100
AcDbLine
 10
306.894
 20
-52.8843
 30
1.59694
 11
306.894
 21
-65.8836
 31
1.59694
  0
ARC
  5
B6F
330
A02
100
AcDbEntity
  8
Facebinder
100
AcDbCircle
 10
306.394
 20
-65.8836
 30
1.59694
 40
0.5
100
AcDbArc
 50
-90
 51
0
  0
LINE
  5
B70
330
A02
100
AcDbEntity
  8
Facebinder
100
AcDbLine
 10
306.394
 20
-66.3836
 30
1.59694
 11
293.394
 21
-66.3836
 31
1.59694
  0
ARC
  5
B71
330
A02
100
AcDbEntity
  8
Facebinder
100
AcDbCircle
 10
293.394
 20
-65.8836
 30
1.59694
 40
0.5
100
AcDbArc
 50
180
 51
-90
  0
LINE
  5
B72
330
A02
100
AcDbEntity
  8
Facebinder
100
AcDbLine
 10
311.944
 20
-65.8836
 30
1.59694
 11
311.944
 21
-52.8843
 31
1.59694
  0
ARC
  5
B73
330
A02
100
AcDbEntity
  8
Facebinder
100
AcDbCircle
 10
312.444
 20
-52.8843
 30
1.59694
 40
0.5
100
AcDbArc
 50
90
 51
180
  0
LINE
  5
B74
330
A02
100
AcDbEntity
  8
Facebinder
100
AcDbLine
 10
312.444
 20
-52.3843
 30
1.59694
 11
325.444
 21
-52.3843
 31
1.59694
  0
ARC
  5
B75
330
A02
100
AcDbEntity
  8
Facebinder
100
AcDbCircle
 10
325.444
 20
-52.8843
 30
1.59694
 40
0.5
100
AcDbArc
 50
0
 51
90
  0
LINE
  5
B76
330
A02
100
AcDbEntity
  8
Facebinder
100
AcDbLine
 10
325.944
 20
-52.8843
 30
1.59694
 11
325.944
 21
-65.8836
 31
1.59694
  0
ARC
  5
B77
330
A02
100
AcDbEntity
  8
Facebinder
100
AcDbCircle
 10
325.444
 20
-65.8836
 30
1.59694
 40
0.5
100
AcDbArc
 50
-90
 51
0
  0
LINE
  5
B78
330
A02
100
AcDbEntity
  8
Facebinder
100
AcDbLine
 10
325.444
 20
-66.3836
 30
1.59694
 11
312.444
 21
-66.3836
 31
1.59694
  0
ARC
  5
B79
330
A02
100
AcDbEntity
  8
Facebinder
100
AcDbCircle
 10
312.444
 20
-65.8836
 30
1.59694
 40
0.5
100
AcDbArc
 50
180
 51
-90
  0
LINE
  5
B7A
330
A02
100
AcDbEntity
  8
Facebinder
100
AcDbLine
 10
330.994
 20
-65.8836
 30
1.59694
 11
330.994
 21
-52.8843
 31
1.59694
  0
ARC
  5
B7B
330
A02
100
AcDbEntity
  8
Facebinder
100
AcDbCircle
 10
331.494
 20
-52.8843
 30
1.59694
 40
0.5
100
AcDbArc
 50
90
 51
180
  0
LINE
  5
B7C
330
A02
100
AcDbEntity
  8
Facebinder
100
AcDbLine
 10
331.494
 20
-52.3843
 30
1.59694
 11
344.494
 21
-52.3843
 31
1.59694
  0
ARC
  5
B7D
330
A02
100
AcDbEntity
  8
Facebinder
100
AcDbCircle
 10
344.494
 20
-52.8843
 30
1.59694
 40
0.5
100
AcDbArc
 50
0
 51
90
  0
LINE
  5
B7E
330
A02
100
AcDbEntity
  8
Facebinder
100
AcDbLine
 10
344.994
 20
-52.8843
 30
1.59694
 11
344.994
 21
-65.8836
 31
1.59694
  0
ARC
  5
B7F
330
A02
100
AcDbEntity
  8
Facebinder
100
AcDbCircle
 10
344.494
 20
-65.8836
 30
1.59694
 40
0.5
100
AcDbArc
 50
-90
 51
0
  0
LINE
  5
B80
330
A02
100
AcDbEntity
  8
Facebinder
100
AcDbLine
 10
344.494
 20
-66.3836
 30
1.59694
 11
331.494
 21
-66.3836
 31
1.59694
  0
ARC
  5
B81
330
A02
100
AcDbEntity
  8
Facebinder
100
AcDbCircle
 10
331.494
 20
-65.8836
 30
1.59694
 40
0.5
100
AcDbArc
 50
180
 51
-90
  0
LINE
  5
B82
330
A02
100
AcDbEntity
  8
Facebinder
100
AcDbLine
 10
311.944
 20
-46.8336
 30
1.59694
 11
311.944
 21
-33.8343
 31
1.59694
  0
ARC
  5
B83
330
A02
100
AcDbEntity
  8
Facebinder
100
AcDbCircle
 10
312.444
 20
-33.8343
 30
1.59694
 40
0.5
100
AcDbArc
 50
90
 51
180
  0
LINE
  5
B84
330
A02
100
AcDbEntity
  8
Facebinder
100
AcDbLine
 10
312.444
 20
-33.3343
 30
1.59694
 11
325.444
 21
-33.3343
 31
1.59694
  0
ARC
  5
B85
330
A02
100
AcDbEntity
  8
Facebinder
100
AcDbCircle
 10
325.444
 20
-33.8343
 30
1.59694
 40
0.5
100
AcDbArc
 50
0
 51
90
  0
LINE
  5
B86
330
A02
100
AcDbEntity
  8
Facebinder
100
AcDbLine
 10
325.944
 20
-33.8343
 30
1.59694
 11
325.944
 21
-46.8336
 31
1.59694
  0
ARC
  5
B87
330
A02
100
AcDbEntity
  8
Facebinder
100
AcDbCircle
 10
325.444
 20
-46.8336
 30
1.59694
 40
0.5
100
AcDbArc
 50
-90
 51
0
  0
LINE
  5
B88
330
A02
100
AcDbEntity
  8
Facebinder
100
AcDbLine
 10
325.444
 20
-47.3336
 30
1.59694
 11
312.444
 21
-47.3336
 31
1.59694
  0
ARC
  5
B89
330
A02
100
AcDbEntity
  8
Facebinder
100
AcDbCircle
 10
312.444
 20
-46.8336
 30
1.59694
 40
0.5
100
AcDbArc
 50
180
 51
-90
  0
LINE
  5
B8A
330
A02
100
AcDbEntity
  8
Facebinder
100
AcDbLine
 10
344.994
 20
-8.08439
 30
1.59694
 11
344.994
 21
-21.0834
 31
1.59694
  0
ARC
  5
B8B
330
A02
100
AcDbEntity
  8
Facebinder
100
AcDbCircle
 10
344.494
 20
-21.0834
 30
1.59694
 40
0.5
100
AcDbArc
 50
-90
 51
0
  0
LINE
  5
B8C
330
A02
100
AcDbEntity
  8
Facebinder
100
AcDbLine
 10
344.494
 20
-21.5834
 30
1.59694
 11
331.494
 21
-21.5834
 31
1.59694
  0
ARC
  5
B8D
330
A02
100
AcDbEntity
  8
Facebinder
100
AcDbCircle
 10
331.494
 20
-21.0834
 30
1.59694
 40
0.5
100
AcDbArc
 50
180
 51
-90
  0
LINE
  5
B8E
330
A02
100
AcDbEntity
  8
Facebinder
100
AcDbLine
 10
330.994
 20
-21.0834
 30
1.59694
 11
330.994
 21
-8.08439
 31
1.59694
  0
ARC
  5
B8F
330
A02
100
AcDbEntity
  8
Facebinder
100
AcDbCircle
 10
331.494
 20
-8.08439
 30
1.59694
 40
0.5
100
AcDbArc
 50
90
 51
180
  0
LINE
  5
B90
330
A02
100
AcDbEntity
  8
Facebinder
100
AcDbLine
 10
331.494
 20
-7.58439
 30
1.59694
 11
344.494
 21
-7.58439
 31
1.59694
  0
ARC
  5
B91
330
A02
100
AcDbEntity
  8
Facebinder
100
AcDbCircle
 10
344.494
 20
-8.08439
 30
1.59694
 40
0.5
100
AcDbArc
 50
0
 51
90
  0
LINE
  5
B92
330
A02
100
AcDbEntity
  8
Facebinder
100
AcDbLine
 10
325.944
 20
-8.08439
 30
1.59694
 11
325.944
 21
-21.0834
 31
1.59694
  0
ARC
  5
B93
330
A02
100
AcDbEntity
  8
Facebinder
100
AcDbCircle
 10
325.444
 20
-21.0834
 30
1.59694
 40
0.5
100
AcDbArc
 50
-90
 51
0
  0
LINE
  5
B94
330
A02
100
AcDbEntity
  8
Facebinder
100
AcDbLine
 10
325.444
 20
-21.5834
 30
1.59694
 11
312.444
 21
-21.5834
 31
1.59694
  0
ARC
  5
B95
330
A02
100
AcDbEntity
  8
Facebinder
100
AcDbCircle
 10
312.444
 20
-21.0834
 30
1.59694
 40
0.5
100
AcDbArc
 50
180
 51
-90
  0
LINE
  5
B96
330
A02
100
AcDbEntity
  8
Facebinder
100
AcDbLine
 10
311.944
 20
-21.0834
 30
1.59694
 11
311.944
 21
-8.08439
 31
1.59694
  0
ARC
  5
B97
330
A02
100
AcDbEntity
  8
Facebinder
100
AcDbCircle
 10
312.444
 20
-8.08439
 30
1.59694
 40
0.5
100
AcDbArc
 50
90
 51
180
  0
LINE
  5
B98
330
A02
100
AcDbEntity
  8
Facebinder
100
AcDbLine
 10
312.444
 20
-7.58439
 30
1.59694
 11
325.444
 21
-7.58439
 31
1.59694
  0
ARC
  5
B99
330
A02
100
AcDbEntity
  8
Facebinder
100
AcDbCircle
 10
325.444
 20
-8.08439
 30
1.59694
 40
0.5
100
AcDbArc
 50
0
 51
90
  0
LINE
  5
B9A
330
A02
100
AcDbEntity
  8
Facebinder
100
AcDbLine
 10
306.894
 20
-8.08439
 30
1.59694
 11
306.894
 21
-21.0834
 31
1.59694
  0
ARC
  5
B9B
330
A02
100
AcDbEntity
  8
Facebinder
100
AcDbCircle
 10
306.394
 20
-21.0834
 30
1.59694
 40
0.5
100
AcDbArc
 50
-90
 51
0
  0
LINE
  5
B9C
330
A02
100
AcDbEntity
  8
Facebinder
100
AcDbLine
 10
306.394
 20
-21.5834
 30
1.59694
 11
293.394
 21
-21.5834
 31
1.59694
  0
ARC
  5
B9D
330
A02
100
AcDbEntity
  8
Facebinder
100
AcDbCircle
 10
293.394
 20
-21.0834
 30
1.59694
 40
0.5
100
AcDbArc
 50
180
 51
-90
  0
LINE
  5
B9E
330
A02
100
AcDbEntity
  8
Facebinder
100
AcDbLine
 10
292.894
 20
-21.0834
 30
1.59694
 11
292.894
 21
-8.08439
 31
1.59694
  0
ARC
  5
B9F
330
A02
100
AcDbEntity
  8
Facebinder
100
AcDbCircle
 10
293.394
 20
-8.08439
 30
1.59694
 40
0.5
100
AcDbArc
 50
90
 51
180
  0
LINE
  5
BA0
330
A02
100
AcDbEntity
  8
Facebinder
100
AcDbLine
 10
293.394
 20
-7.58439
 30
1.59694
 11
306.394
 21
-7.58439
 31
1.59694
  0
ARC
  5
BA1
330
A02
100
AcDbEntity
  8
Facebinder
100
AcDbCircle
 10
306.394
 20
-8.08439
 30
1.59694
 40
0.5
100
AcDbArc
 50
0
 51
90
  0
LINE
  5
BA2
330
A02
100
AcDbEntity
  8
Facebinder
100
AcDbLine
 10
283.081
 20
-8.08439
 30
1.59694
 11
283.081
 21
-21.0834
 31
1.59694
  0
ARC
  5
BA3
330
A02
100
AcDbEntity
  8
Facebinder
100
AcDbCircle
 10
282.581
 20
-21.0834
 30
1.59694
 40
0.5
100
AcDbArc
 50
-90
 51
0
  0
LINE
  5
BA4
330
A02
100
AcDbEntity
  8
Facebinder
100
AcDbLine
 10
282.581
 20
-21.5834
 30
1.59694
 11
269.582
 21
-21.5834
 31
1.59694
  0
ARC
  5
BA5
330
A02
100
AcDbEntity
  8
Facebinder
100
AcDbCircle
 10
269.582
 20
-21.0834
 30
1.59694
 40
0.5
100
AcDbArc
 50
180
 51
-90
  0
LINE
  5
BA6
330
A02
100
AcDbEntity
  8
Facebinder
100
AcDbLine
 10
269.082
 20
-21.0834
 30
1.59694
 11
269.082
 21
-8.08439
 31
1.59694
  0
ARC
  5
BA7
330
A02
100
AcDbEntity
  8
Facebinder
100
AcDbCircle
 10
269.582
 20
-8.08439
 30
1.59694
 40
0.5
100
AcDbArc
 50
90
 51
180
  0
LINE
  5
BA8
330
A02
100
AcDbEntity
  8
Facebinder
100
AcDbLine
 10
269.582
 20
-7.58439
 30
1.59694
 11
282.581
 21
-7.58439
 31
1.59694
  0
ARC
  5
BA9
330
A02
100
AcDbEntity
  8
Facebinder
100
AcDbCircle
 10
282.581
 20
-8.08439
 30
1.59694
 40
0.5
100
AcDbArc
 50
0
 51
90
  0
LINE
  5
BAA
330
A02
100
AcDbEntity
  8
Facebinder
100
AcDbLine
 10
264.031
 20
-8.08439
 30
1.59694
 11
264.031
 21
-21.0834
 31
1.59694
  0
ARC
  5
BAB
330
A02
100
AcDbEntity
  8
Facebinder
100
AcDbCircle
 10
263.531
 20
-21.0834
 30
1.59694
 40
0.5
100
AcDbArc
 50
-90
 51
0
  0
LINE
  5
BAC
330
A02
100
AcDbEntity
  8
Facebinder
100
AcDbLine
 10
263.531
 20
-21.5834
 30
1.59694
 11
250.532
 21
-21.5834
 31
1.59694
  0
ARC
  5
BAD
330
A02
100
AcDbEntity
  8
Facebinder
100
AcDbCircle
 10
250.532
 20
-21.0834
 30
1.59694
 40
0.5
100
AcDbArc
 50
180
 51
-90
  0
LINE
  5
BAE
330
A02
100
AcDbEntity
  8
Facebinder
100
AcDbLine
 10
250.032
 20
-21.0834
 30
1.59694
 11
250.032
 21
-8.08439
 31
1.59694
  0
ARC
  5
BAF
330
A02
100
AcDbEntity
  8
Facebinder
100
AcDbCircle
 10
250.532
 20
-8.08439
 30
1.59694
 40
0.5
100
AcDbArc
 50
90
 51
180
  0
LINE
  5
BB0
330
A02
100
AcDbEntity
  8
Facebinder
100
AcDbLine
 10
250.532
 20
-7.58439
 30
1.59694
 11
263.531
 21
-7.58439
 31
1.59694
  0
ARC
  5
BB1
330
A02
100
AcDbEntity
  8
Facebinder
100
AcDbCircle
 10
263.531
 20
-8.08439
 30
1.59694
 40
0.5
100
AcDbArc
 50
0
 51
90
  0
LINE
  5
BB2
330
A02
100
AcDbEntity
  8
Facebinder
100
AcDbLine
 10
244.981
 20
-8.08439
 30
1.59694
 11
244.981
 21
-21.0834
 31
1.59694
  0
ARC
  5
BB3
330
A02
100
AcDbEntity
  8
Facebinder
100
AcDbCircle
 10
244.481
 20
-21.0834
 30
1.59694
 40
0.5
100
AcDbArc
 50
-90
 51
0
  0
LINE
  5
BB4
330
A02
100
AcDbEntity
  8
Facebinder
100
AcDbLine
 10
244.481
 20
-21.5834
 30
1.59694
 11
231.482
 21
-21.5834
 31
1.59694
  0
ARC
  5
BB5
330
A02
100
AcDbEntity
  8
Facebinder
100
AcDbCircle
 10
231.482
 20
-21.0834
 30
1.59694
 40
0.5
100
AcDbArc
 50
180
 51
-90
  0
LINE
  5
BB6
330
A02
100
AcDbEntity
  8
Facebinder
100
AcDbLine
 10
230.982
 20
-21.0834
 30
1.59694
 11
230.982
 21
-8.08439
 31
1.59694
  0
ARC
  5
BB7
330
A02
100
AcDbEntity
  8
Facebinder
100
AcDbCircle
 10
231.482
 20
-8.08439
 30
1.59694
 40
0.5
100
AcDbArc
 50
90
 51
180
  0
LINE
  5
BB8
330
A02
100
AcDbEntity
  8
Facebinder
100
AcDbLine
 10
231.482
 20
-7.58439
 30
1.59694
 11
244.481
 21
-7.58439
 31
1.59694
  0
ARC
  5
BB9
330
A02
100
AcDbEntity
  8
Facebinder
100
AcDbCircle
 10
244.481
 20
-8.08439
 30
1.59694
 40
0.5
100
AcDbArc
 50
0
 51
90
  0
LINE
  5
BBA
330
A02
100
AcDbEntity
  8
Facebinder
100
AcDbLine
 10
225.931
 20
-8.08439
 30
1.59694
 11
225.931
 21
-21.0834
 31
1.59694
  0
ARC
  5
BBB
330
A02
100
AcDbEntity
  8
Facebinder
100
AcDbCircle
 10
225.431
 20
-21.0834
 30
1.59694
 40
0.5
100
AcDbArc
 50
-90
 51
0
  0
LINE
  5
BBC
330
A02
100
AcDbEntity
  8
Facebinder
100
AcDbLine
 10
225.431
 20
-21.5834
 30
1.59694
 11
212.432
 21
-21.5834
 31
1.59694
  0
ARC
  5
BBD
330
A02
100
AcDbEntity
  8
Facebinder
100
AcDbCircle
 10
212.432
 20
-21.0834
 30
1.59694
 40
0.5
100
AcDbArc
 50
180
 51
-90
  0
LINE
  5
BBE
330
A02
100
AcDbEntity
  8
Facebinder
100
AcDbLine
 10
211.932
 20
-21.0834
 30
1.59694
 11
211.932
 21
-8.08439
 31
1.59694
  0
ARC
  5
BBF
330
A02
100
AcDbEntity
  8
Facebinder
100
AcDbCircle
 10
212.432
 20
-8.08439
 30
1.59694
 40
0.5
100
AcDbArc
 50
90
 51
180
  0
LINE
  5
BC0
330
A02
100
AcDbEntity
  8
Facebinder
100
AcDbLine
 10
212.432
 20
-7.58439
 30
1.59694
 11
225.431
 21
-7.58439
 31
1.59694
  0
ARC
  5
BC1
330
A02
100
AcDbEntity
  8
Facebinder
100
AcDbCircle
 10
225.431
 20
-8.08439
 30
1.59694
 40
0.5
100
AcDbArc
 50
0
 51
90
  0
LINE
  5
BC2
330
A02
100
AcDbEntity
  8
Facebinder
100
AcDbLine
 10
197.356
 20
-8.08439
 30
1.59694
 11
197.356
 21
-21.0834
 31
1.59694
  0
ARC
  5
BC3
330
A02
100
AcDbEntity
  8
Facebinder
100
AcDbCircle
 10
196.856
 20
-21.0834
 30
1.59694
 40
0.5
100
AcDbArc
 50
-90
 51
0
  0
LINE
  5
BC4
330
A02
100
AcDbEntity
  8
Facebinder
100
AcDbLine
 10
196.856
 20
-21.5834
 30
1.59694
 11
183.857
 21
-21.5834
 31
1.59694
  0
ARC
  5
BC5
330
A02
100
AcDbEntity
  8
Facebinder
100
AcDbCircle
 10
183.857
 20
-21.0834
 30
1.59694
 40
0.5
100
AcDbArc
 50
180
 51
-90
  0
LINE
  5
BC6
330
A02
100
AcDbEntity
  8
Facebinder
100
AcDbLine
 10
183.357
 20
-21.0834
 30
1.59694
 11
183.357
 21
-8.08439
 31
1.59694
  0
ARC
  5
BC7
330
A02
100
AcDbEntity
  8
Facebinder
100
AcDbCircle
 10
183.857
 20
-8.08439
 30
1.59694
 40
0.5
100
AcDbArc
 50
90
 51
180
  0
LINE
  5
BC8
330
A02
100
AcDbEntity
  8
Facebinder
100
AcDbLine
 10
183.857
 20
-7.58439
 30
1.59694
 11
196.856
 21
-7.58439
 31
1.59694
  0
ARC
  5
BC9
330
A02
100
AcDbEntity
  8
Facebinder
100
AcDbCircle
 10
196.856
 20
-8.08439
 30
1.59694
 40
0.5
100
AcDbArc
 50
0
 51
90
  0
LINE
  5
BCA
330
A02
100
AcDbEntity
  8
Facebinder
100
AcDbLine
 10
178.306
 20
-8.08439
 30
1.59694
 11
178.306
 21
-21.0834
 31
1.59694
  0
ARC
  5
BCB
330
A02
100
AcDbEntity
  8
Facebinder
100
AcDbCircle
 10
177.806
 20
-21.0834
 30
1.59694
 40
0.5
100
AcDbArc
 50
-90
 51
0
  0
LINE
  5
BCC
330
A02
100
AcDbEntity
  8
Facebinder
100
AcDbLine
 10
177.806
 20
-21.5834
 30
1.59694
 11
164.807
 21
-21.5834
 31
1.59694
  0
ARC
  5
BCD
330
A02
100
AcDbEntity
  8
Facebinder
100
AcDbCircle
 10
164.807
 20
-21.0834
 30
1.59694
 40
0.5
100
AcDbArc
 50
180
 51
-90
  0
LINE
  5
BCE
330
A02
100
AcDbEntity
  8
Facebinder
100
AcDbLine
 10
164.307
 20
-21.0834
 30
1.59694
 11
164.307
 21
-8.08439
 31
1.59694
  0
ARC
  5
BCF
330
A02
100
AcDbEntity
  8
Facebinder
100
AcDbCircle
 10
164.807
 20
-8.08439
 30
1.59694
 40
0.5
100
AcDbArc
 50
90
 51
180
  0
LINE
  5
BD0
330
A02
100
AcDbEntity
  8
Facebinder
100
AcDbLine
 10
164.807
 20
-7.58439
 30
1.59694
 11
177.806
 21
-7.58439
 31
1.59694
  0
ARC
  5
BD1
330
A02
100
AcDbEntity
  8
Facebinder
100
AcDbCircle
 10
177.806
 20
-8.08439
 30
1.59694
 40
0.5
100
AcDbArc
 50
0
 51
90
  0
LINE
  5
BD2
330
A02
100
AcDbEntity
  8
Facebinder
100
AcDbLine
 10
159.256
 20
-8.08439
 30
1.59694
 11
159.256
 21
-21.0834
 31
1.59694
  0
ARC
  5
BD3
330
A02
100
AcDbEntity
  8
Facebinder
100
AcDbCircle
 10
158.756
 20
-21.0834
 30
1.59694
 40
0.5
100
AcDbArc
 50
-90
 51
0
  0
LINE
  5
BD4
330
A02
100
AcDbEntity
  8
Facebinder
100
AcDbLine
 10
158.756
 20
-21.5834
 30
1.59694
 11
145.757
 21
-21.5834
 31
1.59694
  0
ARC
  5
BD5
330
A02
100
AcDbEntity
  8
Facebinder
100
AcDbCircle
 10
145.757
 20
-21.0834
 30
1.59694
 40
0.5
100
AcDbArc
 50
180
 51
-90
  0
LINE
  5
BD6
330
A02
100
AcDbEntity
  8
Facebinder
100
AcDbLine
 10
145.257
 20
-21.0834
 30
1.59694
 11
145.257
 21
-8.08439
 31
1.59694
  0
ARC
  5
BD7
330
A02
100
AcDbEntity
  8
Facebinder
100
AcDbCircle
 10
145.757
 20
-8.08439
 30
1.59694
 40
0.5
100
AcDbArc
 50
90
 51
180
  0
LINE
  5
BD8
330
A02
100
AcDbEntity
  8
Facebinder
100
AcDbLine
 10
145.757
 20
-7.58439
 30
1.59694
 11
158.756
 21
-7.58439
 31
1.59694
  0
ARC
  5
BD9
330
A02
100
AcDbEntity
  8
Facebinder
100
AcDbCircle
 10
158.756
 20
-8.08439
 30
1.59694
 40
0.5
100
AcDbArc
 50
0
 51
90
  0
LINE
  5
BDA
330
A02
100
AcDbEntity
  8
Facebinder
100
AcDbLine
 10
140.206
 20
-8.08439
 30
1.59694
 11
140.206
 21
-21.0834
 31
1.59694
  0
ARC
  5
BDB
330
A02
100
AcDbEntity
  8
Facebinder
100
AcDbCircle
 10
139.706
 20
-21.0834
 30
1.59694
 40
0.5
100
AcDbArc
 50
-90
 51
0
  0
LINE
  5
BDC
330
A02
100
AcDbEntity
  8
Facebinder
100
AcDbLine
 10
139.706
 20
-21.5834
 30
1.59694
 11
126.707
 21
-21.5834
 31
1.59694
  0
ARC
  5
BDD
330
A02
100
AcDbEntity
  8
Facebinder
100
AcDbCircle
 10
126.707
 20
-21.0834
 30
1.59694
 40
0.5
100
AcDbArc
 50
180
 51
-90
  0
LINE
  5
BDE
330
A02
100
AcDbEntity
  8
Facebinder
100
AcDbLine
 10
126.207
 20
-21.0834
 30
1.59694
 11
126.207
 21
-8.08439
 31
1.59694
  0
ARC
  5
BDF
330
A02
100
AcDbEntity
  8
Facebinder
100
AcDbCircle
 10
126.707
 20
-8.08439
 30
1.59694
 40
0.5
100
AcDbArc
 50
90
 51
180
  0
LINE
  5
BE0
330
A02
100
AcDbEntity
  8
Facebinder
100
AcDbLine
 10
126.707
 20
-7.58439
 30
1.59694
 11
139.706
 21
-7.58439
 31
1.59694
  0
ARC
  5
BE1
330
A02
100
AcDbEntity
  8
Facebinder
100
AcDbCircle
 10
139.706
 20
-8.08439
 30
1.59694
 40
0.5
100
AcDbArc
 50
0
 51
90
  0
LINE
  5
BE2
330
A02
100
AcDbEntity
  8
Facebinder
100
AcDbLine
 10
111.631
 20
-8.08439
 30
1.59694
 11
111.631
 21
-21.0834
 31
1.59694
  0
ARC
  5
BE3
330
A02
100
AcDbEntity
  8
Facebinder
100
AcDbCircle
 10
111.131
 20
-21.0834
 30
1.59694
 40
0.5
100
AcDbArc
 50
-90
 51
0
  0
LINE
  5
BE4
330
A02
100
AcDbEntity
  8
Facebinder
100
AcDbLine
 10
111.131
 20
-21.5834
 30
1.59694
 11
98.1302
 21
-21.5834
 31
1.59694
  0
ARC
  5
BE5
330
A02
100
AcDbEntity
  8
Facebinder
100
AcDbCircle
 10
98.1302
 20
-21.0834
 30
1.59694
 40
0.5
100
AcDbArc
 50
180
 51
-90
  0
LINE
  5
BE6
330
A02
100
AcDbEntity
  8
Facebinder
100
AcDbLine
 10
97.6302
 20
-21.0834
 30
1.59694
 11
97.6302
 21
-8.08439
 31
1.59694
  0
ARC
  5
BE7
330
A02
100
AcDbEntity
  8
Facebinder
100
AcDbCircle
 10
98.1302
 20
-8.08439
 30
1.59694
 40
0.5
100
AcDbArc
 50
90
 51
180
  0
LINE
  5
BE8
330
A02
100
AcDbEntity
  8
Facebinder
100
AcDbLine
 10
98.1302
 20
-7.58439
 30
1.59694
 11
111.131
 21
-7.58439
 31
1.59694
  0
ARC
  5
BE9
330
A02
100
AcDbEntity
  8
Facebinder
100
AcDbCircle
 10
111.131
 20
-8.08439
 30
1.59694
 40
0.5
100
AcDbArc
 50
0
 51
90
  0
LINE
  5
BEA
330
A02
100
AcDbEntity
  8
Facebinder
100
AcDbLine
 10
92.5809
 20
-8.08439
 30
1.59694
 11
92.5809
 21
-21.0834
 31
1.59694
  0
ARC
  5
BEB
330
A02
100
AcDbEntity
  8
Facebinder
100
AcDbCircle
 10
92.0809
 20
-21.0834
 30
1.59694
 40
0.5
100
AcDbArc
 50
-90
 51
0
  0
LINE
  5
BEC
330
A02
100
AcDbEntity
  8
Facebinder
100
AcDbLine
 10
92.0809
 20
-21.5834
 30
1.59694
 11
79.0816
 21
-21.5834
 31
1.59694
  0
ARC
  5
BED
330
A02
100
AcDbEntity
  8
Facebinder
100
AcDbCircle
 10
79.0816
 20
-21.0834
 30
1.59694
 40
0.5
100
AcDbArc
 50
180
 51
-90
  0
LINE
  5
BEE
330
A02
100
AcDbEntity
  8
Facebinder
100
AcDbLine
 10
78.5816
 20
-21.0834
 30
1.59694
 11
78.5816
 21
-8.08439
 31
1.59694
  0
ARC
  5
BEF
330
A02
100
AcDbEntity
  8
Facebinder
100
AcDbCircle
 10
79.0816
 20
-8.08439
 30
1.59694
 40
0.5
100
AcDbArc
 50
90
 51
180
  0
LINE
  5
BF0
330
A02
100
AcDbEntity
  8
Facebinder
100
AcDbLine
 10
79.0816
 20
-7.58439
 30
1.59694
 11
92.0809
 21
-7.58439
 31
1.59694
  0
ARC
  5
BF1
330
A02
100
AcDbEntity
  8
Facebinder
100
AcDbCircle
 10
92.0809
 20
-8.08439
 30
1.59694
 40
0.5
100
AcDbArc
 50
0
 51
90
  0
LINE
  5
BF2
330
A02
100
AcDbEntity
  8
Facebinder
100
AcDbLine
 10
73.5309
 20
-8.08439
 30
1.59694
 11
73.5309
 21
-21.0834
 31
1.59694
  0
ARC
  5
BF3
330
A02
100
AcDbEntity
  8
Facebinder
100
AcDbCircle
 10
73.0309
 20
-21.0834
 30
1.59694
 40
0.5
100
AcDbArc
 50
-90
 51
0
  0
LINE
  5
BF4
330
A02
100
AcDbEntity
  8
Facebinder
100
AcDbLine
 10
73.0309
 20
-21.5834
 30
1.59694
 11
60.0316
 21
-21.5834
 31
1.59694
  0
ARC
  5
BF5
330
A02
100
AcDbEntity
  8
Facebinder
100
AcDbCircle
 10
60.0316
 20
-21.0834
 30
1.59694
 40
0.5
100
AcDbArc
 50
180
 51
-90
  0
LINE
  5
BF6
330
A02
100
AcDbEntity
  8
Facebinder
100
AcDbLine
 10
59.5316
 20
-21.0834
 30
1.59694
 11
59.5316
 21
-8.08439
 31
1.59694
  0
ARC
  5
BF7
330
A02
100
AcDbEntity
  8
Facebinder
100
AcDbCircle
 10
60.0316
 20
-8.08439
 30
1.59694
 40
0.5
100
AcDbArc
 50
90
 51
180
  0
LINE
  5
BF8
330
A02
100
AcDbEntity
  8
Facebinder
100
AcDbLine
 10
60.0316
 20
-7.58439
 30
1.59694
 11
73.0309
 21
-7.58439
 31
1.59694
  0
ARC
  5
BF9
330
A02
100
AcDbEntity
  8
Facebinder
100
AcDbCircle
 10
73.0309
 20
-8.08439
 30
1.59694
 40
0.5
100
AcDbArc
 50
0
 51
90
  0
LINE
  5
BFA
330
A02
100
AcDbEntity
  8
Facebinder
100
AcDbLine
 10
54.4809
 20
-8.08439
 30
1.59694
 11
54.4809
 21
-21.0834
 31
1.59694
  0
ARC
  5
BFB
330
A02
100
AcDbEntity
  8
Facebinder
100
AcDbCircle
 10
53.9809
 20
-21.0834
 30
1.59694
 40
0.5
100
AcDbArc
 50
-90
 51
0
  0
LINE
  5
BFC
330
A02
100
AcDbEntity
  8
Facebinder
100
AcDbLine
 10
53.9809
 20
-21.5834
 30
1.59694
 11
40.9816
 21
-21.5834
 31
1.59694
  0
ARC
  5
BFD
330
A02
100
AcDbEntity
  8
Facebinder
100
AcDbCircle
 10
40.9816
 20
-21.0834
 30
1.59694
 40
0.5
100
AcDbArc
 50
180
 51
-90
  0
LINE
  5
BFE
330
A02
100
AcDbEntity
  8
Facebinder
100
AcDbLine
 10
40.4816
 20
-21.0834
 30
1.59694
 11
40.4816
 21
-8.08439
 31
1.59694
  0
ARC
  5
BFF
330
A02
100
AcDbEntity
  8
Facebinder
100
AcDbCircle
 10
40.9816
 20
-8.08439
 30
1.59694
 40
0.5
100
AcDbArc
 50
90
 51
180
  0
LINE
  5
C00
330
A02
100
AcDbEntity
  8
Facebinder
100
AcDbLine
 10
40.9816
 20
-7.58439
 30
1.59694
 11
53.9809
 21
-7.58439
 31
1.59694
  0
ARC
  5
C01
330
A02
100
AcDbEntity
  8
Facebinder
100
AcDbCircle
 10
53.9809
 20
-8.08439
 30
1.59694
 40
0.5
100
AcDbArc
 50
0
 51
90
  0
CIRCLE
  5
C02
330
A02
100
AcDbEntity
  8
Facebinder
100
AcDbCircle
 10
118.919
 20
-14.5816
 40
2.2
  0
CIRCLE
  5
C03
330
A02
100
AcDbEntity
  8
Facebinder
100
AcDbCircle
 10
204.644
 20
-14.5828
 40
2.2
  0
LINE
  5
C04
330
A02
100
AcDbEntity
  8
Facebinder
100
AcDbLine
 10
16.3811
 20
-8.08439
 30
1.59694
 11
16.3811
 21
-21.0834
 31
1.59694
  0
ARC
  5
C05
330
A02
100
AcDbEntity
  8
Facebinder
100
AcDbCircle
 10
15.8811
 20
-21.0834
 30
1.59694
 40
0.5
100
AcDbArc
 50
-90
 51
0
  0
LINE
  5
C06
330
A02
100
AcDbEntity
  8
Facebinder
100
AcDbLine
 10
15.8811
 20
-21.5834
 30
1.59694
 11
2.8815
 21
-21.5834
 31
1.59694
  0
ARC
  5
C07
330
A02
100
AcDbEntity
  8
Facebinder
100
AcDbCircle
 10
2.8815
 20
-21.0834
 30
1.59694
 40
0.5
100
AcDbArc
 50
180
 51
-90
  0
LINE
  5
C08
330
A02
100
AcDbEntity
  8
Facebinder
100
AcDbLine
 10
2.3815
 20
-21.0834
 30
1.59694
 11
2.3815
 21
-8.08439
 31
1.59694
  0
ARC
  5
C09
330
A02
100
AcDbEntity
  8
Facebinder
100
AcDbCircle
 10
2.8815
 20
-8.08439
 30
1.59694
 40
0.5
100
AcDbArc
 50
90
 51
180
  0
LINE
  5
C0A
330
A02
100
AcDbEntity
  8
Facebinder
100
AcDbLine
 10
2.8815
 20
-7.58439
 30
1.59694
 11
15.8811
 21
-7.58439
 31
1.59694
  0
ARC
  5
C0B
330
A02
100
AcDbEntity
  8
Facebinder
100
AcDbCircle
 10
15.8811
 20
-8.08439
 30
1.59694
 40
0.5
100
AcDbArc
 50
0
 51
90
  0
LINE
  5
C0C
330
A02
100
AcDbEntity
  8
Facebinder
100
AcDbLine
 10
166.963
 20
-28.9589
 30
1.59694
 11
30.2625
 21
-28.9589
 31
1.59694
  0
ARC
  5
C0D
330
A02
100
AcDbEntity
  8
Facebinder
100
AcDbCircle
 10
30.2625
 20
-27.4589
 30
1.59694
 40
1.5
100
AcDbArc
 50
90
 51
-90
  0
LINE
  5
C0E
330
A02
100
AcDbEntity
  8
Facebinder
100
AcDbLine
 10
30.2625
 20
-25.9589
 30
1.59694
 11
166.963
 21
-25.9589
 31
1.59694
  0
ARC
  5
C0F
330
A02
100
AcDbEntity
  8
Facebinder
100
AcDbCircle
 10
166.963
 20
-27.4589
 30
1.59694
 40
1.5
100
AcDbArc
 50
-90
 51
90
  0
CIRCLE
  5
C10
330
A02
100
AcDbEntity
  8
Facebinder
100
AcDbCircle
 10
337.995
 20
-27.4587
 40
2.2
  0
CIRCLE
  5
C11
330
A02
100
AcDbEntity
  8
Facebinder
100
AcDbCircle
 10
296.995
 20
-74.4249
 40
2.2
  0
CIRCLE
  5
C12
330
A02
100
AcDbEntity
  8
Facebinder
100
AcDbCircle
 10
9.30248
 20
-27.4404
 40
2.2
  0
ARC
  5
C13
330
A02
100
AcDbEntity
  8
Facebinder
100
AcDbCircle
 10
180.963
 20
-27.4589
 30
1.59694
 40
1.5
100
AcDbArc
 50
90
 51
-90
  0
LINE
  5
C14
330
A02
100
AcDbEntity
  8
Facebinder
100
AcDbLine
 10
180.963
 20
-25.9589
 30
1.59694
 11
317.663
 21
-25.9589
 31
1.59694
  0
ARC
  5
C15
330
A02
100
AcDbEntity
  8
Facebinder
100
AcDbCircle
 10
317.663
 20
-27.4589
 30
1.59694
 40
1.5
100
AcDbArc
 50
-90
 51
90
  0
LINE
  5
C16
330
A02
100
AcDbEntity
  8
Facebinder
100
AcDbLine
 10
317.663
 20
-28.9589
 30
1.59694
 11
180.963
 21
-28.9589
 31
1.59694
  0
CIRCLE
  5
C17
330
A02
100
AcDbEntity
  8
Facebinder
100
AcDbCircle
 10
43.7143
 20
3.02511
 40
1.1
  0
CIRCLE
  5
C18
330
A02
100
AcDbEntity
  8
Facebinder
100
AcDbCircle
 10
217.203
 20
3.02511
 40
1.1
  0
LINE
  5
C19
330
A02
100
AcDbEntity
  8
Facebinder
100
AcDbLine
 10
17.7625
 20
-24.5089
 30
1.59694
 11
22.7625
 21
-24.5089
 31
1.59694
  0
ARC
  5
C1A
330
A02
100
AcDbEntity
  8
Facebinder
100
AcDbCircle
 10
22.7625
 20
-27.4589
 30
1.59694
 40
2.95
100
AcDbArc
 50
-90
 51
90
  0
LINE
  5
C1B
330
A02
100
AcDbEntity
  8
Facebinder
100
AcDbLine
 10
22.7625
 20
-30.4089
 30
1.59694
 11
17.7625
 21
-30.4089
 31
1.59694
  0
ARC
  5
C1C
330
A02
100
AcDbEntity
  8
Facebinder
100
AcDbCircle
 10
17.7625
 20
-27.4589
 30
1.59694
 40
2.95
100
AcDbArc
 50
90
 51
-90
  0
LINE
  5
C1D
330
A02
100
AcDbEntity
  8
Facebinder
100
AcDbLine
 10
325.163
 20
-24.5089
 30
1.59694
 11
330.163
 21
-24.5089
 31
1.59694
  0
ARC
  5
C1E
330
A02
100
AcDbEntity
  8
Facebinder
100
AcDbCircle
 10
330.163
 20
-27.4589
 30
1.59694
 40
2.95
100
AcDbArc
 50
-90
 51
90
  0
LINE
  5
C1F
330
A02
100
AcDbEntity
  8
Facebinder
100
AcDbLine
 10
330.163
 20
-30.4089
 30
1.59694
 11
325.163
 21
-30.4089
 31
1.59694
  0
ARC
  5
C20
330
A02
100
AcDbEntity
  8
Facebinder
100
AcDbCircle
 10
325.163
 20
-27.4589
 30
1.59694
 40
2.95
100
AcDbArc
 50
90
 51
-90
  0
CIRCLE
  5
C21
330
A02
100
AcDbEntity
  8
Facebinder
100
AcDbCircle
 10
303.948
 20
3.02511
 40
1.1
  0
CIRCLE
  5
C22
330
A02
100
AcDbEntity
  8
Facebinder
100
AcDbCircle
 10
130.459
 20
3.02511
 40
1.1
  0
CIRCLE
  5
C23
330
A02
100
AcDbEntity
  8
Facebinder
100
AcDbCircle
 10
258.506
 20
-59.3838
 40
1.3
  0
LINE
  5
C24
330
A02
100
AcDbEntity
  8
Facebinder
100
AcDbLine
 10
230.982
 20
-46.8336
 30
1.59694
 11
230.982
 21
-33.8343
 31
1.59694
  0
ARC
  5
C25
330
A02
100
AcDbEntity
  8
Facebinder
100
AcDbCircle
 10
231.482
 20
-33.8343
 30
1.59694
 40
0.5
100
AcDbArc
 50
90
 51
180
  0
LINE
  5
C26
330
A02
100
AcDbEntity
  8
Facebinder
100
AcDbLine
 10
231.482
 20
-33.3343
 30
1.59694
 11
244.481
 21
-33.3343
 31
1.59694
  0
ARC
  5
C27
330
A02
100
AcDbEntity
  8
Facebinder
100
AcDbCircle
 10
244.481
 20
-33.8343
 30
1.59694
 40
0.5
100
AcDbArc
 50
0
 51
90
  0
LINE
  5
C28
330
A02
100
AcDbEntity
  8
Facebinder
100
AcDbLine
 10
244.981
 20
-33.8343
 30
1.59694
 11
244.981
 21
-46.8336
 31
1.59694
  0
ARC
  5
C29
330
A02
100
AcDbEntity
  8
Facebinder
100
AcDbCircle
 10
244.481
 20
-46.8336
 30
1.59694
 40
0.5
100
AcDbArc
 50
-90
 51
0
  0
LINE
  5
C2A
330
A02
100
AcDbEntity
  8
Facebinder
100
AcDbLine
 10
244.481
 20
-47.3336
 30
1.59694
 11
231.482
 21
-47.3336
 31
1.59694
  0
ARC
  5
C2B
330
A02
100
AcDbEntity
  8
Facebinder
100
AcDbCircle
 10
231.482
 20
-46.8336
 30
1.59694
 40
0.5
100
AcDbArc
 50
180
 51
-90
  0
LINE
  5
C2C
330
A02
100
AcDbEntity
  8
Facebinder
100
AcDbLine
 10
344.494
 20
-47.3336
 30
1.59694
 11
331.494
 21
-47.3336
 31
1.59694
  0
ARC
  5
C2D
330
A02
100
AcDbEntity
  8
Facebinder
100
AcDbCircle
 10
331.494
 20
-46.8336
 30
1.59694
 40
0.5
100
AcDbArc
 50
180
 51
-90
  0
LINE
  5
C2E
330
A02
100
AcDbEntity
  8
Facebinder
100
AcDbLine
 10
330.994
 20
-46.8336
 30
1.59694
 11
330.994
 21
-33.8343
 31
1.59694
  0
ARC
  5
C2F
330
A02
100
AcDbEntity
  8
Facebinder
100
AcDbCircle
 10
331.494
 20
-33.8343
 30
1.59694
 40
0.5
100
AcDbArc
 50
90
 51
180
  0
LINE
  5
C30
330
A02
100
AcDbEntity
  8
Facebinder
100
AcDbLine
 10
331.494
 20
-33.3343
 30
1.59694
 11
344.494
 21
-33.3343
 31
1.59694
  0
ARC
  5
C31
330
A02
100
AcDbEntity
  8
Facebinder
100
AcDbCircle
 10
344.494
 20
-33.8343
 30
1.59694
 40
0.5
100
AcDbArc
 50
0
 51
90
  0
LINE
  5
C32
330
A02
100
AcDbEntity
  8
Facebinder
100
AcDbLine
 10
344.994
 20
-33.8343
 30
1.59694
 11
344.994
 21
-46.8336
 31
1.59694
  0
ARC
  5
C33
330
A02
100
AcDbEntity
  8
Facebinder
100
AcDbCircle
 10
344.494
 20
-46.8336
 30
1.59694
 40
0.5
100
AcDbArc
 50
-90
 51
0
  0
LINE
  5
C34
330
A02
100
AcDbEntity
  8
Facebinder
100
AcDbLine
 10
211.932
 20
-46.8336
 30
1.59694
 11
211.932
 21
-33.8343
 31
1.59694
  0
ARC
  5
C35
330
A02
100
AcDbEntity
  8
Facebinder
100
AcDbCircle
 10
212.432
 20
-33.8343
 30
1.59694
 40
0.5
100
AcDbArc
 50
90
 51
180
  0
LINE
  5
C36
330
A02
100
AcDbEntity
  8
Facebinder
100
AcDbLine
 10
212.432
 20
-33.3343
 30
1.59694
 11
225.431
 21
-33.3343
 31
1.59694
  0
ARC
  5
C37
330
A02
100
AcDbEntity
  8
Facebinder
100
AcDbCircle
 10
225.431
 20
-33.8343
 30
1.59694
 40
0.5
100
AcDbArc
 50
0
 51
90
  0
LINE
  5
C38
330
A02
100
AcDbEntity
  8
Facebinder
100
AcDbLine
 10
225.931
 20
-33.8343
 30
1.59694
 11
225.931
 21
-46.8336
 31
1.59694
  0
ARC
  5
C39
330
A02
100
AcDbEntity
  8
Facebinder
100
AcDbCircle
 10
225.431
 20
-46.8336
 30
1.59694
 40
0.5
100
AcDbArc
 50
-90
 51
0
  0
LINE
  5
C3A
330
A02
100
AcDbEntity
  8
Facebinder
100
AcDbLine
 10
225.431
 20
-47.3336
 30
1.59694
 11
212.432
 21
-47.3336
 31
1.59694
  0
ARC
  5
C3B
330
A02
100
AcDbEntity
  8
Facebinder
100
AcDbCircle
 10
212.432
 20
-46.8336
 30
1.59694
 40
0.5
100
AcDbArc
 50
180
 51
-90
  0
LINE
  5
C3C
330
A02
100
AcDbEntity
  8
Facebinder
100
AcDbLine
 10
192.882
 20
-46.8336
 30
1.59694
 11
192.882
 21
-33.8343
 31
1.59694
  0
ARC
  5
C3D
330
A02
100
AcDbEntity
  8
Facebinder
100
AcDbCircle
 10
193.382
 20
-33.8343
 30
1.59694
 40
0.5
100
AcDbArc
 50
90
 51
180
  0
LINE
  5
C3E
330
A02
100
AcDbEntity
  8
Facebinder
100
AcDbLine
 10
193.382
 20
-33.3343
 30
1.59694
 11
206.381
 21
-33.3343
 31
1.59694
  0
ARC
  5
C3F
330
A02
100
AcDbEntity
  8
Facebinder
100
AcDbCircle
 10
206.381
 20
-33.8343
 30
1.59694
 40
0.5
100
AcDbArc
 50
0
 51
90
  0
LINE
  5
C40
330
A02
100
AcDbEntity
  8
Facebinder
100
AcDbLine
 10
206.881
 20
-33.8343
 30
1.59694
 11
206.881
 21
-46.8336
 31
1.59694
  0
ARC
  5
C41
330
A02
100
AcDbEntity
  8
Facebinder
100
AcDbCircle
 10
206.381
 20
-46.8336
 30
1.59694
 40
0.5
100
AcDbArc
 50
-90
 51
0
  0
LINE
  5
C42
330
A02
100
AcDbEntity
  8
Facebinder
100
AcDbLine
 10
206.381
 20
-47.3336
 30
1.59694
 11
193.382
 21
-47.3336
 31
1.59694
  0
ARC
  5
C43
330
A02
100
AcDbEntity
  8
Facebinder
100
AcDbCircle
 10
193.382
 20
-46.8336
 30
1.59694
 40
0.5
100
AcDbArc
 50
180
 51
-90
  0
LINE
  5
C44
330
A02
100
AcDbEntity
  8
Facebinder
100
AcDbLine
 10
173.832
 20
-46.8336
 30
1.59694
 11
173.832
 21
-33.8343
 31
1.59694
  0
ARC
  5
C45
330
A02
100
AcDbEntity
  8
Facebinder
100
AcDbCircle
 10
174.332
 20
-33.8343
 30
1.59694
 40
0.5
100
AcDbArc
 50
90
 51
180
  0
LINE
  5
C46
330
A02
100
AcDbEntity
  8
Facebinder
100
AcDbLine
 10
174.332
 20
-33.3343
 30
1.59694
 11
187.331
 21
-33.3343
 31
1.59694
  0
ARC
  5
C47
330
A02
100
AcDbEntity
  8
Facebinder
100
AcDbCircle
 10
187.331
 20
-33.8343
 30
1.59694
 40
0.5
100
AcDbArc
 50
0
 51
90
  0
LINE
  5
C48
330
A02
100
AcDbEntity
  8
Facebinder
100
AcDbLine
 10
187.831
 20
-33.8343
 30
1.59694
 11
187.831
 21
-46.8336
 31
1.59694
  0
ARC
  5
C49
330
A02
100
AcDbEntity
  8
Facebinder
100
AcDbCircle
 10
187.331
 20
-46.8336
 30
1.59694
 40
0.5
100
AcDbArc
 50
-90
 51
0
  0
LINE
  5
C4A
330
A02
100
AcDbEntity
  8
Facebinder
100
AcDbLine
 10
187.331
 20
-47.3336
 30
1.59694
 11
174.332
 21
-47.3336
 31
1.59694
  0
ARC
  5
C4B
330
A02
100
AcDbEntity
  8
Facebinder
100
AcDbCircle
 10
174.332
 20
-46.8336
 30
1.59694
 40
0.5
100
AcDbArc
 50
180
 51
-90
  0
LINE
  5
C4C
330
A02
100
AcDbEntity
  8
Facebinder
100
AcDbLine
 10
154.782
 20
-46.8336
 30
1.59694
 11
154.782
 21
-33.8343
 31
1.59694
  0
ARC
  5
C4D
330
A02
100
AcDbEntity
  8
Facebinder
100
AcDbCircle
 10
155.282
 20
-33.8343
 30
1.59694
 40
0.5
100
AcDbArc
 50
90
 51
180
  0
LINE
  5
C4E
330
A02
100
AcDbEntity
  8
Facebinder
100
AcDbLine
 10
155.282
 20
-33.3343
 30
1.59694
 11
168.281
 21
-33.3343
 31
1.59694
  0
ARC
  5
C4F
330
A02
100
AcDbEntity
  8
Facebinder
100
AcDbCircle
 10
168.281
 20
-33.8343
 30
1.59694
 40
0.5
100
AcDbArc
 50
0
 51
90
  0
LINE
  5
C50
330
A02
100
AcDbEntity
  8
Facebinder
100
AcDbLine
 10
168.781
 20
-33.8343
 30
1.59694
 11
168.781
 21
-46.8336
 31
1.59694
  0
ARC
  5
C51
330
A02
100
AcDbEntity
  8
Facebinder
100
AcDbCircle
 10
168.281
 20
-46.8336
 30
1.59694
 40
0.5
100
AcDbArc
 50
-90
 51
0
  0
LINE
  5
C52
330
A02
100
AcDbEntity
  8
Facebinder
100
AcDbLine
 10
168.281
 20
-47.3336
 30
1.59694
 11
155.282
 21
-47.3336
 31
1.59694
  0
ARC
  5
C53
330
A02
100
AcDbEntity
  8
Facebinder
100
AcDbCircle
 10
155.282
 20
-46.8336
 30
1.59694
 40
0.5
100
AcDbArc
 50
180
 51
-90
  0
LINE
  5
C54
330
A02
100
AcDbEntity
  8
Facebinder
100
AcDbLine
 10
135.732
 20
-46.8336
 30
1.59694
 11
135.732
 21
-33.8343
 31
1.59694
  0
ARC
  5
C55
330
A02
100
AcDbEntity
  8
Facebinder
100
AcDbCircle
 10
136.232
 20
-33.8343
 30
1.59694
 40
0.5
100
AcDbArc
 50
90
 51
180
  0
LINE
  5
C56
330
A02
100
AcDbEntity
  8
Facebinder
100
AcDbLine
 10
136.232
 20
-33.3343
 30
1.59694
 11
149.231
 21
-33.3343
 31
1.59694
  0
ARC
  5
C57
330
A02
100
AcDbEntity
  8
Facebinder
100
AcDbCircle
 10
149.231
 20
-33.8343
 30
1.59694
 40
0.5
100
AcDbArc
 50
0
 51
90
  0
LINE
  5
C58
330
A02
100
AcDbEntity
  8
Facebinder
100
AcDbLine
 10
149.731
 20
-33.8343
 30
1.59694
 11
149.731
 21
-46.8336
 31
1.59694
  0
ARC
  5
C59
330
A02
100
AcDbEntity
  8
Facebinder
100
AcDbCircle
 10
149.231
 20
-46.8336
 30
1.59694
 40
0.5
100
AcDbArc
 50
-90
 51
0
  0
LINE
  5
C5A
330
A02
100
AcDbEntity
  8
Facebinder
100
AcDbLine
 10
149.231
 20
-47.3336
 30
1.59694
 11
136.232
 21
-47.3336
 31
1.59694
  0
ARC
  5
C5B
330
A02
100
AcDbEntity
  8
Facebinder
100
AcDbCircle
 10
136.232
 20
-46.8336
 30
1.59694
 40
0.5
100
AcDbArc
 50
180
 51
-90
  0
LINE
  5
C5C
330
A02
100
AcDbEntity
  8
Facebinder
100
AcDbLine
 10
116.68
 20
-46.8336
 30
1.59694
 11
116.68
 21
-33.8343
 31
1.59694
  0
ARC
  5
C5D
330
A02
100
AcDbEntity
  8
Facebinder
100
AcDbCircle
 10
117.18
 20
-33.8343
 30
1.59694
 40
0.5
100
AcDbArc
 50
90
 51
180
  0
LINE
  5
C5E
330
A02
100
AcDbEntity
  8
Facebinder
100
AcDbLine
 10
117.18
 20
-33.3343
 30
1.59694
 11
130.181
 21
-33.3343
 31
1.59694
  0
ARC
  5
C5F
330
A02
100
AcDbEntity
  8
Facebinder
100
AcDbCircle
 10
130.181
 20
-33.8343
 30
1.59694
 40
0.5
100
AcDbArc
 50
0
 51
90
  0
LINE
  5
C60
330
A02
100
AcDbEntity
  8
Facebinder
100
AcDbLine
 10
130.681
 20
-33.8343
 30
1.59694
 11
130.681
 21
-46.8336
 31
1.59694
  0
ARC
  5
C61
330
A02
100
AcDbEntity
  8
Facebinder
100
AcDbCircle
 10
130.181
 20
-46.8336
 30
1.59694
 40
0.5
100
AcDbArc
 50
-90
 51
0
  0
LINE
  5
C62
330
A02
100
AcDbEntity
  8
Facebinder
100
AcDbLine
 10
130.181
 20
-47.3336
 30
1.59694
 11
117.18
 21
-47.3336
 31
1.59694
  0
ARC
  5
C63
330
A02
100
AcDbEntity
  8
Facebinder
100
AcDbCircle
 10
117.18
 20
-46.8336
 30
1.59694
 40
0.5
100
AcDbArc
 50
180
 51
-90
  0
LINE
  5
C64
330
A02
100
AcDbEntity
  8
Facebinder
100
AcDbLine
 10
97.6302
 20
-46.8336
 30
1.59694
 11
97.6302
 21
-33.8343
 31
1.59694
  0
ARC
  5
C65
330
A02
100
AcDbEntity
  8
Facebinder
100
AcDbCircle
 10
98.1302
 20
-33.8343
 30
1.59694
 40
0.5
100
AcDbArc
 50
90
 51
180
  0
LINE
  5
C66
330
A02
100
AcDbEntity
  8
Facebinder
100
AcDbLine
 10
98.1302
 20
-33.3343
 30
1.59694
 11
111.131
 21
-33.3343
 31
1.59694
  0
ARC
  5
C67
330
A02
100
AcDbEntity
  8
Facebinder
100
AcDbCircle
 10
111.131
 20
-33.8343
 30
1.59694
 40
0.5
100
AcDbArc
 50
0
 51
90
  0
LINE
  5
C68
330
A02
100
AcDbEntity
  8
Facebinder
100
AcDbLine
 10
111.631
 20
-33.8343
 30
1.59694
 11
111.631
 21
-46.8336
 31
1.59694
  0
ARC
  5
C69
330
A02
100
AcDbEntity
  8
Facebinder
100
AcDbCircle
 10
111.131
 20
-46.8336
 30
1.59694
 40
0.5
100
AcDbArc
 50
-90
 51
0
  0
LINE
  5
C6A
330
A02
100
AcDbEntity
  8
Facebinder
100
AcDbLine
 10
111.131
 20
-47.3336
 30
1.59694
 11
98.1302
 21
-47.3336
 31
1.59694
  0
ARC
  5
C6B
330
A02
100
AcDbEntity
  8
Facebinder
100
AcDbCircle
 10
98.1302
 20
-46.8336
 30
1.59694
 40
0.5
100
AcDbArc
 50
180
 51
-90
  0
LINE
  5
C6C
330
A02
100
AcDbEntity
  8
Facebinder
100
AcDbLine
 10
78.5816
 20
-46.8336
 30
1.59694
 11
78.5816
 21
-33.8343
 31
1.59694
  0
ARC
  5
C6D
330
A02
100
AcDbEntity
  8
Facebinder
100
AcDbCircle
 10
79.0816
 20
-33.8343
 30
1.59694
 40
0.5
100
AcDbArc
 50
90
 51
180
  0
LINE
  5
C6E
330
A02
100
AcDbEntity
  8
Facebinder
100
AcDbLine
 10
79.0816
 20
-33.3343
 30
1.59694
 11
92.0809
 21
-33.3343
 31
1.59694
  0
ARC
  5
C6F
330
A02
100
AcDbEntity
  8
Facebinder
100
AcDbCircle
 10
92.0809
 20
-33.8343
 30
1.59694
 40
0.5
100
AcDbArc
 50
0
 51
90
  0
LINE
  5
C70
330
A02
100
AcDbEntity
  8
Facebinder
100
AcDbLine
 10
92.5809
 20
-33.8343
 30
1.59694
 11
92.5809
 21
-46.8336
 31
1.59694
  0
ARC
  5
C71
330
A02
100
AcDbEntity
  8
Facebinder
100
AcDbCircle
 10
92.0809
 20
-46.8336
 30
1.59694
 40
0.5
100
AcDbArc
 50
-90
 51
0
  0
LINE
  5
C72
330
A02
100
AcDbEntity
  8
Facebinder
100
AcDbLine
 10
92.0809
 20
-47.3336
 30
1.59694
 11
79.0816
 21
-47.3336
 31
1.59694
  0
ARC
  5
C73
330
A02
100
AcDbEntity
  8
Facebinder
100
AcDbCircle
 10
79.0816
 20
-46.8336
 30
1.59694
 40
0.5
100
AcDbArc
 50
180
 51
-90
  0
LINE
  5
C74
330
A02
100
AcDbEntity
  8
Facebinder
100
AcDbLine
 10
59.5316
 20
-46.8336
 30
1.59694
 11
59.5316
 21
-33.8343
 31
1.59694
  0
ARC
  5
C75
330
A02
100
AcDbEntity
  8
Facebinder
100
AcDbCircle
 10
60.0316
 20
-33.8343
 30
1.59694
 40
0.5
100
AcDbArc
 50
90
 51
180
  0
LINE
  5
C76
330
A02
100
AcDbEntity
  8
Facebinder
100
AcDbLine
 10
60.0316
 20
-33.3343
 30
1.59694
 11
73.0309
 21
-33.3343
 31
1.59694
  0
ARC
  5
C77
330
A02
100
AcDbEntity
  8
Facebinder
100
AcDbCircle
 10
73.0309
 20
-33.8343
 30
1.59694
 40
0.5
100
AcDbArc
 50
0
 51
90
  0
LINE
  5
C78
330
A02
100
AcDbEntity
  8
Facebinder
100
AcDbLine
 10
73.5309
 20
-33.8343
 30
1.59694
 11
73.5309
 21
-46.8336
 31
1.59694
  0
ARC
  5
C79
330
A02
100
AcDbEntity
  8
Facebinder
100
AcDbCircle
 10
73.0309
 20
-46.8336
 30
1.59694
 40
0.5
100
AcDbArc
 50
-90
 51
0
  0
LINE
  5
C7A
330
A02
100
AcDbEntity
  8
Facebinder
100
AcDbLine
 10
73.0309
 20
-47.3336
 30
1.59694
 11
60.0316
 21
-47.3336
 31
1.59694
  0
ARC
  5
C7B
330
A02
100
AcDbEntity
  8
Facebinder
100
AcDbCircle
 10
60.0316
 20
-46.8336
 30
1.59694
 40
0.5
100
AcDbArc
 50
180
 51
-90
  0
LINE
  5
C7C
330
A02
100
AcDbEntity
  8
Facebinder
100
AcDbLine
 10
40.4816
 20
-46.8336
 30
1.59694
 11
40.4816
 21
-33.8343
 31
1.59694
  0
ARC
  5
C7D
330
A02
100
AcDbEntity
  8
Facebinder
100
AcDbCircle
 10
40.9816
 20
-33.8343
 30
1.59694
 40
0.5
100
AcDbArc
 50
90
 51
180
  0
LINE
  5
C7E
330
A02
100
AcDbEntity
  8
Facebinder
100
AcDbLine
 10
40.9816
 20
-33.3343
 30
1.59694
 11
53.9809
 21
-33.3343
 31
1.59694
  0
ARC
  5
C7F
330
A02
100
AcDbEntity
  8
Facebinder
100
AcDbCircle
 10
53.9809
 20
-33.8343
 30
1.59694
 40
0.5
100
AcDbArc
 50
0
 51
90
  0
LINE
  5
C80
330
A02
100
AcDbEntity
  8
Facebinder
100
AcDbLine
 10
54.4809
 20
-33.8343
 30
1.59694
 11
54.4809
 21
-46.8336
 31
1.59694
  0
ARC
  5
C81
330
A02
100
AcDbEntity
  8
Facebinder
100
AcDbCircle
 10
53.9809
 20
-46.8336
 30
1.59694
 40
0.5
100
AcDbArc
 50
-90
 51
0
  0
LINE
  5
C82
330
A02
100
AcDbEntity
  8
Facebinder
100
AcDbLine
 10
53.9809
 20
-47.3336
 30
1.59694
 11
40.9816
 21
-47.3336
 31
1.59694
  0
ARC
  5
C83
330
A02
100
AcDbEntity
  8
Facebinder
100
AcDbCircle
 10
40.9816
 20
-46.8336
 30
1.59694
 40
0.5
100
AcDbArc
 50
180
 51
-90
  0
LINE
  5
C84
330
A02
100
AcDbEntity
  8
Facebinder
100
AcDbLine
 10
21.4316
 20
-46.8336
 30
1.59694
 11
21.4316
 21
-33.8343
 31
1.59694
  0
ARC
  5
C85
330
A02
100
AcDbEntity
  8
Facebinder
100
AcDbCircle
 10
21.9316
 20
-33.8343
 30
1.59694
 40
0.5
100
AcDbArc
 50
90
 51
180
  0
LINE
  5
C86
330
A02
100
AcDbEntity
  8
Facebinder
100
AcDbLine
 10
21.9316
 20
-33.3343
 30
1.59694
 11
34.9309
 21
-33.3343
 31
1.59694
  0
ARC
  5
C87
330
A02
100
AcDbEntity
  8
Facebinder
100
AcDbCircle
 10
34.9309
 20
-33.8343
 30
1.59694
 40
0.5
100
AcDbArc
 50
0
 51
90
  0
LINE
  5
C88
330
A02
100
AcDbEntity
  8
Facebinder
100
AcDbLine
 10
35.4309
 20
-33.8343
 30
1.59694
 11
35.4309
 21
-46.8336
 31
1.59694
  0
ARC
  5
C89
330
A02
100
AcDbEntity
  8
Facebinder
100
AcDbCircle
 10
34.9309
 20
-46.8336
 30
1.59694
 40
0.5
100
AcDbArc
 50
-90
 51
0
  0
LINE
  5
C8A
330
A02
100
AcDbEntity
  8
Facebinder
100
AcDbLine
 10
34.9309
 20
-47.3336
 30
1.59694
 11
21.9316
 21
-47.3336
 31
1.59694
  0
ARC
  5
C8B
330
A02
100
AcDbEntity
  8
Facebinder
100
AcDbCircle
 10
21.9316
 20
-46.8336
 30
1.59694
 40
0.5
100
AcDbArc
 50
180
 51
-90
  0
LINE
  5
C8C
330
A02
100
AcDbEntity
  8
Facebinder
100
AcDbLine
 10
15.8811
 20
-47.3336
 30
1.59694
 11
2.8815
 21
-47.3336
 31
1.59694
  0
ARC
  5
C8D
330
A02
100
AcDbEntity
  8
Facebinder
100
AcDbCircle
 10
2.8815
 20
-46.8336
 30
1.59694
 40
0.5
100
AcDbArc
 50
180
 51
-90
  0
LINE
  5
C8E
330
A02
100
AcDbEntity
  8
Facebinder
100
AcDbLine
 10
2.3815
 20
-46.8336
 30
1.59694
 11
2.3815
 21
-33.8343
 31
1.59694
  0
ARC
  5
C8F
330
A02
100
AcDbEntity
  8
Facebinder
100
AcDbCircle
 10
2.8815
 20
-33.8343
 30
1.59694
 40
0.5
100
AcDbArc
 50
90
 51
180
  0
LINE
  5
C90
330
A02
100
AcDbEntity
  8
Facebinder
100
AcDbLine
 10
2.8815
 20
-33.3343
 30
1.59694
 11
15.8811
 21
-33.3343
 31
1.59694
  0
ARC
  5
C91
330
A02
100
AcDbEntity
  8
Facebinder
100
AcDbCircle
 10
15.8811
 20
-33.8343
 30
1.59694
 40
0.5
100
AcDbArc
 50
0
 51
90
  0
LINE
  5
C92
330
A02
100
AcDbEntity
  8
Facebinder
100
AcDbLine
 10
16.3811
 20
-33.8343
 30
1.59694
 11
16.3811
 21
-46.8336
 31
1.59694
  0
ARC
  5
C93
330
A02
100
AcDbEntity
  8
Facebinder
100
AcDbCircle
 10
15.8811
 20
-46.8336
 30
1.59694
 40
0.5
100
AcDbArc
 50
-90
 51
0
  0
LINE
  5
C94
330
A02
100
AcDbEntity
  8
Facebinder
100
AcDbLine
 10
306.394
 20
-47.3336
 30
1.59694
 11
293.394
 21
-47.3336
 31
1.59694
  0
ARC
  5
C95
330
A02
100
AcDbEntity
  8
Facebinder
100
AcDbCircle
 10
293.394
 20
-46.8336
 30
1.59694
 40
0.5
100
AcDbArc
 50
180
 51
-90
  0
LINE
  5
C96
330
A02
100
AcDbEntity
  8
Facebinder
100
AcDbLine
 10
292.894
 20
-46.8336
 30
1.59694
 11
292.894
 21
-33.8343
 31
1.59694
  0
ARC
  5
C97
330
A02
100
AcDbEntity
  8
Facebinder
100
AcDbCircle
 10
293.394
 20
-33.8343
 30
1.59694
 40
0.5
100
AcDbArc
 50
90
 51
180
  0
LINE
  5
C98
330
A02
100
AcDbEntity
  8
Facebinder
100
AcDbLine
 10
293.394
 20
-33.3343
 30
1.59694
 11
306.394
 21
-33.3343
 31
1.59694
  0
ARC
  5
C99
330
A02
100
AcDbEntity
  8
Facebinder
100
AcDbCircle
 10
306.394
 20
-33.8343
 30
1.59694
 40
0.5
100
AcDbArc
 50
0
 51
90
  0
LINE
  5
C9A
330
A02
100
AcDbEntity
  8
Facebinder
100
AcDbLine
 10
306.894
 20
-33.8343
 30
1.59694
 11
306.894
 21
-46.8336
 31
1.59694
  0
ARC
  5
C9B
330
A02
100
AcDbEntity
  8
Facebinder
100
AcDbCircle
 10
306.394
 20
-46.8336
 30
1.59694
 40
0.5
100
AcDbArc
 50
-90
 51
0
  0
CIRCLE
  5
C9C
330
A02
100
AcDbEntity
  8
Facebinder
100
AcDbCircle
 10
171.449
 20
-115.072
 40
2.2
  0
LINE
  5
C9D
330
A02
100
AcDbEntity
  8
Facebinder
100
AcDbLine
 10
178.594
 20
-103.984
 30
1.59694
 11
178.594
 21
-90.9844
 31
1.59694
  0
ARC
  5
C9E
330
A02
100
AcDbEntity
  8
Facebinder
100
AcDbCircle
 10
179.094
 20
-90.9844
 30
1.59694
 40
0.5
100
AcDbArc
 50
90
 51
180
  0
LINE
  5
C9F
330
A02
100
AcDbEntity
  8
Facebinder
100
AcDbLine
 10
179.094
 20
-90.4844
 30
1.59694
 11
192.094
 21
-90.4844
 31
1.59694
  0
ARC
  5
CA0
330
A02
100
AcDbEntity
  8
Facebinder
100
AcDbCircle
 10
192.094
 20
-90.9844
 30
1.59694
 40
0.5
100
AcDbArc
 50
0
 51
90
  0
LINE
  5
CA1
330
A02
100
AcDbEntity
  8
Facebinder
100
AcDbLine
 10
192.594
 20
-90.9844
 30
1.59694
 11
192.594
 21
-103.984
 31
1.59694
  0
ARC
  5
CA2
330
A02
100
AcDbEntity
  8
Facebinder
100
AcDbCircle
 10
192.094
 20
-103.984
 30
1.59694
 40
0.5
100
AcDbArc
 50
-90
 51
0
  0
LINE
  5
CA3
330
A02
100
AcDbEntity
  8
Facebinder
100
AcDbLine
 10
192.094
 20
-104.484
 30
1.59694
 11
179.094
 21
-104.484
 31
1.59694
  0
ARC
  5
CA4
330
A02
100
AcDbEntity
  8
Facebinder
100
AcDbCircle
 10
179.094
 20
-103.984
 30
1.59694
 40
0.5
100
AcDbArc
 50
180
 51
-90
  0
LINE
  5
CA5
330
A02
100
AcDbEntity
  8
Facebinder
100
AcDbLine
 10
159.544
 20
-103.984
 30
1.59694
 11
159.544
 21
-90.9844
 31
1.59694
  0
ARC
  5
CA6
330
A02
100
AcDbEntity
  8
Facebinder
100
AcDbCircle
 10
160.044
 20
-90.9844
 30
1.59694
 40
0.5
100
AcDbArc
 50
90
 51
180
  0
LINE
  5
CA7
330
A02
100
AcDbEntity
  8
Facebinder
100
AcDbLine
 10
160.044
 20
-90.4844
 30
1.59694
 11
173.044
 21
-90.4844
 31
1.59694
  0
ARC
  5
CA8
330
A02
100
AcDbEntity
  8
Facebinder
100
AcDbCircle
 10
173.044
 20
-90.9844
 30
1.59694
 40
0.5
100
AcDbArc
 50
0
 51
90
  0
LINE
  5
CA9
330
A02
100
AcDbEntity
  8
Facebinder
100
AcDbLine
 10
173.544
 20
-90.9844
 30
1.59694
 11
173.544
 21
-103.984
 31
1.59694
  0
ARC
  5
CAA
330
A02
100
AcDbEntity
  8
Facebinder
100
AcDbCircle
 10
173.044
 20
-103.984
 30
1.59694
 40
0.5
100
AcDbArc
 50
-90
 51
0
  0
LINE
  5
CAB
330
A02
100
AcDbEntity
  8
Facebinder
100
AcDbLine
 10
173.044
 20
-104.484
 30
1.59694
 11
160.044
 21
-104.484
 31
1.59694
  0
ARC
  5
CAC
330
A02
100
AcDbEntity
  8
Facebinder
100
AcDbCircle
 10
160.044
 20
-103.984
 30
1.59694
 40
0.5
100
AcDbArc
 50
180
 51
-90
  0
LINE
  5
CAD
330
A02
100
AcDbEntity
  8
Facebinder
100
AcDbLine
 10
140.494
 20
-103.984
 30
1.59694
 11
140.494
 21
-90.9844
 31
1.59694
  0
ARC
  5
CAE
330
A02
100
AcDbEntity
  8
Facebinder
100
AcDbCircle
 10
140.994
 20
-90.9844
 30
1.59694
 40
0.5
100
AcDbArc
 50
90
 51
180
  0
LINE
  5
CAF
330
A02
100
AcDbEntity
  8
Facebinder
100
AcDbLine
 10
140.994
 20
-90.4844
 30
1.59694
 11
153.994
 21
-90.4844
 31
1.59694
  0
ARC
  5
CB0
330
A02
100
AcDbEntity
  8
Facebinder
100
AcDbCircle
 10
153.994
 20
-90.9844
 30
1.59694
 40
0.5
100
AcDbArc
 50
0
 51
90
  0
LINE
  5
CB1
330
A02
100
AcDbEntity
  8
Facebinder
100
AcDbLine
 10
154.494
 20
-90.9844
 30
1.59694
 11
154.494
 21
-103.984
 31
1.59694
  0
ARC
  5
CB2
330
A02
100
AcDbEntity
  8
Facebinder
100
AcDbCircle
 10
153.994
 20
-103.984
 30
1.59694
 40
0.5
100
AcDbArc
 50
-90
 51
0
  0
LINE
  5
CB3
330
A02
100
AcDbEntity
  8
Facebinder
100
AcDbLine
 10
153.994
 20
-104.484
 30
1.59694
 11
140.994
 21
-104.484
 31
1.59694
  0
ARC
  5
CB4
330
A02
100
AcDbEntity
  8
Facebinder
100
AcDbCircle
 10
140.994
 20
-103.984
 30
1.59694
 40
0.5
100
AcDbArc
 50
180
 51
-90
  0
LINE
  5
CB5
330
A02
100
AcDbEntity
  8
Facebinder
100
AcDbLine
 10
121.444
 20
-103.984
 30
1.59694
 11
121.444
 21
-90.9844
 31
1.59694
  0
ARC
  5
CB6
330
A02
100
AcDbEntity
  8
Facebinder
100
AcDbCircle
 10
121.944
 20
-90.9844
 30
1.59694
 40
0.5
100
AcDbArc
 50
90
 51
180
  0
LINE
  5
CB7
330
A02
100
AcDbEntity
  8
Facebinder
100
AcDbLine
 10
121.944
 20
-90.4844
 30
1.59694
 11
134.944
 21
-90.4844
 31
1.59694
  0
ARC
  5
CB8
330
A02
100
AcDbEntity
  8
Facebinder
100
AcDbCircle
 10
134.944
 20
-90.9844
 30
1.59694
 40
0.5
100
AcDbArc
 50
0
 51
90
  0
LINE
  5
CB9
330
A02
100
AcDbEntity
  8
Facebinder
100
AcDbLine
 10
135.444
 20
-90.9844
 30
1.59694
 11
135.444
 21
-103.984
 31
1.59694
  0
ARC
  5
CBA
330
A02
100
AcDbEntity
  8
Facebinder
100
AcDbCircle
 10
134.944
 20
-103.984
 30
1.59694
 40
0.5
100
AcDbArc
 50
-90
 51
0
  0
LINE
  5
CBB
330
A02
100
AcDbEntity
  8
Facebinder
100
AcDbLine
 10
134.944
 20
-104.484
 30
1.59694
 11
121.944
 21
-104.484
 31
1.59694
  0
ARC
  5
CBC
330
A02
100
AcDbEntity
  8
Facebinder
100
AcDbCircle
 10
121.944
 20
-103.984
 30
1.59694
 40
0.5
100
AcDbArc
 50
180
 51
-90
  0
LINE
  5
CBD
330
A02
100
AcDbEntity
  8
Facebinder
100
AcDbLine
 10
102.394
 20
-103.984
 30
1.59694
 11
102.394
 21
-90.9844
 31
1.59694
  0
ARC
  5
CBE
330
A02
100
AcDbEntity
  8
Facebinder
100
AcDbCircle
 10
102.894
 20
-90.9844
 30
1.59694
 40
0.5
100
AcDbArc
 50
90
 51
180
  0
LINE
  5
CBF
330
A02
100
AcDbEntity
  8
Facebinder
100
AcDbLine
 10
102.894
 20
-90.4844
 30
1.59694
 11
115.894
 21
-90.4844
 31
1.59694
  0
ARC
  5
CC0
330
A02
100
AcDbEntity
  8
Facebinder
100
AcDbCircle
 10
115.894
 20
-90.9844
 30
1.59694
 40
0.5
100
AcDbArc
 50
0
 51
90
  0
LINE
  5
CC1
330
A02
100
AcDbEntity
  8
Facebinder
100
AcDbLine
 10
116.394
 20
-90.9844
 30
1.59694
 11
116.394
 21
-103.984
 31
1.59694
  0
ARC
  5
CC2
330
A02
100
AcDbEntity
  8
Facebinder
100
AcDbCircle
 10
115.894
 20
-103.984
 30
1.59694
 40
0.5
100
AcDbArc
 50
-90
 51
0
  0
LINE
  5
CC3
330
A02
100
AcDbEntity
  8
Facebinder
100
AcDbLine
 10
115.894
 20
-104.484
 30
1.59694
 11
102.894
 21
-104.484
 31
1.59694
  0
ARC
  5
CC4
330
A02
100
AcDbEntity
  8
Facebinder
100
AcDbCircle
 10
102.894
 20
-103.984
 30
1.59694
 40
0.5
100
AcDbArc
 50
180
 51
-90
  0
LINE
  5
CC5
330
A02
100
AcDbEntity
  8
Facebinder
100
AcDbLine
 10
83.3441
 20
-103.984
 30
1.59694
 11
83.3441
 21
-90.9844
 31
1.59694
  0
ARC
  5
CC6
330
A02
100
AcDbEntity
  8
Facebinder
100
AcDbCircle
 10
83.8441
 20
-90.9844
 30
1.59694
 40
0.5
100
AcDbArc
 50
90
 51
180
  0
LINE
  5
CC7
330
A02
100
AcDbEntity
  8
Facebinder
100
AcDbLine
 10
83.8441
 20
-90.4844
 30
1.59694
 11
96.8434
 21
-90.4844
 31
1.59694
  0
ARC
  5
CC8
330
A02
100
AcDbEntity
  8
Facebinder
100
AcDbCircle
 10
96.8434
 20
-90.9844
 30
1.59694
 40
0.5
100
AcDbArc
 50
0
 51
90
  0
LINE
  5
CC9
330
A02
100
AcDbEntity
  8
Facebinder
100
AcDbLine
 10
97.3434
 20
-90.9844
 30
1.59694
 11
97.3434
 21
-103.984
 31
1.59694
  0
ARC
  5
CCA
330
A02
100
AcDbEntity
  8
Facebinder
100
AcDbCircle
 10
96.8434
 20
-103.984
 30
1.59694
 40
0.5
100
AcDbArc
 50
-90
 51
0
  0
LINE
  5
CCB
330
A02
100
AcDbEntity
  8
Facebinder
100
AcDbLine
 10
96.8434
 20
-104.484
 30
1.59694
 11
83.8441
 21
-104.484
 31
1.59694
  0
ARC
  5
CCC
330
A02
100
AcDbEntity
  8
Facebinder
100
AcDbCircle
 10
83.8441
 20
-103.984
 30
1.59694
 40
0.5
100
AcDbArc
 50
180
 51
-90
  0
LINE
  5
CCD
330
A02
100
AcDbEntity
  8
Facebinder
100
AcDbLine
 10
64.2941
 20
-103.984
 30
1.59694
 11
64.2941
 21
-90.9844
 31
1.59694
  0
ARC
  5
CCE
330
A02
100
AcDbEntity
  8
Facebinder
100
AcDbCircle
 10
64.7941
 20
-90.9844
 30
1.59694
 40
0.5
100
AcDbArc
 50
90
 51
180
  0
LINE
  5
CCF
330
A02
100
AcDbEntity
  8
Facebinder
100
AcDbLine
 10
64.7941
 20
-90.4844
 30
1.59694
 11
77.7934
 21
-90.4844
 31
1.59694
  0
ARC
  5
CD0
330
A02
100
AcDbEntity
  8
Facebinder
100
AcDbCircle
 10
77.7934
 20
-90.9844
 30
1.59694
 40
0.5
100
AcDbArc
 50
0
 51
90
  0
LINE
  5
CD1
330
A02
100
AcDbEntity
  8
Facebinder
100
AcDbLine
 10
78.2934
 20
-90.9844
 30
1.59694
 11
78.2934
 21
-103.984
 31
1.59694
  0
ARC
  5
CD2
330
A02
100
AcDbEntity
  8
Facebinder
100
AcDbCircle
 10
77.7934
 20
-103.984
 30
1.59694
 40
0.5
100
AcDbArc
 50
-90
 51
0
  0
LINE
  5
CD3
330
A02
100
AcDbEntity
  8
Facebinder
100
AcDbLine
 10
77.7934
 20
-104.484
 30
1.59694
 11
64.7941
 21
-104.484
 31
1.59694
  0
ARC
  5
CD4
330
A02
100
AcDbEntity
  8
Facebinder
100
AcDbCircle
 10
64.7941
 20
-103.984
 30
1.59694
 40
0.5
100
AcDbArc
 50
180
 51
-90
  0
LINE
  5
CD5
330
A02
100
AcDbEntity
  8
Facebinder
100
AcDbLine
 10
58.7434
 20
-104.484
 30
1.59694
 11
45.7441
 21
-104.484
 31
1.59694
  0
ARC
  5
CD6
330
A02
100
AcDbEntity
  8
Facebinder
100
AcDbCircle
 10
45.7441
 20
-103.984
 30
1.59694
 40
0.5
100
AcDbArc
 50
180
 51
-90
  0
LINE
  5
CD7
330
A02
100
AcDbEntity
  8
Facebinder
100
AcDbLine
 10
45.2441
 20
-103.984
 30
1.59694
 11
45.2441
 21
-90.9844
 31
1.59694
  0
ARC
  5
CD8
330
A02
100
AcDbEntity
  8
Facebinder
100
AcDbCircle
 10
45.7441
 20
-90.9844
 30
1.59694
 40
0.5
100
AcDbArc
 50
90
 51
180
  0
LINE
  5
CD9
330
A02
100
AcDbEntity
  8
Facebinder
100
AcDbLine
 10
45.7441
 20
-90.4844
 30
1.59694
 11
58.7434
 21
-90.4844
 31
1.59694
  0
ARC
  5
CDA
330
A02
100
AcDbEntity
  8
Facebinder
100
AcDbCircle
 10
58.7434
 20
-90.9844
 30
1.59694
 40
0.5
100
AcDbArc
 50
0
 51
90
  0
LINE
  5
CDB
330
A02
100
AcDbEntity
  8
Facebinder
100
AcDbLine
 10
59.2434
 20
-90.9844
 30
1.59694
 11
59.2434
 21
-103.984
 31
1.59694
  0
ARC
  5
CDC
330
A02
100
AcDbEntity
  8
Facebinder
100
AcDbCircle
 10
58.7434
 20
-103.984
 30
1.59694
 40
0.5
100
AcDbArc
 50
-90
 51
0
  0
CIRCLE
  5
CDD
330
A02
100
AcDbEntity
  8
Facebinder
100
AcDbCircle
 10
24.8691
 20
-116.534
 40
2.2
  0
CIRCLE
  5
CDE
330
A02
100
AcDbEntity
  8
Facebinder
100
AcDbCircle
 10
43.7143
 20
-128.732
 40
1.1
  0
LINE
  5
CDF
330
A02
100
AcDbEntity
  8
Facebinder
100
AcDbLine
 10
52.3879
 20
-123.033
 30
1.59694
 11
52.3879
 21
-110.034
 31
1.59694
  0
ARC
  5
CE0
330
A02
100
AcDbEntity
  8
Facebinder
100
AcDbCircle
 10
52.8879
 20
-110.034
 30
1.59694
 40
0.5
100
AcDbArc
 50
90
 51
180
  0
LINE
  5
CE1
330
A02
100
AcDbEntity
  8
Facebinder
100
AcDbLine
 10
52.8879
 20
-109.534
 30
1.59694
 11
68.2688
 21
-109.534
 31
1.59694
  0
ARC
  5
CE2
330
A02
100
AcDbEntity
  8
Facebinder
100
AcDbCircle
 10
68.2688
 20
-110.034
 30
1.59694
 40
0.5
100
AcDbArc
 50
0
 51
90
  0
LINE
  5
CE3
330
A02
100
AcDbEntity
  8
Facebinder
100
AcDbLine
 10
68.7688
 20
-110.034
 30
1.59694
 11
68.7688
 21
-123.033
 31
1.59694
  0
ARC
  5
CE4
330
A02
100
AcDbEntity
  8
Facebinder
100
AcDbCircle
 10
68.2688
 20
-123.033
 30
1.59694
 40
0.5
100
AcDbArc
 50
-90
 51
0
  0
LINE
  5
CE5
330
A02
100
AcDbEntity
  8
Facebinder
100
AcDbLine
 10
68.2688
 20
-123.533
 30
1.59694
 11
52.8879
 21
-123.533
 31
1.59694
  0
ARC
  5
CE6
330
A02
100
AcDbEntity
  8
Facebinder
100
AcDbCircle
 10
52.8879
 20
-123.033
 30
1.59694
 40
0.5
100
AcDbArc
 50
180
 51
-90
  0
LINE
  5
CE7
330
A02
100
AcDbEntity
  8
Facebinder
100
AcDbLine
 10
44.4563
 20
-123.533
 30
1.59694
 11
29.0739
 21
-123.533
 31
1.59694
  0
ARC
  5
CE8
330
A02
100
AcDbEntity
  8
Facebinder
100
AcDbCircle
 10
29.0739
 20
-123.033
 30
1.59694
 40
0.5
100
AcDbArc
 50
180
 51
-90
  0
LINE
  5
CE9
330
A02
100
AcDbEntity
  8
Facebinder
100
AcDbLine
 10
28.5739
 20
-110.034
 30
1.59694
 11
28.5739
 21
-123.033
 31
1.59694
  0
ARC
  5
CEA
330
A02
100
AcDbEntity
  8
Facebinder
100
AcDbCircle
 10
29.0739
 20
-110.034
 30
1.59694
 40
0.5
100
AcDbArc
 50
90
 51
180
  0
LINE
  5
CEB
330
A02
100
AcDbEntity
  8
Facebinder
100
AcDbLine
 10
29.0739
 20
-109.534
 30
1.59694
 11
44.4563
 21
-109.534
 31
1.59694
  0
ARC
  5
CEC
330
A02
100
AcDbEntity
  8
Facebinder
100
AcDbCircle
 10
44.4563
 20
-110.034
 30
1.59694
 40
0.5
100
AcDbArc
 50
0
 51
90
  0
LINE
  5
CED
330
A02
100
AcDbEntity
  8
Facebinder
100
AcDbLine
 10
44.9563
 20
-110.034
 30
1.59694
 11
44.9563
 21
-123.033
 31
1.59694
  0
ARC
  5
CEE
330
A02
100
AcDbEntity
  8
Facebinder
100
AcDbCircle
 10
44.4563
 20
-123.033
 30
1.59694
 40
0.5
100
AcDbArc
 50
-90
 51
0
  0
LINE
  5
CEF
330
A02
100
AcDbEntity
  8
Facebinder
100
AcDbLine
 10
149.231
 20
-123.534
 30
1.59694
 11
124.324
 21
-123.534
 31
1.59694
  0
ARC
  5
CF0
330
A02
100
AcDbEntity
  8
Facebinder
100
AcDbCircle
 10
124.324
 20
-123.034
 30
1.59694
 40
0.5
100
AcDbArc
 50
180
 51
-90
  0
LINE
  5
CF1
330
A02
100
AcDbEntity
  8
Facebinder
100
AcDbLine
 10
123.824
 20
-123.034
 30
1.59694
 11
123.824
 21
-110.034
 31
1.59694
  0
ARC
  5
CF2
330
A02
100
AcDbEntity
  8
Facebinder
100
AcDbCircle
 10
124.324
 20
-110.034
 30
1.59694
 40
0.5
100
AcDbArc
 50
90
 51
180
  0
LINE
  5
CF3
330
A02
100
AcDbEntity
  8
Facebinder
100
AcDbLine
 10
124.324
 20
-109.534
 30
1.59694
 11
149.231
 21
-109.534
 31
1.59694
  0
ARC
  5
CF4
330
A02
100
AcDbEntity
  8
Facebinder
100
AcDbCircle
 10
149.231
 20
-110.034
 30
1.59694
 40
0.5
100
AcDbArc
 50
0
 51
90
  0
LINE
  5
CF5
330
A02
100
AcDbEntity
  8
Facebinder
100
AcDbLine
 10
149.731
 20
-110.034
 30
1.59694
 11
149.731
 21
-123.034
 31
1.59694
  0
ARC
  5
CF6
330
A02
100
AcDbEntity
  8
Facebinder
100
AcDbCircle
 10
149.231
 20
-123.034
 30
1.59694
 40
0.5
100
AcDbArc
 50
-90
 51
0
  0
LINE
  5
CF7
330
A02
100
AcDbEntity
  8
Facebinder
100
AcDbLine
 10
216.694
 20
-123.033
 30
1.59694
 11
216.694
 21
-110.034
 31
1.59694
  0
ARC
  5
CF8
330
A02
100
AcDbEntity
  8
Facebinder
100
AcDbCircle
 10
217.194
 20
-110.034
 30
1.59694
 40
0.5
100
AcDbArc
 50
90
 51
180
  0
LINE
  5
CF9
330
A02
100
AcDbEntity
  8
Facebinder
100
AcDbLine
 10
217.194
 20
-109.534
 30
1.59694
 11
232.575
 21
-109.534
 31
1.59694
  0
ARC
  5
CFA
330
A02
100
AcDbEntity
  8
Facebinder
100
AcDbCircle
 10
232.575
 20
-110.034
 30
1.59694
 40
0.5
100
AcDbArc
 50
0
 51
90
  0
LINE
  5
CFB
330
A02
100
AcDbEntity
  8
Facebinder
100
AcDbLine
 10
233.075
 20
-110.034
 30
1.59694
 11
233.075
 21
-123.033
 31
1.59694
  0
ARC
  5
CFC
330
A02
100
AcDbEntity
  8
Facebinder
100
AcDbCircle
 10
232.575
 20
-123.033
 30
1.59694
 40
0.5
100
AcDbArc
 50
-90
 51
0
  0
LINE
  5
CFD
330
A02
100
AcDbEntity
  8
Facebinder
100
AcDbLine
 10
232.575
 20
-123.533
 30
1.59694
 11
217.194
 21
-123.533
 31
1.59694
  0
ARC
  5
CFE
330
A02
100
AcDbEntity
  8
Facebinder
100
AcDbCircle
 10
217.194
 20
-123.033
 30
1.59694
 40
0.5
100
AcDbArc
 50
180
 51
-90
  0
LINE
  5
CFF
330
A02
100
AcDbEntity
  8
Facebinder
100
AcDbLine
 10
330.994
 20
-123.034
 30
1.59694
 11
330.994
 21
-110.034
 31
1.59694
  0
ARC
  5
D00
330
A02
100
AcDbEntity
  8
Facebinder
100
AcDbCircle
 10
331.494
 20
-110.034
 30
1.59694
 40
0.5
100
AcDbArc
 50
90
 51
180
  0
LINE
  5
D01
330
A02
100
AcDbEntity
  8
Facebinder
100
AcDbLine
 10
331.494
 20
-109.534
 30
1.59694
 11
344.494
 21
-109.534
 31
1.59694
  0
ARC
  5
D02
330
A02
100
AcDbEntity
  8
Facebinder
100
AcDbCircle
 10
344.494
 20
-110.034
 30
1.59694
 40
0.5
100
AcDbArc
 50
0
 51
90
  0
LINE
  5
D03
330
A02
100
AcDbEntity
  8
Facebinder
100
AcDbLine
 10
344.994
 20
-110.034
 30
1.59694
 11
344.994
 21
-123.034
 31
1.59694
  0
ARC
  5
D04
330
A02
100
AcDbEntity
  8
Facebinder
100
AcDbCircle
 10
344.494
 20
-123.034
 30
1.59694
 40
0.5
100
AcDbArc
 50
-90
 51
0
  0
LINE
  5
D05
330
A02
100
AcDbEntity
  8
Facebinder
100
AcDbLine
 10
344.494
 20
-123.534
 30
1.59694
 11
331.494
 21
-123.534
 31
1.59694
  0
ARC
  5
D06
330
A02
100
AcDbEntity
  8
Facebinder
100
AcDbCircle
 10
331.494
 20
-123.034
 30
1.59694
 40
0.5
100
AcDbArc
 50
180
 51
-90
  0
LINE
  5
D07
330
A02
100
AcDbEntity
  8
Facebinder
100
AcDbLine
 10
256.387
 20
-123.533
 30
1.59694
 11
241.006
 21
-123.533
 31
1.59694
  0
ARC
  5
D08
330
A02
100
AcDbEntity
  8
Facebinder
100
AcDbCircle
 10
241.006
 20
-123.033
 30
1.59694
 40
0.5
100
AcDbArc
 50
180
 51
-90
  0
LINE
  5
D09
330
A02
100
AcDbEntity
  8
Facebinder
100
AcDbLine
 10
240.506
 20
-123.033
 30
1.59694
 11
240.506
 21
-110.034
 31
1.59694
  0
ARC
  5
D0A
330
A02
100
AcDbEntity
  8
Facebinder
100
AcDbCircle
 10
241.006
 20
-110.034
 30
1.59694
 40
0.5
100
AcDbArc
 50
90
 51
180
  0
LINE
  5
D0B
330
A02
100
AcDbEntity
  8
Facebinder
100
AcDbLine
 10
241.006
 20
-109.534
 30
1.59694
 11
256.387
 21
-109.534
 31
1.59694
  0
ARC
  5
D0C
330
A02
100
AcDbEntity
  8
Facebinder
100
AcDbCircle
 10
256.387
 20
-110.034
 30
1.59694
 40
0.5
100
AcDbArc
 50
0
 51
90
  0
LINE
  5
D0D
330
A02
100
AcDbEntity
  8
Facebinder
100
AcDbLine
 10
256.887
 20
-110.034
 30
1.59694
 11
256.887
 21
-123.033
 31
1.59694
  0
ARC
  5
D0E
330
A02
100
AcDbEntity
  8
Facebinder
100
AcDbCircle
 10
256.387
 20
-123.033
 30
1.59694
 40
0.5
100
AcDbArc
 50
-90
 51
0
  0
LINE
  5
D0F
330
A02
100
AcDbEntity
  8
Facebinder
100
AcDbLine
 10
306.894
 20
-110.034
 30
1.59694
 11
306.894
 21
-123.034
 31
1.59694
  0
ARC
  5
D10
330
A02
100
AcDbEntity
  8
Facebinder
100
AcDbCircle
 10
306.394
 20
-123.034
 30
1.59694
 40
0.5
100
AcDbArc
 50
-90
 51
0
  0
LINE
  5
D11
330
A02
100
AcDbEntity
  8
Facebinder
100
AcDbLine
 10
306.394
 20
-123.534
 30
1.59694
 11
293.394
 21
-123.534
 31
1.59694
  0
ARC
  5
D12
330
A02
100
AcDbEntity
  8
Facebinder
100
AcDbCircle
 10
293.394
 20
-123.034
 30
1.59694
 40
0.5
100
AcDbArc
 50
180
 51
-90
  0
LINE
  5
D13
330
A02
100
AcDbEntity
  8
Facebinder
100
AcDbLine
 10
292.894
 20
-123.034
 30
1.59694
 11
292.894
 21
-110.034
 31
1.59694
  0
ARC
  5
D14
330
A02
100
AcDbEntity
  8
Facebinder
100
AcDbCircle
 10
293.394
 20
-110.034
 30
1.59694
 40
0.5
100
AcDbArc
 50
90
 51
180
  0
LINE
  5
D15
330
A02
100
AcDbEntity
  8
Facebinder
100
AcDbLine
 10
293.394
 20
-109.534
 30
1.59694
 11
306.394
 21
-109.534
 31
1.59694
  0
ARC
  5
D16
330
A02
100
AcDbEntity
  8
Facebinder
100
AcDbCircle
 10
306.394
 20
-110.034
 30
1.59694
 40
0.5
100
AcDbArc
 50
0
 51
90
  0
LINE
  5
D17
330
A02
100
AcDbEntity
  8
Facebinder
100
AcDbLine
 10
325.944
 20
-110.034
 30
1.59694
 11
325.944
 21
-123.034
 31
1.59694
  0
ARC
  5
D18
330
A02
100
AcDbEntity
  8
Facebinder
100
AcDbCircle
 10
325.444
 20
-123.034
 30
1.59694
 40
0.5
100
AcDbArc
 50
-90
 51
1.62844e-12
  0
LINE
  5
D19
330
A02
100
AcDbEntity
  8
Facebinder
100
AcDbLine
 10
325.444
 20
-123.534
 30
1.59694
 11
312.444
 21
-123.534
 31
1.59694
  0
ARC
  5
D1A
330
A02
100
AcDbEntity
  8
Facebinder
100
AcDbCircle
 10
312.444
 20
-123.034
 30
1.59694
 40
0.5
100
AcDbArc
 50
180
 51
-90
  0
LINE
  5
D1B
330
A02
100
AcDbEntity
  8
Facebinder
100
AcDbLine
 10
311.944
 20
-123.034
 30
1.59694
 11
311.944
 21
-110.034
 31
1.59694
  0
ARC
  5
D1C
330
A02
100
AcDbEntity
  8
Facebinder
100
AcDbCircle
 10
312.444
 20
-110.034
 30
1.59694
 40
0.5
100
AcDbArc
 50
90
 51
180
  0
LINE
  5
D1D
330
A02
100
AcDbEntity
  8
Facebinder
100
AcDbLine
 10
312.444
 20
-109.534
 30
1.59694
 11
325.444
 21
-109.534
 31
1.59694
  0
ARC
  5
D1E
330
A02
100
AcDbEntity
  8
Facebinder
100
AcDbCircle
 10
325.444
 20
-110.034
 30
1.59694
 40
0.5
100
AcDbArc
 50
0
 51
90
  0
ARC
  5
D1F
330
A02
100
AcDbEntity
  8
Facebinder
100
AcDbCircle
 10
256.4
 20
-86.1846
 30
1.59694
 40
0.5
100
AcDbArc
 50
90
 51
180
  0
LINE
  5
D20
330
A02
100
AcDbEntity
  8
Facebinder
100
AcDbLine
 10
255.9
 20
-86.9346
 30
1.59694
 11
255.9
 21
-86.1846
 31
1.59694
  0
ARC
  5
D21
330
A02
100
AcDbEntity
  8
Facebinder
100
AcDbCircle
 10
255.4
 20
-86.9346
 30
1.59694
 40
0.5
100
AcDbArc
 50
-90
 51
0
  0
LINE
  5
D22
330
A02
100
AcDbEntity
  8
Facebinder
100
AcDbLine
 10
255.4
 20
-87.4346
 30
1.59694
 11
248.899
 21
-87.4346
 31
1.59694
  0
ARC
  5
D23
330
A02
100
AcDbEntity
  8
Facebinder
100
AcDbCircle
 10
248.899
 20
-86.9346
 30
1.59694
 40
0.5
100
AcDbArc
 50
180
 51
-90
  0
LINE
  5
D24
330
A02
100
AcDbEntity
  8
Facebinder
100
AcDbLine
 10
248.399
 20
-86.9346
 30
1.59694
 11
248.399
 21
-68.5843
 31
1.59694
  0
ARC
  5
D25
330
A02
100
AcDbEntity
  8
Facebinder
100
AcDbCircle
 10
248.899
 20
-68.5843
 30
1.59694
 40
0.5
100
AcDbArc
 50
90
 51
180
  0
LINE
  5
D26
330
A02
100
AcDbEntity
  8
Facebinder
100
AcDbLine
 10
248.899
 20
-68.0843
 30
1.59694
 11
279.55
 21
-68.0843
 31
1.59694
  0
ARC
  5
D27
330
A02
100
AcDbEntity
  8
Facebinder
100
AcDbCircle
 10
279.55
 20
-68.5843
 30
1.59694
 40
0.5
100
AcDbArc
 50
0
 51
90
  0
LINE
  5
D28
330
A02
100
AcDbEntity
  8
Facebinder
100
AcDbLine
 10
280.05
 20
-68.5843
 30
1.59694
 11
280.05
 21
-86.9346
 31
1.59694
  0
ARC
  5
D29
330
A02
100
AcDbEntity
  8
Facebinder
100
AcDbCircle
 10
279.55
 20
-86.9346
 30
1.59694
 40
0.5
100
AcDbArc
 50
-90
 51
0
  0
LINE
  5
D2A
330
A02
100
AcDbEntity
  8
Facebinder
100
AcDbLine
 10
279.55
 20
-87.4346
 30
1.59694
 11
272.949
 21
-87.4346
 31
1.59694
  0
ARC
  5
D2B
330
A02
100
AcDbEntity
  8
Facebinder
100
AcDbCircle
 10
272.949
 20
-86.9346
 30
1.59694
 40
0.5
100
AcDbArc
 50
-180
 51
-90
  0
LINE
  5
D2C
330
A02
100
AcDbEntity
  8
Facebinder
100
AcDbLine
 10
272.449
 20
-86.9346
 30
1.59694
 11
272.449
 21
-86.1846
 31
1.59694
  0
ARC
  5
D2D
330
A02
100
AcDbEntity
  8
Facebinder
100
AcDbCircle
 10
271.949
 20
-86.1846
 30
1.59694
 40
0.5
100
AcDbArc
 50
7.32938e-07
 51
90
  0
LINE
  5
D2E
330
A02
100
AcDbEntity
  8
Facebinder
100
AcDbLine
 10
271.949
 20
-85.6846
 30
1.59694
 11
256.4
 21
-85.6846
 31
1.59694
  0
ARC
  5
D2F
330
A02
100
AcDbEntity
  8
Facebinder
100
AcDbCircle
 10
29.0628
 20
-89.9844
 30
1.59694
 40
0.5
100
AcDbArc
 50
-90
 51
0
  0
LINE
  5
D30
330
A02
100
AcDbEntity
  8
Facebinder
100
AcDbLine
 10
29.5628
 20
-89.9844
 30
1.59694
 11
29.5628
 21
-87.9844
 31
1.59694
  0
ARC
  5
D31
330
A02
100
AcDbEntity
  8
Facebinder
100
AcDbCircle
 10
30.0628
 20
-87.9844
 30
1.59694
 40
0.5
100
AcDbArc
 50
90
 51
180
  0
LINE
  5
D32
330
A02
100
AcDbEntity
  8
Facebinder
100
AcDbLine
 10
36.5623
 20
-87.4844
 30
1.59694
 11
30.0628
 21
-87.4844
 31
1.59694
  0
ARC
  5
D33
330
A02
100
AcDbEntity
  8
Facebinder
100
AcDbCircle
 10
36.5623
 20
-87.9844
 30
1.59694
 40
0.5
100
AcDbArc
 50
0
 51
90
  0
LINE
  5
D34
330
A02
100
AcDbEntity
  8
Facebinder
100
AcDbLine
 10
37.0623
 20
-106.985
 30
1.59694
 11
37.0623
 21
-87.9844
 31
1.59694
  0
ARC
  5
D35
330
A02
100
AcDbEntity
  8
Facebinder
100
AcDbCircle
 10
36.5623
 20
-106.985
 30
1.59694
 40
0.5
100
AcDbArc
 50
-90
 51
0
  0
LINE
  5
D36
330
A02
100
AcDbEntity
  8
Facebinder
100
AcDbLine
 10
36.5623
 20
-107.485
 30
1.59694
 11
6.01265
 21
-107.485
 31
1.59694
  0
ARC
  5
D37
330
A02
100
AcDbEntity
  8
Facebinder
100
AcDbCircle
 10
6.01265
 20
-106.985
 30
1.59694
 40
0.5
100
AcDbArc
 50
180
 51
-90
  0
LINE
  5
D38
330
A02
100
AcDbEntity
  8
Facebinder
100
AcDbLine
 10
5.51265
 20
-106.985
 30
1.59694
 11
5.51265
 21
-87.9844
 31
1.59694
  0
ARC
  5
D39
330
A02
100
AcDbEntity
  8
Facebinder
100
AcDbCircle
 10
6.01265
 20
-87.9844
 30
1.59694
 40
0.5
100
AcDbArc
 50
90
 51
180
  0
LINE
  5
D3A
330
A02
100
AcDbEntity
  8
Facebinder
100
AcDbLine
 10
12.5123
 20
-87.4844
 30
1.59694
 11
6.01265
 21
-87.4844
 31
1.59694
  0
ARC
  5
D3B
330
A02
100
AcDbEntity
  8
Facebinder
100
AcDbCircle
 10
12.5123
 20
-87.9844
 30
1.59694
 40
0.5
100
AcDbArc
 50
0
 51
90
  0
LINE
  5
D3C
330
A02
100
AcDbEntity
  8
Facebinder
100
AcDbLine
 10
13.0123
 20
-89.9844
 30
1.59694
 11
13.0123
 21
-87.9844
 31
1.59694
  0
ARC
  5
D3D
330
A02
100
AcDbEntity
  8
Facebinder
100
AcDbCircle
 10
13.5123
 20
-89.9844
 30
1.59694
 40
0.5
100
AcDbArc
 50
180
 51
-90
  0
LINE
  5
D3E
330
A02
100
AcDbEntity
  8
Facebinder
100
AcDbLine
 10
29.0628
 20
-90.4844
 30
1.59694
 11
13.5123
 21
-90.4844
 31
1.59694
  0
ARC
  5
D3F
330
A02
100
AcDbEntity
  8
Facebinder
100
AcDbCircle
 10
267.188
 20
-89.9844
 30
1.59694
 40
0.5
100
AcDbArc
 50
-90
 51
0
  0
LINE
  5
D40
330
A02
100
AcDbEntity
  8
Facebinder
100
AcDbLine
 10
267.688
 20
-89.9844
 30
1.59694
 11
267.688
 21
-88.9844
 31
1.59694
  0
ARC
  5
D41
330
A02
100
AcDbEntity
  8
Facebinder
100
AcDbCircle
 10
268.188
 20
-88.9844
 30
1.59694
 40
0.5
100
AcDbArc
 50
90
 51
180
  0
LINE
  5
D42
330
A02
100
AcDbEntity
  8
Facebinder
100
AcDbLine
 10
268.188
 20
-88.4844
 30
1.59694
 11
274.687
 21
-88.4844
 31
1.59694
  0
ARC
  5
D43
330
A02
100
AcDbEntity
  8
Facebinder
100
AcDbCircle
 10
274.687
 20
-88.9844
 30
1.59694
 40
0.5
100
AcDbArc
 50
0
 51
90
  0
LINE
  5
D44
330
A02
100
AcDbEntity
  8
Facebinder
100
AcDbLine
 10
275.187
 20
-88.9844
 30
1.59694
 11
275.187
 21
-89.9844
 31
1.59694
  0
ARC
  5
D45
330
A02
100
AcDbEntity
  8
Facebinder
100
AcDbCircle
 10
275.687
 20
-89.9844
 30
1.59694
 40
0.5
100
AcDbArc
 50
180
 51
-90
  0
LINE
  5
D46
330
A02
100
AcDbEntity
  8
Facebinder
100
AcDbLine
 10
275.687
 20
-90.4844
 30
1.59694
 11
282.581
 21
-90.4844
 31
1.59694
  0
ARC
  5
D47
330
A02
100
AcDbEntity
  8
Facebinder
100
AcDbCircle
 10
282.581
 20
-90.9844
 30
1.59694
 40
0.5
100
AcDbArc
 50
6.92924e-07
 51
90
  0
LINE
  5
D48
330
A02
100
AcDbEntity
  8
Facebinder
100
AcDbLine
 10
283.081
 20
-90.9844
 30
1.59694
 11
283.081
 21
-103.984
 31
1.59694
  0
ARC
  5
D49
330
A02
100
AcDbEntity
  8
Facebinder
100
AcDbCircle
 10
282.581
 20
-103.984
 30
1.59694
 40
0.5
100
AcDbArc
 50
-90
 51
6.92922e-07
  0
LINE
  5
D4A
330
A02
100
AcDbEntity
  8
Facebinder
100
AcDbLine
 10
282.581
 20
-104.484
 30
1.59694
 11
275.687
 21
-104.484
 31
1.59694
  0
ARC
  5
D4B
330
A02
100
AcDbEntity
  8
Facebinder
100
AcDbCircle
 10
275.687
 20
-104.984
 30
1.59694
 40
0.5
100
AcDbArc
 50
90
 51
180
  0
LINE
  5
D4C
330
A02
100
AcDbEntity
  8
Facebinder
100
AcDbLine
 10
275.187
 20
-104.984
 30
1.59694
 11
275.187
 21
-106.985
 31
1.59694
  0
ARC
  5
D4D
330
A02
100
AcDbEntity
  8
Facebinder
100
AcDbCircle
 10
274.687
 20
-106.985
 30
1.59694
 40
0.5
100
AcDbArc
 50
-90
 51
0
  0
LINE
  5
D4E
330
A02
100
AcDbEntity
  8
Facebinder
100
AcDbLine
 10
274.687
 20
-107.485
 30
1.59694
 11
244.138
 21
-107.485
 31
1.59694
  0
ARC
  5
D4F
330
A02
100
AcDbEntity
  8
Facebinder
100
AcDbCircle
 10
244.138
 20
-106.985
 30
1.59694
 40
0.5
100
AcDbArc
 50
180
 51
-90
  0
LINE
  5
D50
330
A02
100
AcDbEntity
  8
Facebinder
100
AcDbLine
 10
243.638
 20
-106.985
 30
1.59694
 11
243.638
 21
-104.973
 31
1.59694
  0
ARC
  5
D51
330
A02
100
AcDbEntity
  8
Facebinder
100
AcDbCircle
 10
243.138
 20
-104.973
 30
1.59694
 40
0.5
100
AcDbArc
 50
0
 51
81.3921
  0
ARC
  5
D52
330
A02
100
AcDbEntity
  8
Facebinder
100
AcDbCircle
 10
243.288
 20
-103.984
 30
1.59694
 40
0.5
100
AcDbArc
 50
-180
 51
-98.6079
  0
LINE
  5
D53
330
A02
100
AcDbEntity
  8
Facebinder
100
AcDbLine
 10
242.788
 20
-103.984
 30
1.59694
 11
242.788
 21
-90.9844
 31
1.59694
  0
ARC
  5
D54
330
A02
100
AcDbEntity
  8
Facebinder
100
AcDbCircle
 10
243.288
 20
-90.9844
 30
1.59694
 40
0.5
100
AcDbArc
 50
98.6079
 51
-180
  0
ARC
  5
D55
330
A02
100
AcDbEntity
  8
Facebinder
100
AcDbCircle
 10
243.138
 20
-89.9957
 30
1.59694
 40
0.5
100
AcDbArc
 50
-81.3921
 51
0
  0
LINE
  5
D56
330
A02
100
AcDbEntity
  8
Facebinder
100
AcDbLine
 10
243.638
 20
-89.9957
 30
1.59694
 11
243.638
 21
-88.9844
 31
1.59694
  0
ARC
  5
D57
330
A02
100
AcDbEntity
  8
Facebinder
100
AcDbCircle
 10
244.138
 20
-88.9844
 30
1.59694
 40
0.5
100
AcDbArc
 50
90
 51
180
  0
LINE
  5
D58
330
A02
100
AcDbEntity
  8
Facebinder
100
AcDbLine
 10
244.138
 20
-88.4844
 30
1.59694
 11
250.638
 21
-88.4844
 31
1.59694
  0
ARC
  5
D59
330
A02
100
AcDbEntity
  8
Facebinder
100
AcDbCircle
 10
250.638
 20
-88.9844
 30
1.59694
 40
0.5
100
AcDbArc
 50
0
 51
90
  0
LINE
  5
D5A
330
A02
100
AcDbEntity
  8
Facebinder
100
AcDbLine
 10
251.138
 20
-88.9844
 30
1.59694
 11
251.138
 21
-89.9844
 31
1.59694
  0
ARC
  5
D5B
330
A02
100
AcDbEntity
  8
Facebinder
100
AcDbCircle
 10
251.638
 20
-89.9844
 30
1.59694
 40
0.5
100
AcDbArc
 50
180
 51
-90
  0
LINE
  5
D5C
330
A02
100
AcDbEntity
  8
Facebinder
100
AcDbLine
 10
251.638
 20
-90.4844
 30
1.59694
 11
267.188
 21
-90.4844
 31
1.59694
  0
ENDSEC
  0
SECTION
  2
OBJECTS
  0
DICTIONARY
  5
F000
330
0
100
AcDbDictionary
  3
ACAD_GROUP
350
F001
  0
DICTIONARY
  5
F001
330
F000
100
AcDbDictionary
  0
ENDSEC
  0
EOF