999
FreeCAD v0.19 24291 (Git)
  0
SECTION
  2
HEADER
  9
$ACADVER
  1
AC1014
  9
$ACADMAINTVER
 70
     9
  9
$DWGCODEPAGE
  3
ANSI_1252
  9
$TEXTSTYLE
  7
STANDARD
  9
$DIMSTYLE
  2
STANDARD
  9
$DIMTXSTY
  7
STANDARD
  9
$CMLSTYLE
  2
STANDARD
  9
$PEXTMAX
 10
50
 20
50
 30
50
  9
$PEXTMIN
 10
0
 20
0
 30
0
  9
$HANDSEED
  5
FFFF
  0
ENDSEC
  0
SECTION
  2
CLASSES
  0
CLASS
  1
ACDBDICTIONARYWDFLT
  2
AcDbDictionaryWithDefault
  3
ObjectDBX Classes
 90
        0
280
     0
281
     0
  0
CLASS
  1
XRECORD
  2
AcDbXrecord
  3
ObjectDBX Classes
 90
        0
280
     0
281
     0
  0
CLASS
  1
LWPOLYLINE
  2
AcDbPolyline
  3
ObjectDBX Classes
 90
        0
280
     0
281
     1
  0
ENDSEC
  0
SECTION
  2
TABLES
  0
TABLE
  2
VPORT
  5
20
330
0
100
AcDbSymbolTable
 70
     1
  0
VPORT
  5
21
330
20
100
AcDbSymbolTableRecord
100
AcDbViewportTableRecord
  2
*ACTIVE
 70
     0
  0
ENDTAB
  0
TABLE
  2
LTYPE
  5
22
330
0
100
AcDbSymbolTable
 70
     1
  0
LTYPE
  5
23
330
21
100
AcDbSymbolTableRecord
100
AcDbLinetypeTableRecord
  2
BYBLOCK
 70
     0
  3

 72
    65
 73
     0
 40
0.0
  0
LTYPE
  5
24
330
21
100
AcDbSymbolTableRecord
100
AcDbLinetypeTableRecord
  2
BYLAYER
 70
     0
  3

 72
    65
 73
     0
 40
0.0
  0
LTYPE
  5
25
330
21
100
AcDbSymbolTableRecord
100
AcDbLinetypeTableRecord
  2
CONTINUOUS
 70
     0
  3
Solid line
 72
    65
 73
     0
 40
0.0
  0
ENDTAB
  0
TABLE
  2
LAYER
  5
C20
330
0
100
AcDbSymbolTable
 70
3
  0
LAYER
  5
C21
330
C20
100
AcDbSymbolTableRecord
100
AcDbLayerTableRecord
  2
0
 70
   0
 62
   7
  6
CONTINUOUS
  0
LAYER
  5
C22
330
C20
100
AcDbSymbolTableRecord
100
AcDbLayerTableRecord
  2
none
 70
    0
 62
    7
  6
CONTINUOUS
  0
LAYER
  5
C23
330
C20
100
AcDbSymbolTableRecord
100
AcDbLayerTableRecord
  2
Facebinder
 70
    0
 62
    7
  6
CONTINUOUS
  0
ENDTAB
  0
TABLE
  2
STYLE
  5
70
330
0
100
AcDbSymbolTable
 70
     2
  0
STYLE
  5
71
330
70
100
AcDbSymbolTableRecord
100
AcDbTextStyleTableRecord
  2
STANDARD
 70
     0
 40
0.0
 41
1.0
 50
0.0
 71
     0
 42
2.5
  3
arial.ttf
  4

  0
STYLE
  5
72
330
70
100
AcDbSymbolTableRecord
100
AcDbTextStyleTableRecord
  2
ANNOTATIVE
 70
     0
 40
0.0
 41
1.0
 50
0.0
 71
     0
 42
2.5
  3
arial.ttf
  4

  0
ENDTAB
  0
TABLE
  2
VIEW
  5
73
330
0
100
AcDbSymbolTable
 70
     0
  0
ENDTAB
  0
TABLE
  2
UCS
  5
74
330
0
100
AcDbSymbolTable
 70
     0
  0
ENDTAB
  0
TABLE
  2
APPID
  5
75
330
0
100
AcDbSymbolTable
 70
     2
  0
APPID
  5
76
330
75
100
AcDbSymbolTableRecord
100
AcDbRegAppTableRecord
  2
ACAD
 70
     0
  0
APPID
  5
77
330
75
100
AcDbSymbolTableRecord
100
AcDbRegAppTableRecord
  2
ACADANNOTATIVE
 70
     0
  0
ENDTAB
  0
TABLE
  2
DIMSTYLE
  5
78
330
0
100
AcDbSymbolTable
 70
     2
  0
DIMSTYLE
105
79
330
78
100
AcDbSymbolTableRecord
100
AcDbDimStyleTableRecord
  2
STANDARD
 70
     0
  3

  4

  5

  6

  7

 40
0.0
 41
2.5
 42
0.625
 43
3.75
 44
1.25
 45
0.0
 46
0.0
 47
0.0
 48
0.0
140
2.5
141
2.5
142
0.0
143
0.03937007874016
144
1.0
145
0.0
146
1.0
147
0.625
 71
     0
 72
     0
 73
     0
 74
     0
 75
     0
 76
     0
 77
     1
 78
     8
170
     0
171
     3
172
     1
173
     0
174
     0
175
     0
176
     0
177
     0
178
     0
270
     2
271
     2
272
     2
273
     2
274
     3
340
71
275
     0
280
     0
281
     0
282
     0
283
     0
284
     8
285
     0
286
     0
287
     3
288
     0
  0
ENDTAB
  0
TABLE
  2
BLOCK_RECORD
  5
A01
330
0
100
AcDbSymbolTable
  70
5
  0
BLOCK_RECORD
  5
A02
330
A01
100
AcDbSymbolTableRecord
100
AcDbBlockTableRecord
  2
*MODEL_SPACE
  0
BLOCK_RECORD
  5
A03
330
A01
100
AcDbSymbolTableRecord
100
AcDbBlockTableRecord
  2
*PAPER_SPACE
  0
ENDTAB
  0
ENDSEC
  0
SECTION
  2
BLOCKS
  0
BLOCK
  5
A04
330
A02
100
AcDbEntity
  8
0
100
AcDbBlockBegin
  2
*MODEL_SPACE
 70
   0
 10
0
 20
0
 30
0
  3
*MODEL_SPACE
  1
 
  0
ENDBLK
  5
A05
330
A02
100
AcDbEntity
  8
0
100
AcDbBlockEnd
  0
BLOCK
  5
A06
330
A03
100
AcDbEntity
 67
1
  8
0
100
AcDbBlockBegin
  2
*PAPER_SPACE
 70
   0
 10
0
 20
0
 30
0
  3
*PAPER_SPACE
  1
 
  0
ENDBLK
  5
A07
330
A03
100
AcDbEntity
 67
    1
  8
0
100
AcDbBlockEnd
  0
ENDSEC
  0
SECTION
  2
ENTITIES
  0
LINE
  5
A08
330
A02
100
AcDbEntity
  8
Facebinder
100
AcDbLine
 10
91.8239
 20
-127.297
 30
-10.653
 11
74.8249
 21
-127.297
 31
-10.653
  0
ARC
  5
A09
330
A02
100
AcDbEntity
  8
Facebinder
100
AcDbCircle
 10
91.8239
 20
-126.301
 30
-10.5571
 40
0.998862
100
AcDbArc
 50
-90
 51
-29.729
  0
LINE
  5
A0A
330
A02
100
AcDbEntity
  8
Facebinder
100
AcDbLine
 10
92.6913
 20
-126.797
 30
-10.6048
 11
93.2623
 21
-125.806
 31
-10.5094
  0
ARC
  5
A0B
330
A02
100
AcDbEntity
  8
Facebinder
100
AcDbCircle
 10
94.1297
 20
-126.301
 30
-10.5571
 40
0.995396
100
AcDbArc
 50
90
 51
150.271
  0
LINE
  5
A0C
330
A02
100
AcDbEntity
  8
Facebinder
100
AcDbLine
 10
94.1297
 20
-125.306
 30
-10.4613
 11
172.61
 21
-125.306
 31
-10.4613
  0
ARC
  5
A0D
330
A02
100
AcDbEntity
  8
Facebinder
100
AcDbCircle
 10
172.61
 20
-126.301
 30
-10.5571
 40
0.998872
100
AcDbArc
 50
29.5863
 51
90
  0
LINE
  5
A0E
330
A02
100
AcDbEntity
  8
Facebinder
100
AcDbLine
 10
173.479
 20
-125.808
 30
-10.5096
 11
174.044
 21
-126.794
 31
-10.6046
  0
ARC
  5
A0F
330
A02
100
AcDbEntity
  8
Facebinder
100
AcDbCircle
 10
174.912
 20
-126.301
 30
-10.5571
 40
0.995396
100
AcDbArc
 50
-150.414
 51
-90
  0
LINE
  5
A10
330
A02
100
AcDbEntity
  8
Facebinder
100
AcDbLine
 10
191.986
 20
-127.297
 30
-10.653
 11
174.912
 21
-127.297
 31
-10.653
  0
ARC
  5
A11
330
A02
100
AcDbEntity
  8
Facebinder
100
AcDbCircle
 10
191.986
 20
-126.301
 30
-10.5571
 40
0.998872
100
AcDbArc
 50
-90
 51
-29.5863
  0
LINE
  5
A12
330
A02
100
AcDbEntity
  8
Facebinder
100
AcDbLine
 10
192.855
 20
-126.794
 30
-10.6046
 11
193.42
 21
-125.808
 31
-10.5096
  0
ARC
  5
A13
330
A02
100
AcDbEntity
  8
Facebinder
100
AcDbCircle
 10
194.289
 20
-126.301
 30
-10.5571
 40
0.995396
100
AcDbArc
 50
90
 51
150.414
  0
LINE
  5
A14
330
A02
100
AcDbEntity
  8
Facebinder
100
AcDbLine
 10
194.289
 20
-125.306
 30
-10.4613
 11
211.623
 21
-125.306
 31
-10.4613
  0
ARC
  5
A15
330
A02
100
AcDbEntity
  8
Facebinder
100
AcDbCircle
 10
211.623
 20
-126.301
 30
-10.5571
 40
0.995396
100
AcDbArc
 50
29.5863
 51
90
  0
LINE
  5
A16
330
A02
100
AcDbEntity
  8
Facebinder
100
AcDbLine
 10
212.491
 20
-125.808
 30
-10.5096
 11
214.873
 21
-129.965
 31
-10.9099
  0
ARC
  5
A17
330
A02
100
AcDbEntity
  8
Facebinder
100
AcDbCircle
 10
217.203
 20
-128.292
 30
-10.7488
 40
2.86858
100
AcDbArc
 50
-144.316
 51
-35.6835
  0
LINE
  5
A18
330
A02
100
AcDbEntity
  8
Facebinder
100
AcDbLine
 10
219.533
 20
-129.965
 30
-10.9099
 11
221.916
 21
-125.808
 31
-10.5096
  0
ARC
  5
A19
330
A02
100
AcDbEntity
  8
Facebinder
100
AcDbCircle
 10
222.784
 20
-126.301
 30
-10.5571
 40
0.998872
100
AcDbArc
 50
90
 51
150.414
  0
LINE
  5
A1A
330
A02
100
AcDbEntity
  8
Facebinder
100
AcDbLine
 10
222.784
 20
-125.306
 30
-10.4613
 11
298.368
 21
-125.306
 31
-10.4613
  0
ARC
  5
A1B
330
A02
100
AcDbEntity
  8
Facebinder
100
AcDbCircle
 10
298.368
 20
-126.301
 30
-10.5571
 40
0.995396
100
AcDbArc
 50
29.5863
 51
90
  0
LINE
  5
A1C
330
A02
100
AcDbEntity
  8
Facebinder
100
AcDbLine
 10
299.236
 20
-125.808
 30
-10.5096
 11
301.618
 21
-129.965
 31
-10.9099
  0
ARC
  5
A1D
330
A02
100
AcDbEntity
  8
Facebinder
100
AcDbCircle
 10
303.948
 20
-128.292
 30
-10.7488
 40
2.86858
100
AcDbArc
 50
-144.316
 51
-35.6835
  0
LINE
  5
A1E
330
A02
100
AcDbEntity
  8
Facebinder
100
AcDbLine
 10
306.278
 20
-129.965
 30
-10.9099
 11
308.661
 21
-125.808
 31
-10.5096
  0
ARC
  5
A1F
330
A02
100
AcDbEntity
  8
Facebinder
100
AcDbCircle
 10
309.529
 20
-126.301
 30
-10.5571
 40
0.998872
100
AcDbArc
 50
90
 51
150.414
  0
LINE
  5
A20
330
A02
100
AcDbEntity
  8
Facebinder
100
AcDbLine
 10
309.529
 20
-125.306
 30
-10.4613
 11
345.321
 21
-125.306
 31
-10.4613
  0
ARC
  5
A21
330
A02
100
AcDbEntity
  8
Facebinder
100
AcDbCircle
 10
345.321
 20
-123.315
 30
-10.2696
 40
1.99079
100
AcDbArc
 50
-90
 51
1.26204e-11
  0
LINE
  5
A22
330
A02
100
AcDbEntity
  8
Facebinder
100
AcDbLine
 10
347.321
 20
-123.315
 30
-10.2696
 11
347.321
 21
-2.11886
 31
1.4003
  0
ARC
  5
A23
330
A02
100
AcDbEntity
  8
Facebinder
100
AcDbCircle
 10
345.321
 20
-2.11886
 30
1.4003
 40
2
100
AcDbArc
 50
-4.45278e-13
 51
90
  0
LINE
  5
A24
330
A02
100
AcDbEntity
  8
Facebinder
100
AcDbLine
 10
345.321
 20
-0.128069
 30
1.59199
 11
309.529
 21
-0.128069
 31
1.59199
  0
ARC
  5
A25
330
A02
100
AcDbEntity
  8
Facebinder
100
AcDbCircle
 10
309.529
 20
0.867327
 30
1.68784
 40
0.995396
100
AcDbArc
 50
-150.414
 51
-90
  0
LINE
  5
A26
330
A02
100
AcDbEntity
  8
Facebinder
100
AcDbLine
 10
308.661
 20
0.374149
 30
1.64035
 11
306.278
 21
4.53138
 31
2.04065
  0
ARC
  5
A27
330
A02
100
AcDbEntity
  8
Facebinder
100
AcDbCircle
 10
303.948
 20
2.85812
 30
1.87953
 40
2.86858
100
AcDbArc
 50
35.6835
 51
144.316
  0
LINE
  5
A28
330
A02
100
AcDbEntity
  8
Facebinder
100
AcDbLine
 10
301.618
 20
4.53138
 30
2.04065
 11
299.236
 21
0.374149
 31
1.64035
  0
ARC
  5
A29
330
A02
100
AcDbEntity
  8
Facebinder
100
AcDbCircle
 10
298.368
 20
0.867327
 30
1.68784
 40
0.998872
100
AcDbArc
 50
-90
 51
-29.5863
  0
LINE
  5
A2A
330
A02
100
AcDbEntity
  8
Facebinder
100
AcDbLine
 10
298.368
 20
-0.128069
 30
1.59199
 11
222.784
 21
-0.128069
 31
1.59199
  0
ARC
  5
A2B
330
A02
100
AcDbEntity
  8
Facebinder
100
AcDbCircle
 10
222.784
 20
0.867327
 30
1.68784
 40
0.995396
100
AcDbArc
 50
-150.414
 51
-90
  0
LINE
  5
A2C
330
A02
100
AcDbEntity
  8
Facebinder
100
AcDbLine
 10
221.916
 20
0.374149
 30
1.64035
 11
219.533
 21
4.53138
 31
2.04065
  0
ARC
  5
A2D
330
A02
100
AcDbEntity
  8
Facebinder
100
AcDbCircle
 10
217.203
 20
2.85812
 30
1.87953
 40
2.86858
100
AcDbArc
 50
35.6835
 51
144.316
  0
LINE
  5
A2E
330
A02
100
AcDbEntity
  8
Facebinder
100
AcDbLine
 10
214.873
 20
4.53138
 30
2.04065
 11
212.491
 21
0.374149
 31
1.64035
  0
ARC
  5
A2F
330
A02
100
AcDbEntity
  8
Facebinder
100
AcDbCircle
 10
211.623
 20
0.867327
 30
1.68784
 40
0.998872
100
AcDbArc
 50
-90
 51
-29.5863
  0
LINE
  5
A30
330
A02
100
AcDbEntity
  8
Facebinder
100
AcDbLine
 10
211.623
 20
-0.128069
 30
1.59199
 11
136.04
 21
-0.128069
 31
1.59199
  0
ARC
  5
A31
330
A02
100
AcDbEntity
  8
Facebinder
100
AcDbCircle
 10
136.04
 20
0.867327
 30
1.68784
 40
0.995396
100
AcDbArc
 50
-150.414
 51
-90
  0
LINE
  5
A32
330
A02
100
AcDbEntity
  8
Facebinder
100
AcDbLine
 10
135.172
 20
0.374149
 30
1.64035
 11
132.789
 21
4.53138
 31
2.04065
  0
ARC
  5
A33
330
A02
100
AcDbEntity
  8
Facebinder
100
AcDbCircle
 10
130.459
 20
2.85812
 30
1.87953
 40
2.86858
100
AcDbArc
 50
35.6835
 51
144.316
  0
LINE
  5
A34
330
A02
100
AcDbEntity
  8
Facebinder
100
AcDbLine
 10
128.129
 20
4.53138
 30
2.04065
 11
125.747
 21
0.374149
 31
1.64035
  0
ARC
  5
A35
330
A02
100
AcDbEntity
  8
Facebinder
100
AcDbCircle
 10
124.878
 20
0.867327
 30
1.68784
 40
0.998872
100
AcDbArc
 50
-90
 51
-29.5863
  0
LINE
  5
A36
330
A02
100
AcDbEntity
  8
Facebinder
100
AcDbLine
 10
124.878
 20
-0.128069
 30
1.59199
 11
49.2951
 21
-0.128069
 31
1.59199
  0
ARC
  5
A37
330
A02
100
AcDbEntity
  8
Facebinder
100
AcDbCircle
 10
49.2951
 20
0.867327
 30
1.68784
 40
0.995396
100
AcDbArc
 50
-150.414
 51
-90
  0
LINE
  5
A38
330
A02
100
AcDbEntity
  8
Facebinder
100
AcDbLine
 10
48.4265
 20
0.374149
 30
1.64035
 11
46.0443
 21
4.53138
 31
2.04065
  0
ARC
  5
A39
330
A02
100
AcDbEntity
  8
Facebinder
100
AcDbCircle
 10
43.7143
 20
2.85812
 30
1.87953
 40
2.86858
100
AcDbArc
 50
35.6835
 51
144.316
  0
LINE
  5
A3A
330
A02
100
AcDbEntity
  8
Facebinder
100
AcDbLine
 10
41.3843
 20
4.53138
 30
2.04065
 11
39.0021
 21
0.374149
 31
1.64035
  0
ARC
  5
A3B
330
A02
100
AcDbEntity
  8
Facebinder
100
AcDbCircle
 10
38.1335
 20
0.867327
 30
1.68784
 40
0.998872
100
AcDbArc
 50
-90
 51
-29.5863
  0
LINE
  5
A3C
330
A02
100
AcDbEntity
  8
Facebinder
100
AcDbLine
 10
38.1335
 20
-0.128069
 30
1.59199
 11
2.17793
 21
-0.128069
 31
1.59199
  0
ARC
  5
A3D
330
A02
100
AcDbEntity
  8
Facebinder
100
AcDbCircle
 10
2.17793
 20
-2.11886
 30
1.4003
 40
1.99079
100
AcDbArc
 50
90
 51
-180
  0
LINE
  5
A3E
330
A02
100
AcDbEntity
  8
Facebinder
100
AcDbLine
 10
0.177935
 20
-2.11886
 30
1.4003
 11
0.177935
 21
-123.315
 31
-10.2696
  0
ARC
  5
A3F
330
A02
100
AcDbEntity
  8
Facebinder
100
AcDbCircle
 10
2.17793
 20
-123.315
 30
-10.2696
 40
2
100
AcDbArc
 50
180
 51
-90
  0
LINE
  5
A40
330
A02
100
AcDbEntity
  8
Facebinder
100
AcDbLine
 10
2.17793
 20
-125.306
 30
-10.4613
 11
38.1335
 21
-125.306
 31
-10.4613
  0
ARC
  5
A41
330
A02
100
AcDbEntity
  8
Facebinder
100
AcDbCircle
 10
38.1335
 20
-126.301
 30
-10.5571
 40
0.995396
100
AcDbArc
 50
29.5863
 51
90
  0
LINE
  5
A42
330
A02
100
AcDbEntity
  8
Facebinder
100
AcDbLine
 10
39.0021
 20
-125.808
 30
-10.5096
 11
41.3843
 21
-129.965
 31
-10.9099
  0
ARC
  5
A43
330
A02
100
AcDbEntity
  8
Facebinder
100
AcDbCircle
 10
43.7143
 20
-128.292
 30
-10.7488
 40
2.86858
100
AcDbArc
 50
-144.316
 51
-35.6835
  0
LINE
  5
A44
330
A02
100
AcDbEntity
  8
Facebinder
100
AcDbLine
 10
46.0443
 20
-129.965
 30
-10.9099
 11
48.4265
 21
-125.808
 31
-10.5096
  0
ARC
  5
A45
330
A02
100
AcDbEntity
  8
Facebinder
100
AcDbCircle
 10
49.2951
 20
-126.301
 30
-10.5571
 40
0.998872
100
AcDbArc
 50
90
 51
150.414
  0
LINE
  5
A46
330
A02
100
AcDbEntity
  8
Facebinder
100
AcDbLine
 10
49.2951
 20
-125.306
 30
-10.4613
 11
72.5191
 21
-125.306
 31
-10.4613
  0
ARC
  5
A47
330
A02
100
AcDbEntity
  8
Facebinder
100
AcDbCircle
 10
72.5191
 20
-126.301
 30
-10.5571
 40
0.998862
100
AcDbArc
 50
29.729
 51
90
  0
LINE
  5
A48
330
A02
100
AcDbEntity
  8
Facebinder
100
AcDbLine
 10
73.3865
 20
-125.806
 30
-10.5094
 11
73.9575
 21
-126.797
 31
-10.6048
  0
ARC
  5
A49
330
A02
100
AcDbEntity
  8
Facebinder
100
AcDbCircle
 10
74.8249
 20
-126.301
 30
-10.5571
 40
0.995396
100
AcDbArc
 50
-150.271
 51
-90
  0
LINE
  5
A4A
330
A02
100
AcDbEntity
  8
Facebinder
100
AcDbLine
 10
76.9488
 20
-109.183
 30
-8.90881
 11
89.6999
 21
-109.183
 31
-8.90881
  0
ARC
  5
A4B
330
A02
100
AcDbEntity
  8
Facebinder
100
AcDbCircle
 10
89.6999
 20
-109.681
 30
-8.95673
 40
0.5
100
AcDbArc
 50
0
 51
90
  0
LINE
  5
A4C
330
A02
100
AcDbEntity
  8
Facebinder
100
AcDbLine
 10
90.1999
 20
-109.681
 30
-8.95673
 11
90.1999
 21
-124.612
 31
-10.3945
  0
ARC
  5
A4D
330
A02
100
AcDbEntity
  8
Facebinder
100
AcDbCircle
 10
89.6999
 20
-124.612
 30
-10.3945
 40
0.497698
100
AcDbArc
 50
-90
 51
0
  0
LINE
  5
A4E
330
A02
100
AcDbEntity
  8
Facebinder
100
AcDbLine
 10
89.6999
 20
-125.11
 30
-10.4424
 11
76.9488
 21
-125.11
 31
-10.4424
  0
ARC
  5
A4F
330
A02
100
AcDbEntity
  8
Facebinder
100
AcDbCircle
 10
76.9488
 20
-124.612
 30
-10.3945
 40
0.497698
100
AcDbArc
 50
180
 51
-90
  0
LINE
  5
A50
330
A02
100
AcDbEntity
  8
Facebinder
100
AcDbLine
 10
76.4488
 20
-109.681
 30
-8.95673
 11
76.4488
 21
-124.612
 31
-10.3945
  0
ARC
  5
A51
330
A02
100
AcDbEntity
  8
Facebinder
100
AcDbCircle
 10
76.9488
 20
-109.681
 30
-8.95673
 40
0.497698
100
AcDbArc
 50
90
 51
180
  0
LINE
  5
A52
330
A02
100
AcDbEntity
  8
Facebinder
100
AcDbLine
 10
240.138
 20
-107.69
 30
-8.76504
 11
40.5622
 21
-107.69
 31
-8.76504
  0
ARC
  5
A53
330
A02
100
AcDbEntity
  8
Facebinder
100
AcDbCircle
 10
40.5622
 20
-106.197
 30
-8.62127
 40
1.5
100
AcDbArc
 50
180
 51
-90
  0
LINE
  5
A54
330
A02
100
AcDbEntity
  8
Facebinder
100
AcDbLine
 10
39.0622
 20
-106.197
 30
-8.62127
 11
39.0622
 21
-89.7232
 31
-7.03504
  0
ARC
  5
A55
330
A02
100
AcDbEntity
  8
Facebinder
100
AcDbCircle
 10
37.5622
 20
-89.7232
 30
-7.03504
 40
1.49309
100
AcDbArc
 50
0
 51
90
  0
LINE
  5
A56
330
A02
100
AcDbEntity
  8
Facebinder
100
AcDbLine
 10
37.5622
 20
-88.2301
 30
-6.89127
 11
27.0247
 21
-88.2301
 31
-6.89127
  0
ARC
  5
A57
330
A02
100
AcDbEntity
  8
Facebinder
100
AcDbCircle
 10
27.0247
 20
-86.737
 30
-6.7475
 40
1.5
100
AcDbArc
 50
180
 51
-90
  0
LINE
  5
A58
330
A02
100
AcDbEntity
  8
Facebinder
100
AcDbLine
 10
25.5247
 20
-86.737
 30
-6.7475
 11
25.5247
 21
-70.6966
 31
-5.20298
  0
ARC
  5
A59
330
A02
100
AcDbEntity
  8
Facebinder
100
AcDbCircle
 10
24.0247
 20
-70.6966
 30
-5.20298
 40
1.49339
100
AcDbArc
 50
0
 51
78.0429
  0
ARC
  5
A5A
330
A02
100
AcDbEntity
  8
Facebinder
100
AcDbCircle
 10
24.6435
 20
-67.7746
 30
-4.92163
 40
1.5
100
AcDbArc
 50
180
 51
-101.957
  0
LINE
  5
A5B
330
A02
100
AcDbEntity
  8
Facebinder
100
AcDbLine
 10
23.1435
 20
-67.7746
 30
-4.92163
 11
23.1435
 21
-51.7985
 31
-3.3833
  0
ARC
  5
A5C
330
A02
100
AcDbEntity
  8
Facebinder
100
AcDbCircle
 10
21.6435
 20
-51.7985
 30
-3.3833
 40
1.49309
100
AcDbArc
 50
0
 51
90
  0
LINE
  5
A5D
330
A02
100
AcDbEntity
  8
Facebinder
100
AcDbLine
 10
21.6435
 20
-50.3054
 30
-3.23954
 11
19.881
 21
-50.3054
 31
-3.23954
  0
ARC
  5
A5E
330
A02
100
AcDbEntity
  8
Facebinder
100
AcDbCircle
 10
19.881
 20
-48.8123
 30
-3.09577
 40
1.5
100
AcDbArc
 50
180
 51
-90
  0
LINE
  5
A5F
330
A02
100
AcDbEntity
  8
Facebinder
100
AcDbLine
 10
18.381
 20
-48.8123
 30
-3.09577
 11
18.381
 21
-33.2091
 31
-1.59335
  0
ARC
  5
A60
330
A02
100
AcDbEntity
  8
Facebinder
100
AcDbCircle
 10
19.881
 20
-33.2091
 30
-1.59335
 40
1.49309
100
AcDbArc
 50
90
 51
180
  0
LINE
  5
A61
330
A02
100
AcDbEntity
  8
Facebinder
100
AcDbLine
 10
19.881
 20
-31.716
 30
-1.44958
 11
247.282
 21
-31.716
 31
-1.44958
  0
ARC
  5
A62
330
A02
100
AcDbEntity
  8
Facebinder
100
AcDbCircle
 10
247.282
 20
-33.2091
 30
-1.59335
 40
1.5
100
AcDbArc
 50
0
 51
90
  0
LINE
  5
A63
330
A02
100
AcDbEntity
  8
Facebinder
100
AcDbLine
 10
248.782
 20
-33.2091
 30
-1.59335
 11
248.782
 21
-49.7582
 31
-3.18685
  0
ARC
  5
A64
330
A02
100
AcDbEntity
  8
Facebinder
100
AcDbCircle
 10
250.282
 20
-49.7582
 30
-3.18685
 40
1.49309
100
AcDbArc
 50
180
 51
-90
  0
LINE
  5
A65
330
A02
100
AcDbEntity
  8
Facebinder
100
AcDbLine
 10
250.282
 20
-51.2513
 30
-3.33062
 11
260.819
 21
-51.2513
 31
-3.33062
  0
ARC
  5
A66
330
A02
100
AcDbEntity
  8
Facebinder
100
AcDbCircle
 10
260.819
 20
-52.7444
 30
-3.47439
 40
1.5
100
AcDbArc
 50
0
 51
90
  0
LINE
  5
A67
330
A02
100
AcDbEntity
  8
Facebinder
100
AcDbLine
 10
262.319
 20
-52.7444
 30
-3.47439
 11
262.319
 21
-67.7746
 31
-4.92163
  0
ARC
  5
A68
330
A02
100
AcDbEntity
  8
Facebinder
100
AcDbCircle
 10
260.819
 20
-67.7746
 30
-4.92163
 40
1.49309
100
AcDbArc
 50
-90
 51
0
  0
LINE
  5
A69
330
A02
100
AcDbEntity
  8
Facebinder
100
AcDbLine
 10
260.819
 20
-69.2677
 30
-5.0654
 11
247.899
 21
-69.2677
 31
-5.0654
  0
ARC
  5
A6A
330
A02
100
AcDbEntity
  8
Facebinder
100
AcDbCircle
 10
247.899
 20
-70.7608
 30
-5.20917
 40
1.5
100
AcDbArc
 50
90
 51
180
  0
LINE
  5
A6B
330
A02
100
AcDbEntity
  8
Facebinder
100
AcDbLine
 10
246.399
 20
-70.7608
 30
-5.20917
 11
246.399
 21
-86.737
 31
-6.7475
  0
ARC
  5
A6C
330
A02
100
AcDbEntity
  8
Facebinder
100
AcDbCircle
 10
244.899
 20
-86.737
 30
-6.7475
 40
1.49309
100
AcDbArc
 50
-90
 51
0
  0
LINE
  5
A6D
330
A02
100
AcDbEntity
  8
Facebinder
100
AcDbLine
 10
244.899
 20
-88.2301
 30
-6.89127
 11
243.138
 21
-88.2301
 31
-6.89127
  0
ARC
  5
A6E
330
A02
100
AcDbEntity
  8
Facebinder
100
AcDbCircle
 10
243.138
 20
-89.7232
 30
-7.03504
 40
1.5
100
AcDbArc
 50
90
 51
180
  0
LINE
  5
A6F
330
A02
100
AcDbEntity
  8
Facebinder
100
AcDbLine
 10
241.638
 20
-89.7232
 30
-7.03504
 11
241.638
 21
-106.197
 31
-8.62127
  0
ARC
  5
A70
330
A02
100
AcDbEntity
  8
Facebinder
100
AcDbCircle
 10
240.138
 20
-106.197
 30
-8.62127
 40
1.49309
100
AcDbArc
 50
-90
 51
0
  0
ARC
  5
A71
330
A02
100
AcDbEntity
  8
Facebinder
100
AcDbCircle
 10
68.2688
 20
-109.681
 30
-8.95673
 40
0.5
100
AcDbArc
 50
0
 51
90
  0
LINE
  5
A72
330
A02
100
AcDbEntity
  8
Facebinder
100
AcDbLine
 10
68.7688
 20
-109.681
 30
-8.95673
 11
68.7688
 21
-122.62
 31
-10.2027
  0
ARC
  5
A73
330
A02
100
AcDbEntity
  8
Facebinder
100
AcDbCircle
 10
68.2688
 20
-122.62
 30
-10.2027
 40
0.497698
100
AcDbArc
 50
-90
 51
0
  0
LINE
  5
A74
330
A02
100
AcDbEntity
  8
Facebinder
100
AcDbLine
 10
68.2688
 20
-123.118
 30
-10.2506
 11
52.8878
 21
-123.118
 31
-10.2506
  0
ARC
  5
A75
330
A02
100
AcDbEntity
  8
Facebinder
100
AcDbCircle
 10
52.8878
 20
-122.62
 30
-10.2027
 40
0.5
100
AcDbArc
 50
180
 51
-90
  0
LINE
  5
A76
330
A02
100
AcDbEntity
  8
Facebinder
100
AcDbLine
 10
52.3878
 20
-122.62
 30
-10.2027
 11
52.3878
 21
-109.681
 31
-8.95673
  0
ARC
  5
A77
330
A02
100
AcDbEntity
  8
Facebinder
100
AcDbCircle
 10
52.8878
 20
-109.681
 30
-8.95673
 40
0.497698
100
AcDbArc
 50
90
 51
180
  0
LINE
  5
A78
330
A02
100
AcDbEntity
  8
Facebinder
100
AcDbLine
 10
52.8878
 20
-109.183
 30
-8.90881
 11
68.2688
 21
-109.183
 31
-8.90881
  0
LINE
  5
A79
330
A02
100
AcDbEntity
  8
Facebinder
100
AcDbLine
 10
280.2
 20
-123.118
 30
-10.2506
 11
264.819
 21
-123.118
 31
-10.2506
  0
ARC
  5
A7A
330
A02
100
AcDbEntity
  8
Facebinder
100
AcDbCircle
 10
264.819
 20
-122.62
 30
-10.2026
 40
0.5
100
AcDbArc
 50
180
 51
-90
  0
LINE
  5
A7B
330
A02
100
AcDbEntity
  8
Facebinder
100
AcDbLine
 10
264.319
 20
-122.62
 30
-10.2026
 11
264.319
 21
-109.681
 31
-8.95673
  0
ARC
  5
A7C
330
A02
100
AcDbEntity
  8
Facebinder
100
AcDbCircle
 10
264.819
 20
-109.681
 30
-8.95673
 40
0.497698
100
AcDbArc
 50
90
 51
180
  0
LINE
  5
A7D
330
A02
100
AcDbEntity
  8
Facebinder
100
AcDbLine
 10
264.819
 20
-109.183
 30
-8.90881
 11
280.2
 21
-109.183
 31
-8.90881
  0
ARC
  5
A7E
330
A02
100
AcDbEntity
  8
Facebinder
100
AcDbCircle
 10
280.2
 20
-109.681
 30
-8.95673
 40
0.5
100
AcDbArc
 50
0
 51
90
  0
LINE
  5
A7F
330
A02
100
AcDbEntity
  8
Facebinder
100
AcDbLine
 10
280.7
 20
-109.681
 30
-8.95673
 11
280.7
 21
-122.62
 31
-10.2026
  0
ARC
  5
A80
330
A02
100
AcDbEntity
  8
Facebinder
100
AcDbCircle
 10
280.2
 20
-122.62
 30
-10.2026
 40
0.497698
100
AcDbArc
 50
-90
 51
0
  0
LINE
  5
A81
330
A02
100
AcDbEntity
  8
Facebinder
100
AcDbLine
 10
256.387
 20
-123.118
 30
-10.2506
 11
241.006
 21
-123.118
 31
-10.2506
  0
ARC
  5
A82
330
A02
100
AcDbEntity
  8
Facebinder
100
AcDbCircle
 10
241.006
 20
-122.62
 30
-10.2026
 40
0.5
100
AcDbArc
 50
180
 51
-90
  0
LINE
  5
A83
330
A02
100
AcDbEntity
  8
Facebinder
100
AcDbLine
 10
240.506
 20
-122.62
 30
-10.2026
 11
240.506
 21
-109.681
 31
-8.95673
  0
ARC
  5
A84
330
A02
100
AcDbEntity
  8
Facebinder
100
AcDbCircle
 10
241.006
 20
-109.681
 30
-8.95673
 40
0.497698
100
AcDbArc
 50
90
 51
180
  0
LINE
  5
A85
330
A02
100
AcDbEntity
  8
Facebinder
100
AcDbLine
 10
241.006
 20
-109.183
 30
-8.90881
 11
256.387
 21
-109.183
 31
-8.90881
  0
ARC
  5
A86
330
A02
100
AcDbEntity
  8
Facebinder
100
AcDbCircle
 10
256.387
 20
-109.681
 30
-8.95673
 40
0.5
100
AcDbArc
 50
0
 51
90
  0
LINE
  5
A87
330
A02
100
AcDbEntity
  8
Facebinder
100
AcDbLine
 10
256.887
 20
-109.681
 30
-8.95673
 11
256.887
 21
-122.62
 31
-10.2026
  0
ARC
  5
A88
330
A02
100
AcDbEntity
  8
Facebinder
100
AcDbCircle
 10
256.387
 20
-122.62
 30
-10.2026
 40
0.497698
100
AcDbArc
 50
-90
 51
0
  0
LINE
  5
A89
330
A02
100
AcDbEntity
  8
Facebinder
100
AcDbLine
 10
232.575
 20
-123.118
 30
-10.2506
 11
217.194
 21
-123.118
 31
-10.2506
  0
ARC
  5
A8A
330
A02
100
AcDbEntity
  8
Facebinder
100
AcDbCircle
 10
217.194
 20
-122.62
 30
-10.2026
 40
0.5
100
AcDbArc
 50
180
 51
-90
  0
LINE
  5
A8B
330
A02
100
AcDbEntity
  8
Facebinder
100
AcDbLine
 10
216.694
 20
-122.62
 30
-10.2026
 11
216.694
 21
-109.681
 31
-8.95673
  0
ARC
  5
A8C
330
A02
100
AcDbEntity
  8
Facebinder
100
AcDbCircle
 10
217.194
 20
-109.681
 30
-8.95673
 40
0.497698
100
AcDbArc
 50
90
 51
180
  0
LINE
  5
A8D
330
A02
100
AcDbEntity
  8
Facebinder
100
AcDbLine
 10
217.194
 20
-109.183
 30
-8.90881
 11
232.575
 21
-109.183
 31
-8.90881
  0
ARC
  5
A8E
330
A02
100
AcDbEntity
  8
Facebinder
100
AcDbCircle
 10
232.575
 20
-109.681
 30
-8.95673
 40
0.5
100
AcDbArc
 50
0
 51
90
  0
LINE
  5
A8F
330
A02
100
AcDbEntity
  8
Facebinder
100
AcDbLine
 10
233.075
 20
-109.681
 30
-8.95673
 11
233.075
 21
-122.62
 31
-10.2026
  0
ARC
  5
A90
330
A02
100
AcDbEntity
  8
Facebinder
100
AcDbCircle
 10
232.575
 20
-122.62
 30
-10.2026
 40
0.497698
100
AcDbArc
 50
-90
 51
0
  0
LINE
  5
A91
330
A02
100
AcDbEntity
  8
Facebinder
100
AcDbLine
 10
208.762
 20
-123.118
 30
-10.2506
 11
193.381
 21
-123.118
 31
-10.2506
  0
ARC
  5
A92
330
A02
100
AcDbEntity
  8
Facebinder
100
AcDbCircle
 10
193.381
 20
-122.62
 30
-10.2027
 40
0.5
100
AcDbArc
 50
180
 51
-90
  0
LINE
  5
A93
330
A02
100
AcDbEntity
  8
Facebinder
100
AcDbLine
 10
192.881
 20
-122.62
 30
-10.2027
 11
192.881
 21
-109.681
 31
-8.95673
  0
ARC
  5
A94
330
A02
100
AcDbEntity
  8
Facebinder
100
AcDbCircle
 10
193.381
 20
-109.681
 30
-8.95673
 40
0.497698
100
AcDbArc
 50
90
 51
180
  0
LINE
  5
A95
330
A02
100
AcDbEntity
  8
Facebinder
100
AcDbLine
 10
193.381
 20
-109.183
 30
-8.90881
 11
208.762
 21
-109.183
 31
-8.90881
  0
ARC
  5
A96
330
A02
100
AcDbEntity
  8
Facebinder
100
AcDbCircle
 10
208.762
 20
-109.681
 30
-8.95673
 40
0.5
100
AcDbArc
 50
0
 51
90
  0
LINE
  5
A97
330
A02
100
AcDbEntity
  8
Facebinder
100
AcDbLine
 10
209.262
 20
-109.681
 30
-8.95673
 11
209.262
 21
-122.62
 31
-10.2027
  0
ARC
  5
A98
330
A02
100
AcDbEntity
  8
Facebinder
100
AcDbCircle
 10
208.762
 20
-122.62
 30
-10.2027
 40
0.497698
100
AcDbArc
 50
-90
 51
0
  0
LINE
  5
A99
330
A02
100
AcDbEntity
  8
Facebinder
100
AcDbLine
 10
325.944
 20
-8.20023
 30
0.81473
 11
325.944
 21
-21.1394
 31
-0.431169
  0
ARC
  5
A9A
330
A02
100
AcDbEntity
  8
Facebinder
100
AcDbCircle
 10
325.444
 20
-21.1394
 30
-0.431169
 40
0.497698
100
AcDbArc
 50
-90
 51
0
  0
LINE
  5
A9B
330
A02
100
AcDbEntity
  8
Facebinder
100
AcDbLine
 10
325.444
 20
-21.6371
 30
-0.479092
 11
312.444
 21
-21.6371
 31
-0.479092
  0
ARC
  5
A9C
330
A02
100
AcDbEntity
  8
Facebinder
100
AcDbCircle
 10
312.444
 20
-21.1394
 30
-0.431169
 40
0.5
100
AcDbArc
 50
180
 51
-90
  0
LINE
  5
A9D
330
A02
100
AcDbEntity
  8
Facebinder
100
AcDbLine
 10
311.944
 20
-21.1394
 30
-0.431169
 11
311.944
 21
-8.20023
 31
0.81473
  0
ARC
  5
A9E
330
A02
100
AcDbEntity
  8
Facebinder
100
AcDbCircle
 10
312.444
 20
-8.20023
 30
0.81473
 40
0.497698
100
AcDbArc
 50
90
 51
180
  0
LINE
  5
A9F
330
A02
100
AcDbEntity
  8
Facebinder
100
AcDbLine
 10
312.444
 20
-7.70254
 30
0.862653
 11
325.444
 21
-7.70254
 31
0.862653
  0
ARC
  5
AA0
330
A02
100
AcDbEntity
  8
Facebinder
100
AcDbCircle
 10
325.444
 20
-8.20023
 30
0.81473
 40
0.5
100
AcDbArc
 50
1.22133e-12
 51
90
  0
LINE
  5
AA1
330
A02
100
AcDbEntity
  8
Facebinder
100
AcDbLine
 10
12.5122
 20
-106.147
 30
-8.61651
 11
6.01265
 21
-106.147
 31
-8.61651
  0
ARC
  5
AA2
330
A02
100
AcDbEntity
  8
Facebinder
100
AcDbCircle
 10
6.01265
 20
-105.65
 30
-8.56859
 40
0.5
100
AcDbArc
 50
180
 51
-90
  0
LINE
  5
AA3
330
A02
100
AcDbEntity
  8
Facebinder
100
AcDbLine
 10
5.51265
 20
-105.65
 30
-8.56859
 11
5.51265
 21
-90.7186
 31
-7.13088
  0
ARC
  5
AA4
330
A02
100
AcDbEntity
  8
Facebinder
100
AcDbCircle
 10
6.01265
 20
-90.7186
 30
-7.13088
 40
0.497698
100
AcDbArc
 50
90
 51
180
  0
LINE
  5
AA5
330
A02
100
AcDbEntity
  8
Facebinder
100
AcDbLine
 10
6.01265
 20
-90.2209
 30
-7.08296
 11
12.5122
 21
-90.2209
 31
-7.08296
  0
ARC
  5
AA6
330
A02
100
AcDbEntity
  8
Facebinder
100
AcDbCircle
 10
12.5122
 20
-90.7186
 30
-7.13088
 40
0.5
100
AcDbArc
 50
0
 51
90
  0
LINE
  5
AA7
330
A02
100
AcDbEntity
  8
Facebinder
100
AcDbLine
 10
13.0122
 20
-90.7186
 30
-7.13088
 11
13.0122
 21
-105.65
 31
-8.56859
  0
ARC
  5
AA8
330
A02
100
AcDbEntity
  8
Facebinder
100
AcDbCircle
 10
12.5122
 20
-105.65
 30
-8.56859
 40
0.497698
100
AcDbArc
 50
-90
 51
0
  0
LINE
  5
AA9
330
A02
100
AcDbEntity
  8
Facebinder
100
AcDbLine
 10
29.5627
 20
-105.65
 30
-8.56859
 11
29.5627
 21
-90.7186
 31
-7.13088
  0
ARC
  5
AAA
330
A02
100
AcDbEntity
  8
Facebinder
100
AcDbCircle
 10
30.0627
 20
-90.7186
 30
-7.13088
 40
0.497698
100
AcDbArc
 50
90
 51
180
  0
LINE
  5
AAB
330
A02
100
AcDbEntity
  8
Facebinder
100
AcDbLine
 10
30.0627
 20
-90.2209
 30
-7.08296
 11
36.5622
 21
-90.2209
 31
-7.08296
  0
ARC
  5
AAC
330
A02
100
AcDbEntity
  8
Facebinder
100
AcDbCircle
 10
36.5622
 20
-90.7186
 30
-7.13088
 40
0.5
100
AcDbArc
 50
0
 51
90
  0
LINE
  5
AAD
330
A02
100
AcDbEntity
  8
Facebinder
100
AcDbLine
 10
37.0622
 20
-90.7186
 30
-7.13088
 11
37.0622
 21
-105.65
 31
-8.56859
  0
ARC
  5
AAE
330
A02
100
AcDbEntity
  8
Facebinder
100
AcDbCircle
 10
36.5622
 20
-105.65
 30
-8.56859
 40
0.497698
100
AcDbArc
 50
-90
 51
0
  0
LINE
  5
AAF
330
A02
100
AcDbEntity
  8
Facebinder
100
AcDbLine
 10
36.5622
 20
-106.147
 30
-8.61651
 11
30.0627
 21
-106.147
 31
-8.61651
  0
ARC
  5
AB0
330
A02
100
AcDbEntity
  8
Facebinder
100
AcDbCircle
 10
30.0627
 20
-105.65
 30
-8.56859
 40
0.5
100
AcDbArc
 50
180
 51
-90
  0
LINE
  5
AB1
330
A02
100
AcDbEntity
  8
Facebinder
100
AcDbLine
 10
293.394
 20
-33.3339
 30
-1.60537
 11
306.394
 21
-33.3339
 31
-1.60537
  0
ARC
  5
AB2
330
A02
100
AcDbEntity
  8
Facebinder
100
AcDbCircle
 10
306.394
 20
-33.8316
 30
-1.65329
 40
0.5
100
AcDbArc
 50
0
 51
90
  0
LINE
  5
AB3
330
A02
100
AcDbEntity
  8
Facebinder
100
AcDbLine
 10
306.894
 20
-33.8316
 30
-1.65329
 11
306.894
 21
-46.771
 31
-2.89922
  0
ARC
  5
AB4
330
A02
100
AcDbEntity
  8
Facebinder
100
AcDbCircle
 10
306.394
 20
-46.771
 30
-2.89922
 40
0.497698
100
AcDbArc
 50
-90
 51
0
  0
LINE
  5
AB5
330
A02
100
AcDbEntity
  8
Facebinder
100
AcDbLine
 10
306.394
 20
-47.2687
 30
-2.94714
 11
293.394
 21
-47.2687
 31
-2.94714
  0
ARC
  5
AB6
330
A02
100
AcDbEntity
  8
Facebinder
100
AcDbCircle
 10
293.394
 20
-46.771
 30
-2.89922
 40
0.5
100
AcDbArc
 50
180
 51
-90
  0
LINE
  5
AB7
330
A02
100
AcDbEntity
  8
Facebinder
100
AcDbLine
 10
292.894
 20
-46.771
 30
-2.89922
 11
292.894
 21
-33.8316
 31
-1.65329
  0
ARC
  5
AB8
330
A02
100
AcDbEntity
  8
Facebinder
100
AcDbCircle
 10
293.394
 20
-33.8316
 30
-1.65329
 40
0.497698
100
AcDbArc
 50
90
 51
180
  0
LINE
  5
AB9
330
A02
100
AcDbEntity
  8
Facebinder
100
AcDbLine
 10
282.331
 20
-33.8316
 30
-1.65329
 11
282.331
 21
-48.7628
 31
-3.091
  0
ARC
  5
ABA
330
A02
100
AcDbEntity
  8
Facebinder
100
AcDbCircle
 10
281.831
 20
-48.7628
 30
-3.091
 40
0.497698
100
AcDbArc
 50
-90
 51
0
  0
LINE
  5
ABB
330
A02
100
AcDbEntity
  8
Facebinder
100
AcDbLine
 10
281.831
 20
-49.2605
 30
-3.13893
 11
275.332
 21
-49.2605
 31
-3.13893
  0
ARC
  5
ABC
330
A02
100
AcDbEntity
  8
Facebinder
100
AcDbCircle
 10
275.332
 20
-48.7628
 30
-3.091
 40
0.5
100
AcDbArc
 50
180
 51
-90
  0
LINE
  5
ABD
330
A02
100
AcDbEntity
  8
Facebinder
100
AcDbLine
 10
274.832
 20
-48.7628
 30
-3.091
 11
274.832
 21
-33.8316
 31
-1.65329
  0
ARC
  5
ABE
330
A02
100
AcDbEntity
  8
Facebinder
100
AcDbCircle
 10
275.332
 20
-33.8316
 30
-1.65329
 40
0.497698
100
AcDbArc
 50
90
 51
180
  0
LINE
  5
ABF
330
A02
100
AcDbEntity
  8
Facebinder
100
AcDbLine
 10
275.332
 20
-33.3339
 30
-1.60537
 11
281.831
 21
-33.3339
 31
-1.60537
  0
ARC
  5
AC0
330
A02
100
AcDbEntity
  8
Facebinder
100
AcDbCircle
 10
281.831
 20
-33.8316
 30
-1.65329
 40
0.5
100
AcDbArc
 50
0
 51
90
  0
LINE
  5
AC1
330
A02
100
AcDbEntity
  8
Facebinder
100
AcDbLine
 10
2.3815
 20
-21.1394
 30
-0.431169
 11
2.3815
 21
-8.20023
 31
0.81473
  0
ARC
  5
AC2
330
A02
100
AcDbEntity
  8
Facebinder
100
AcDbCircle
 10
2.8815
 20
-8.20023
 30
0.81473
 40
0.497698
100
AcDbArc
 50
90
 51
180
  0
LINE
  5
AC3
330
A02
100
AcDbEntity
  8
Facebinder
100
AcDbLine
 10
2.8815
 20
-7.70254
 30
0.862653
 11
15.881
 21
-7.70254
 31
0.862653
  0
ARC
  5
AC4
330
A02
100
AcDbEntity
  8
Facebinder
100
AcDbCircle
 10
15.881
 20
-8.20023
 30
0.81473
 40
0.5
100
AcDbArc
 50
-1.22133e-12
 51
90
  0
LINE
  5
AC5
330
A02
100
AcDbEntity
  8
Facebinder
100
AcDbLine
 10
16.381
 20
-8.20023
 30
0.81473
 11
16.381
 21
-21.1394
 31
-0.431169
  0
ARC
  5
AC6
330
A02
100
AcDbEntity
  8
Facebinder
100
AcDbCircle
 10
15.881
 20
-21.1394
 30
-0.431169
 40
0.497698
100
AcDbArc
 50
-90
 51
0
  0
LINE
  5
AC7
330
A02
100
AcDbEntity
  8
Facebinder
100
AcDbLine
 10
15.881
 20
-21.6371
 30
-0.479092
 11
2.8815
 21
-21.6371
 31
-0.479092
  0
ARC
  5
AC8
330
A02
100
AcDbEntity
  8
Facebinder
100
AcDbCircle
 10
2.8815
 20
-21.1394
 30
-0.431169
 40
0.5
100
AcDbArc
 50
180
 51
-90
  0
LINE
  5
AC9
330
A02
100
AcDbEntity
  8
Facebinder
100
AcDbLine
 10
306.394
 20
-21.6371
 30
-0.479092
 11
293.394
 21
-21.6371
 31
-0.479092
  0
ARC
  5
ACA
330
A02
100
AcDbEntity
  8
Facebinder
100
AcDbCircle
 10
293.394
 20
-21.1394
 30
-0.431169
 40
0.5
100
AcDbArc
 50
180
 51
-90
  0
LINE
  5
ACB
330
A02
100
AcDbEntity
  8
Facebinder
100
AcDbLine
 10
292.894
 20
-21.1394
 30
-0.431169
 11
292.894
 21
-8.20023
 31
0.81473
  0
ARC
  5
ACC
330
A02
100
AcDbEntity
  8
Facebinder
100
AcDbCircle
 10
293.394
 20
-8.20023
 30
0.81473
 40
0.497698
100
AcDbArc
 50
90
 51
180
  0
LINE
  5
ACD
330
A02
100
AcDbEntity
  8
Facebinder
100
AcDbLine
 10
293.394
 20
-7.70254
 30
0.862653
 11
306.394
 21
-7.70254
 31
0.862653
  0
ARC
  5
ACE
330
A02
100
AcDbEntity
  8
Facebinder
100
AcDbCircle
 10
306.394
 20
-8.20023
 30
0.81473
 40
0.5
100
AcDbArc
 50
0
 51
90
  0
LINE
  5
ACF
330
A02
100
AcDbEntity
  8
Facebinder
100
AcDbLine
 10
306.894
 20
-8.20023
 30
0.81473
 11
306.894
 21
-21.1394
 31
-0.431169
  0
ARC
  5
AD0
330
A02
100
AcDbEntity
  8
Facebinder
100
AcDbCircle
 10
306.394
 20
-21.1394
 30
-0.431169
 40
0.497698
100
AcDbArc
 50
-90
 51
0
  0
LINE
  5
AD1
330
A02
100
AcDbEntity
  8
Facebinder
100
AcDbLine
 10
282.581
 20
-21.6371
 30
-0.479092
 11
269.582
 21
-21.6371
 31
-0.479092
  0
ARC
  5
AD2
330
A02
100
AcDbEntity
  8
Facebinder
100
AcDbCircle
 10
269.582
 20
-21.1394
 30
-0.431169
 40
0.5
100
AcDbArc
 50
180
 51
-90
  0
LINE
  5
AD3
330
A02
100
AcDbEntity
  8
Facebinder
100
AcDbLine
 10
269.082
 20
-21.1394
 30
-0.431169
 11
269.082
 21
-8.20023
 31
0.81473
  0
ARC
  5
AD4
330
A02
100
AcDbEntity
  8
Facebinder
100
AcDbCircle
 10
269.582
 20
-8.20023
 30
0.81473
 40
0.497698
100
AcDbArc
 50
90
 51
180
  0
LINE
  5
AD5
330
A02
100
AcDbEntity
  8
Facebinder
100
AcDbLine
 10
269.582
 20
-7.70254
 30
0.862653
 11
282.581
 21
-7.70254
 31
0.862653
  0
ARC
  5
AD6
330
A02
100
AcDbEntity
  8
Facebinder
100
AcDbCircle
 10
282.581
 20
-8.20023
 30
0.81473
 40
0.5
100
AcDbArc
 50
0
 51
90
  0
LINE
  5
AD7
330
A02
100
AcDbEntity
  8
Facebinder
100
AcDbLine
 10
283.081
 20
-8.20023
 30
0.81473
 11
283.081
 21
-21.1394
 31
-0.431169
  0
ARC
  5
AD8
330
A02
100
AcDbEntity
  8
Facebinder
100
AcDbCircle
 10
282.581
 20
-21.1394
 30
-0.431169
 40
0.497698
100
AcDbArc
 50
-90
 51
0
  0
LINE
  5
AD9
330
A02
100
AcDbEntity
  8
Facebinder
100
AcDbLine
 10
263.531
 20
-21.6371
 30
-0.479092
 11
250.532
 21
-21.6371
 31
-0.479092
  0
ARC
  5
ADA
330
A02
100
AcDbEntity
  8
Facebinder
100
AcDbCircle
 10
250.532
 20
-21.1394
 30
-0.431169
 40
0.5
100
AcDbArc
 50
180
 51
-90
  0
LINE
  5
ADB
330
A02
100
AcDbEntity
  8
Facebinder
100
AcDbLine
 10
250.032
 20
-21.1394
 30
-0.431169
 11
250.032
 21
-8.20023
 31
0.81473
  0
ARC
  5
ADC
330
A02
100
AcDbEntity
  8
Facebinder
100
AcDbCircle
 10
250.532
 20
-8.20023
 30
0.81473
 40
0.497698
100
AcDbArc
 50
90
 51
180
  0
LINE
  5
ADD
330
A02
100
AcDbEntity
  8
Facebinder
100
AcDbLine
 10
250.532
 20
-7.70254
 30
0.862653
 11
263.531
 21
-7.70254
 31
0.862653
  0
ARC
  5
ADE
330
A02
100
AcDbEntity
  8
Facebinder
100
AcDbCircle
 10
263.531
 20
-8.20023
 30
0.81473
 40
0.5
100
AcDbArc
 50
0
 51
90
  0
LINE
  5
ADF
330
A02
100
AcDbEntity
  8
Facebinder
100
AcDbLine
 10
264.031
 20
-8.20023
 30
0.81473
 11
264.031
 21
-21.1394
 31
-0.431169
  0
ARC
  5
AE0
330
A02
100
AcDbEntity
  8
Facebinder
100
AcDbCircle
 10
263.531
 20
-21.1394
 30
-0.431169
 40
0.497698
100
AcDbArc
 50
-90
 51
0
  0
LINE
  5
AE1
330
A02
100
AcDbEntity
  8
Facebinder
100
AcDbLine
 10
244.481
 20
-21.6371
 30
-0.479092
 11
231.482
 21
-21.6371
 31
-0.479092
  0
ARC
  5
AE2
330
A02
100
AcDbEntity
  8
Facebinder
100
AcDbCircle
 10
231.482
 20
-21.1394
 30
-0.431169
 40
0.5
100
AcDbArc
 50
180
 51
-90
  0
LINE
  5
AE3
330
A02
100
AcDbEntity
  8
Facebinder
100
AcDbLine
 10
230.982
 20
-21.1394
 30
-0.431169
 11
230.982
 21
-8.20023
 31
0.81473
  0
ARC
  5
AE4
330
A02
100
AcDbEntity
  8
Facebinder
100
AcDbCircle
 10
231.482
 20
-8.20023
 30
0.81473
 40
0.497698
100
AcDbArc
 50
90
 51
180
  0
LINE
  5
AE5
330
A02
100
AcDbEntity
  8
Facebinder
100
AcDbLine
 10
231.482
 20
-7.70254
 30
0.862653
 11
244.481
 21
-7.70254
 31
0.862653
  0
ARC
  5
AE6
330
A02
100
AcDbEntity
  8
Facebinder
100
AcDbCircle
 10
244.481
 20
-8.20023
 30
0.81473
 40
0.5
100
AcDbArc
 50
0
 51
90
  0
LINE
  5
AE7
330
A02
100
AcDbEntity
  8
Facebinder
100
AcDbLine
 10
244.981
 20
-8.20023
 30
0.81473
 11
244.981
 21
-21.1394
 31
-0.431169
  0
ARC
  5
AE8
330
A02
100
AcDbEntity
  8
Facebinder
100
AcDbCircle
 10
244.481
 20
-21.1394
 30
-0.431169
 40
0.497698
100
AcDbArc
 50
-90
 51
0
  0
LINE
  5
AE9
330
A02
100
AcDbEntity
  8
Facebinder
100
AcDbLine
 10
225.431
 20
-21.6371
 30
-0.479092
 11
212.432
 21
-21.6371
 31
-0.479092
  0
ARC
  5
AEA
330
A02
100
AcDbEntity
  8
Facebinder
100
AcDbCircle
 10
212.432
 20
-21.1394
 30
-0.431169
 40
0.5
100
AcDbArc
 50
180
 51
-90
  0
LINE
  5
AEB
330
A02
100
AcDbEntity
  8
Facebinder
100
AcDbLine
 10
211.932
 20
-21.1394
 30
-0.431169
 11
211.932
 21
-8.20023
 31
0.81473
  0
ARC
  5
AEC
330
A02
100
AcDbEntity
  8
Facebinder
100
AcDbCircle
 10
212.432
 20
-8.20023
 30
0.81473
 40
0.497698
100
AcDbArc
 50
90
 51
180
  0
LINE
  5
AED
330
A02
100
AcDbEntity
  8
Facebinder
100
AcDbLine
 10
212.432
 20
-7.70254
 30
0.862653
 11
225.431
 21
-7.70254
 31
0.862653
  0
ARC
  5
AEE
330
A02
100
AcDbEntity
  8
Facebinder
100
AcDbCircle
 10
225.431
 20
-8.20023
 30
0.81473
 40
0.5
100
AcDbArc
 50
-1.22133e-12
 51
90
  0
LINE
  5
AEF
330
A02
100
AcDbEntity
  8
Facebinder
100
AcDbLine
 10
225.931
 20
-8.20023
 30
0.81473
 11
225.931
 21
-21.1394
 31
-0.431169
  0
ARC
  5
AF0
330
A02
100
AcDbEntity
  8
Facebinder
100
AcDbCircle
 10
225.431
 20
-21.1394
 30
-0.431169
 40
0.497698
100
AcDbArc
 50
-90
 51
0
  0
LINE
  5
AF1
330
A02
100
AcDbEntity
  8
Facebinder
100
AcDbLine
 10
196.856
 20
-21.6371
 30
-0.479092
 11
183.857
 21
-21.6371
 31
-0.479092
  0
ARC
  5
AF2
330
A02
100
AcDbEntity
  8
Facebinder
100
AcDbCircle
 10
183.857
 20
-21.1394
 30
-0.431169
 40
0.5
100
AcDbArc
 50
180
 51
-90
  0
LINE
  5
AF3
330
A02
100
AcDbEntity
  8
Facebinder
100
AcDbLine
 10
183.357
 20
-21.1394
 30
-0.431169
 11
183.357
 21
-8.20023
 31
0.81473
  0
ARC
  5
AF4
330
A02
100
AcDbEntity
  8
Facebinder
100
AcDbCircle
 10
183.857
 20
-8.20023
 30
0.81473
 40
0.497698
100
AcDbArc
 50
90
 51
180
  0
LINE
  5
AF5
330
A02
100
AcDbEntity
  8
Facebinder
100
AcDbLine
 10
183.857
 20
-7.70254
 30
0.862653
 11
196.856
 21
-7.70254
 31
0.862653
  0
ARC
  5
AF6
330
A02
100
AcDbEntity
  8
Facebinder
100
AcDbCircle
 10
196.856
 20
-8.20023
 30
0.81473
 40
0.5
100
AcDbArc
 50
-1.22133e-12
 51
90
  0
LINE
  5
AF7
330
A02
100
AcDbEntity
  8
Facebinder
100
AcDbLine
 10
197.356
 20
-8.20023
 30
0.81473
 11
197.356
 21
-21.1394
 31
-0.431169
  0
ARC
  5
AF8
330
A02
100
AcDbEntity
  8
Facebinder
100
AcDbCircle
 10
196.856
 20
-21.1394
 30
-0.431169
 40
0.497698
100
AcDbArc
 50
-90
 51
0
  0
LINE
  5
AF9
330
A02
100
AcDbEntity
  8
Facebinder
100
AcDbLine
 10
177.806
 20
-21.6371
 30
-0.479092
 11
164.807
 21
-21.6371
 31
-0.479092
  0
ARC
  5
AFA
330
A02
100
AcDbEntity
  8
Facebinder
100
AcDbCircle
 10
164.807
 20
-21.1394
 30
-0.431169
 40
0.5
100
AcDbArc
 50
180
 51
-90
  0
LINE
  5
AFB
330
A02
100
AcDbEntity
  8
Facebinder
100
AcDbLine
 10
164.307
 20
-21.1394
 30
-0.431169
 11
164.307
 21
-8.20023
 31
0.81473
  0
ARC
  5
AFC
330
A02
100
AcDbEntity
  8
Facebinder
100
AcDbCircle
 10
164.807
 20
-8.20023
 30
0.81473
 40
0.497698
100
AcDbArc
 50
90
 51
180
  0
LINE
  5
AFD
330
A02
100
AcDbEntity
  8
Facebinder
100
AcDbLine
 10
164.807
 20
-7.70254
 30
0.862653
 11
177.806
 21
-7.70254
 31
0.862653
  0
ARC
  5
AFE
330
A02
100
AcDbEntity
  8
Facebinder
100
AcDbCircle
 10
177.806
 20
-8.20023
 30
0.81473
 40
0.5
100
AcDbArc
 50
0
 51
90
  0
LINE
  5
AFF
330
A02
100
AcDbEntity
  8
Facebinder
100
AcDbLine
 10
178.306
 20
-8.20023
 30
0.81473
 11
178.306
 21
-21.1394
 31
-0.431169
  0
ARC
  5
B00
330
A02
100
AcDbEntity
  8
Facebinder
100
AcDbCircle
 10
177.806
 20
-21.1394
 30
-0.431169
 40
0.497698
100
AcDbArc
 50
-90
 51
0
  0
LINE
  5
B01
330
A02
100
AcDbEntity
  8
Facebinder
100
AcDbLine
 10
158.756
 20
-21.6371
 30
-0.479092
 11
145.757
 21
-21.6371
 31
-0.479092
  0
ARC
  5
B02
330
A02
100
AcDbEntity
  8
Facebinder
100
AcDbCircle
 10
145.757
 20
-21.1394
 30
-0.431169
 40
0.5
100
AcDbArc
 50
180
 51
-90
  0
LINE
  5
B03
330
A02
100
AcDbEntity
  8
Facebinder
100
AcDbLine
 10
145.257
 20
-21.1394
 30
-0.431169
 11
145.257
 21
-8.20023
 31
0.81473
  0
ARC
  5
B04
330
A02
100
AcDbEntity
  8
Facebinder
100
AcDbCircle
 10
145.757
 20
-8.20023
 30
0.81473
 40
0.497698
100
AcDbArc
 50
90
 51
180
  0
LINE
  5
B05
330
A02
100
AcDbEntity
  8
Facebinder
100
AcDbLine
 10
145.757
 20
-7.70254
 30
0.862653
 11
158.756
 21
-7.70254
 31
0.862653
  0
ARC
  5
B06
330
A02
100
AcDbEntity
  8
Facebinder
100
AcDbCircle
 10
158.756
 20
-8.20023
 30
0.81473
 40
0.5
100
AcDbArc
 50
0
 51
90
  0
LINE
  5
B07
330
A02
100
AcDbEntity
  8
Facebinder
100
AcDbLine
 10
159.256
 20
-8.20023
 30
0.81473
 11
159.256
 21
-21.1394
 31
-0.431169
  0
ARC
  5
B08
330
A02
100
AcDbEntity
  8
Facebinder
100
AcDbCircle
 10
158.756
 20
-21.1394
 30
-0.431169
 40
0.497698
100
AcDbArc
 50
-90
 51
0
  0
LINE
  5
B09
330
A02
100
AcDbEntity
  8
Facebinder
100
AcDbLine
 10
139.706
 20
-21.6371
 30
-0.479092
 11
126.707
 21
-21.6371
 31
-0.479092
  0
ARC
  5
B0A
330
A02
100
AcDbEntity
  8
Facebinder
100
AcDbCircle
 10
126.707
 20
-21.1394
 30
-0.431169
 40
0.5
100
AcDbArc
 50
180
 51
-90
  0
LINE
  5
B0B
330
A02
100
AcDbEntity
  8
Facebinder
100
AcDbLine
 10
126.207
 20
-21.1394
 30
-0.431169
 11
126.207
 21
-8.20023
 31
0.81473
  0
ARC
  5
B0C
330
A02
100
AcDbEntity
  8
Facebinder
100
AcDbCircle
 10
126.707
 20
-8.20023
 30
0.81473
 40
0.497698
100
AcDbArc
 50
90
 51
180
  0
LINE
  5
B0D
330
A02
100
AcDbEntity
  8
Facebinder
100
AcDbLine
 10
126.707
 20
-7.70254
 30
0.862653
 11
139.706
 21
-7.70254
 31
0.862653
  0
ARC
  5
B0E
330
A02
100
AcDbEntity
  8
Facebinder
100
AcDbCircle
 10
139.706
 20
-8.20023
 30
0.81473
 40
0.5
100
AcDbArc
 50
-1.22133e-12
 51
90
  0
LINE
  5
B0F
330
A02
100
AcDbEntity
  8
Facebinder
100
AcDbLine
 10
140.206
 20
-8.20023
 30
0.81473
 11
140.206
 21
-21.1394
 31
-0.431169
  0
ARC
  5
B10
330
A02
100
AcDbEntity
  8
Facebinder
100
AcDbCircle
 10
139.706
 20
-21.1394
 30
-0.431169
 40
0.497698
100
AcDbArc
 50
-90
 51
0
  0
LINE
  5
B11
330
A02
100
AcDbEntity
  8
Facebinder
100
AcDbLine
 10
111.131
 20
-21.6371
 30
-0.479092
 11
98.1301
 21
-21.6371
 31
-0.479092
  0
ARC
  5
B12
330
A02
100
AcDbEntity
  8
Facebinder
100
AcDbCircle
 10
98.1301
 20
-21.1394
 30
-0.431169
 40
0.5
100
AcDbArc
 50
180
 51
-90
  0
LINE
  5
B13
330
A02
100
AcDbEntity
  8
Facebinder
100
AcDbLine
 10
97.6301
 20
-21.1394
 30
-0.431169
 11
97.6301
 21
-8.20023
 31
0.81473
  0
ARC
  5
B14
330
A02
100
AcDbEntity
  8
Facebinder
100
AcDbCircle
 10
98.1301
 20
-8.20023
 30
0.81473
 40
0.497698
100
AcDbArc
 50
90
 51
180
  0
LINE
  5
B15
330
A02
100
AcDbEntity
  8
Facebinder
100
AcDbLine
 10
98.1301
 20
-7.70254
 30
0.862653
 11
111.131
 21
-7.70254
 31
0.862653
  0
ARC
  5
B16
330
A02
100
AcDbEntity
  8
Facebinder
100
AcDbCircle
 10
111.131
 20
-8.20023
 30
0.81473
 40
0.5
100
AcDbArc
 50
-1.22133e-12
 51
90
  0
LINE
  5
B17
330
A02
100
AcDbEntity
  8
Facebinder
100
AcDbLine
 10
111.631
 20
-8.20023
 30
0.81473
 11
111.631
 21
-21.1394
 31
-0.431169
  0
ARC
  5
B18
330
A02
100
AcDbEntity
  8
Facebinder
100
AcDbCircle
 10
111.131
 20
-21.1394
 30
-0.431169
 40
0.497698
100
AcDbArc
 50
-90
 51
0
  0
LINE
  5
B19
330
A02
100
AcDbEntity
  8
Facebinder
100
AcDbLine
 10
92.0808
 20
-21.6371
 30
-0.479092
 11
79.0815
 21
-21.6371
 31
-0.479092
  0
ARC
  5
B1A
330
A02
100
AcDbEntity
  8
Facebinder
100
AcDbCircle
 10
79.0815
 20
-21.1394
 30
-0.431169
 40
0.5
100
AcDbArc
 50
180
 51
-90
  0
LINE
  5
B1B
330
A02
100
AcDbEntity
  8
Facebinder
100
AcDbLine
 10
78.5815
 20
-21.1394
 30
-0.431169
 11
78.5815
 21
-8.20023
 31
0.81473
  0
ARC
  5
B1C
330
A02
100
AcDbEntity
  8
Facebinder
100
AcDbCircle
 10
79.0815
 20
-8.20023
 30
0.81473
 40
0.497698
100
AcDbArc
 50
90
 51
180
  0
LINE
  5
B1D
330
A02
100
AcDbEntity
  8
Facebinder
100
AcDbLine
 10
79.0815
 20
-7.70254
 30
0.862653
 11
92.0808
 21
-7.70254
 31
0.862653
  0
ARC
  5
B1E
330
A02
100
AcDbEntity
  8
Facebinder
100
AcDbCircle
 10
92.0808
 20
-8.20023
 30
0.81473
 40
0.5
100
AcDbArc
 50
-1.22133e-12
 51
90
  0
LINE
  5
B1F
330
A02
100
AcDbEntity
  8
Facebinder
100
AcDbLine
 10
92.5808
 20
-8.20023
 30
0.81473
 11
92.5808
 21
-21.1394
 31
-0.431169
  0
ARC
  5
B20
330
A02
100
AcDbEntity
  8
Facebinder
100
AcDbCircle
 10
92.0808
 20
-21.1394
 30
-0.431169
 40
0.497698
100
AcDbArc
 50
-90
 51
0
  0
LINE
  5
B21
330
A02
100
AcDbEntity
  8
Facebinder
100
AcDbLine
 10
73.0308
 20
-21.6371
 30
-0.479092
 11
60.0315
 21
-21.6371
 31
-0.479092
  0
ARC
  5
B22
330
A02
100
AcDbEntity
  8
Facebinder
100
AcDbCircle
 10
60.0315
 20
-21.1394
 30
-0.431169
 40
0.5
100
AcDbArc
 50
180
 51
-90
  0
LINE
  5
B23
330
A02
100
AcDbEntity
  8
Facebinder
100
AcDbLine
 10
59.5315
 20
-21.1394
 30
-0.431169
 11
59.5315
 21
-8.20023
 31
0.81473
  0
ARC
  5
B24
330
A02
100
AcDbEntity
  8
Facebinder
100
AcDbCircle
 10
60.0315
 20
-8.20023
 30
0.81473
 40
0.497698
100
AcDbArc
 50
90
 51
180
  0
LINE
  5
B25
330
A02
100
AcDbEntity
  8
Facebinder
100
AcDbLine
 10
60.0315
 20
-7.70254
 30
0.862653
 11
73.0308
 21
-7.70254
 31
0.862653
  0
ARC
  5
B26
330
A02
100
AcDbEntity
  8
Facebinder
100
AcDbCircle
 10
73.0308
 20
-8.20023
 30
0.81473
 40
0.5
100
AcDbArc
 50
-1.22133e-12
 51
90
  0
LINE
  5
B27
330
A02
100
AcDbEntity
  8
Facebinder
100
AcDbLine
 10
73.5308
 20
-8.20023
 30
0.81473
 11
73.5308
 21
-21.1394
 31
-0.431169
  0
ARC
  5
B28
330
A02
100
AcDbEntity
  8
Facebinder
100
AcDbCircle
 10
73.0308
 20
-21.1394
 30
-0.431169
 40
0.497698
100
AcDbArc
 50
-90
 51
0
  0
LINE
  5
B29
330
A02
100
AcDbEntity
  8
Facebinder
100
AcDbLine
 10
53.9808
 20
-21.6371
 30
-0.479092
 11
40.9815
 21
-21.6371
 31
-0.479092
  0
ARC
  5
B2A
330
A02
100
AcDbEntity
  8
Facebinder
100
AcDbCircle
 10
40.9815
 20
-21.1394
 30
-0.431169
 40
0.5
100
AcDbArc
 50
180
 51
-90
  0
LINE
  5
B2B
330
A02
100
AcDbEntity
  8
Facebinder
100
AcDbLine
 10
40.4815
 20
-21.1394
 30
-0.431169
 11
40.4815
 21
-8.20023
 31
0.81473
  0
ARC
  5
B2C
330
A02
100
AcDbEntity
  8
Facebinder
100
AcDbCircle
 10
40.9815
 20
-8.20023
 30
0.81473
 40
0.497698
100
AcDbArc
 50
90
 51
180
  0
LINE
  5
B2D
330
A02
100
AcDbEntity
  8
Facebinder
100
AcDbLine
 10
40.9815
 20
-7.70254
 30
0.862653
 11
53.9808
 21
-7.70254
 31
0.862653
  0
ARC
  5
B2E
330
A02
100
AcDbEntity
  8
Facebinder
100
AcDbCircle
 10
53.9808
 20
-8.20023
 30
0.81473
 40
0.5
100
AcDbArc
 50
0
 51
90
  0
LINE
  5
B2F
330
A02
100
AcDbEntity
  8
Facebinder
100
AcDbLine
 10
54.4808
 20
-8.20023
 30
0.81473
 11
54.4808
 21
-21.1394
 31
-0.431169
  0
ARC
  5
B30
330
A02
100
AcDbEntity
  8
Facebinder
100
AcDbCircle
 10
53.9808
 20
-21.1394
 30
-0.431169
 40
0.497698
100
AcDbArc
 50
-90
 51
0
  0
LINE
  5
B31
330
A02
100
AcDbEntity
  8
Facebinder
100
AcDbLine
 10
22.7625
 20
-30.422
 30
-1.32498
 11
17.7625
 21
-30.422
 31
-1.32498
  0
ARC
  5
B32
330
A02
100
AcDbEntity
  8
Facebinder
100
AcDbCircle
 10
17.7625
 20
-27.4855
 30
-1.04223
 40
2.93642
100
AcDbArc
 50
90
 51
-90
  0
LINE
  5
B33
330
A02
100
AcDbEntity
  8
Facebinder
100
AcDbLine
 10
17.7625
 20
-24.5491
 30
-0.759488
 11
22.7625
 21
-24.5491
 31
-0.759488
  0
ARC
  5
B34
330
A02
100
AcDbEntity
  8
Facebinder
100
AcDbCircle
 10
22.7625
 20
-27.4855
 30
-1.04223
 40
2.93642
100
AcDbArc
 50
-90
 51
90
  0
CIRCLE
  5
B35
330
A02
100
AcDbEntity
  8
Facebinder
100
AcDbCircle
 10
303.948
 20
2.85812
 40
1.1
  0
CIRCLE
  5
B36
330
A02
100
AcDbEntity
  8
Facebinder
100
AcDbCircle
 10
217.203
 20
2.85812
 40
1.1
  0
CIRCLE
  5
B37
330
A02
100
AcDbEntity
  8
Facebinder
100
AcDbCircle
 10
43.7143
 20
2.85812
 40
1.1
  0
CIRCLE
  5
B38
330
A02
100
AcDbEntity
  8
Facebinder
100
AcDbCircle
 10
130.459
 20
2.85812
 40
1.1
  0
CIRCLE
  5
B39
330
A02
100
AcDbEntity
  8
Facebinder
100
AcDbCircle
 10
217.203
 20
-128.292
 40
1.1
  0
LINE
  5
B3A
330
A02
100
AcDbEntity
  8
Facebinder
100
AcDbLine
 10
180.963
 20
-25.9924
 30
-0.898465
 11
314.663
 21
-25.9924
 31
-0.898465
  0
ARC
  5
B3B
330
A02
100
AcDbEntity
  8
Facebinder
100
AcDbCircle
 10
314.663
 20
-27.4855
 30
-1.04223
 40
1.49309
100
AcDbArc
 50
-90
 51
90
  0
LINE
  5
B3C
330
A02
100
AcDbEntity
  8
Facebinder
100
AcDbLine
 10
314.663
 20
-28.9786
 30
-1.186
 11
180.963
 21
-28.9786
 31
-1.186
  0
ARC
  5
B3D
330
A02
100
AcDbEntity
  8
Facebinder
100
AcDbCircle
 10
180.963
 20
-27.4855
 30
-1.04223
 40
1.49309
100
AcDbArc
 50
90
 51
-90
  0
LINE
  5
B3E
330
A02
100
AcDbEntity
  8
Facebinder
100
AcDbLine
 10
33.2625
 20
-25.9924
 30
-0.898465
 11
166.963
 21
-25.9924
 31
-0.898465
  0
ARC
  5
B3F
330
A02
100
AcDbEntity
  8
Facebinder
100
AcDbCircle
 10
166.963
 20
-27.4855
 30
-1.04223
 40
1.49309
100
AcDbArc
 50
-90
 51
90
  0
LINE
  5
B40
330
A02
100
AcDbEntity
  8
Facebinder
100
AcDbLine
 10
166.963
 20
-28.9786
 30
-1.186
 11
33.2625
 21
-28.9786
 31
-1.186
  0
ARC
  5
B41
330
A02
100
AcDbEntity
  8
Facebinder
100
AcDbCircle
 10
33.2625
 20
-27.4855
 30
-1.04223
 40
1.49309
100
AcDbArc
 50
90
 51
-90
  0
CIRCLE
  5
B42
330
A02
100
AcDbEntity
  8
Facebinder
100
AcDbCircle
 10
303.948
 20
-128.292
 40
1.1
  0
CIRCLE
  5
B43
330
A02
100
AcDbEntity
  8
Facebinder
100
AcDbCircle
 10
43.7143
 20
-128.292
 40
1.1
  0
LINE
  5
B44
330
A02
100
AcDbEntity
  8
Facebinder
100
AcDbLine
 10
273.556
 20
-33.8316
 30
-1.65329
 11
273.556
 21
-46.771
 31
-2.89922
  0
ARC
  5
B45
330
A02
100
AcDbEntity
  8
Facebinder
100
AcDbCircle
 10
273.056
 20
-46.771
 30
-2.89922
 40
0.497698
100
AcDbArc
 50
-90
 51
0
  0
LINE
  5
B46
330
A02
100
AcDbEntity
  8
Facebinder
100
AcDbLine
 10
273.056
 20
-47.2687
 30
-2.94714
 11
260.057
 21
-47.2687
 31
-2.94714
  0
ARC
  5
B47
330
A02
100
AcDbEntity
  8
Facebinder
100
AcDbCircle
 10
260.057
 20
-46.771
 30
-2.89922
 40
0.5
100
AcDbArc
 50
180
 51
-90
  0
LINE
  5
B48
330
A02
100
AcDbEntity
  8
Facebinder
100
AcDbLine
 10
259.557
 20
-46.771
 30
-2.89922
 11
259.557
 21
-33.8316
 31
-1.65329
  0
ARC
  5
B49
330
A02
100
AcDbEntity
  8
Facebinder
100
AcDbCircle
 10
260.057
 20
-33.8316
 30
-1.65329
 40
0.497698
100
AcDbArc
 50
90
 51
180
  0
LINE
  5
B4A
330
A02
100
AcDbEntity
  8
Facebinder
100
AcDbLine
 10
260.057
 20
-33.3339
 30
-1.60537
 11
273.056
 21
-33.3339
 31
-1.60537
  0
ARC
  5
B4B
330
A02
100
AcDbEntity
  8
Facebinder
100
AcDbCircle
 10
273.056
 20
-33.8316
 30
-1.65329
 40
0.5
100
AcDbArc
 50
0
 51
90
  0
LINE
  5
B4C
330
A02
100
AcDbEntity
  8
Facebinder
100
AcDbLine
 10
251.282
 20
-33.3339
 30
-1.60537
 11
257.781
 21
-33.3339
 31
-1.60537
  0
ARC
  5
B4D
330
A02
100
AcDbEntity
  8
Facebinder
100
AcDbCircle
 10
257.781
 20
-33.8316
 30
-1.65329
 40
0.5
100
AcDbArc
 50
0
 51
90
  0
LINE
  5
B4E
330
A02
100
AcDbEntity
  8
Facebinder
100
AcDbLine
 10
258.281
 20
-33.8316
 30
-1.65329
 11
258.281
 21
-48.7628
 31
-3.091
  0
ARC
  5
B4F
330
A02
100
AcDbEntity
  8
Facebinder
100
AcDbCircle
 10
257.781
 20
-48.7628
 30
-3.091
 40
0.497698
100
AcDbArc
 50
-90
 51
0
  0
LINE
  5
B50
330
A02
100
AcDbEntity
  8
Facebinder
100
AcDbLine
 10
257.781
 20
-49.2605
 30
-3.13893
 11
251.282
 21
-49.2605
 31
-3.13893
  0
ARC
  5
B51
330
A02
100
AcDbEntity
  8
Facebinder
100
AcDbCircle
 10
251.282
 20
-48.7628
 30
-3.091
 40
0.5
100
AcDbArc
 50
180
 51
-90
  0
LINE
  5
B52
330
A02
100
AcDbEntity
  8
Facebinder
100
AcDbLine
 10
250.782
 20
-48.7628
 30
-3.091
 11
250.782
 21
-33.8316
 31
-1.65329
  0
ARC
  5
B53
330
A02
100
AcDbEntity
  8
Facebinder
100
AcDbCircle
 10
251.282
 20
-33.8316
 30
-1.65329
 40
0.497698
100
AcDbArc
 50
90
 51
180
  0
LINE
  5
B54
330
A02
100
AcDbEntity
  8
Facebinder
100
AcDbLine
 10
278.319
 20
-52.7939
 30
-3.47915
 11
278.319
 21
-65.7333
 31
-4.72508
  0
ARC
  5
B55
330
A02
100
AcDbEntity
  8
Facebinder
100
AcDbCircle
 10
277.819
 20
-65.7333
 30
-4.72508
 40
0.497698
100
AcDbArc
 50
-90
 51
0
  0
LINE
  5
B56
330
A02
100
AcDbEntity
  8
Facebinder
100
AcDbLine
 10
277.819
 20
-66.231
 30
-4.773
 11
264.819
 21
-66.231
 31
-4.773
  0
ARC
  5
B57
330
A02
100
AcDbEntity
  8
Facebinder
100
AcDbCircle
 10
264.819
 20
-65.7333
 30
-4.72508
 40
0.5
100
AcDbArc
 50
180
 51
-90
  0
LINE
  5
B58
330
A02
100
AcDbEntity
  8
Facebinder
100
AcDbLine
 10
264.319
 20
-65.7333
 30
-4.72508
 11
264.319
 21
-52.7939
 31
-3.47915
  0
ARC
  5
B59
330
A02
100
AcDbEntity
  8
Facebinder
100
AcDbCircle
 10
264.819
 20
-52.7939
 30
-3.47915
 40
0.497698
100
AcDbArc
 50
90
 51
180
  0
LINE
  5
B5A
330
A02
100
AcDbEntity
  8
Facebinder
100
AcDbLine
 10
264.819
 20
-52.2962
 30
-3.43123
 11
277.819
 21
-52.2962
 31
-3.43123
  0
ARC
  5
B5B
330
A02
100
AcDbEntity
  8
Facebinder
100
AcDbCircle
 10
277.819
 20
-52.7939
 30
-3.47915
 40
0.5
100
AcDbArc
 50
0
 51
90
  0
LINE
  5
B5C
330
A02
100
AcDbEntity
  8
Facebinder
100
AcDbLine
 10
306.394
 20
-66.231
 30
-4.773
 11
293.394
 21
-66.231
 31
-4.773
  0
ARC
  5
B5D
330
A02
100
AcDbEntity
  8
Facebinder
100
AcDbCircle
 10
293.394
 20
-65.7333
 30
-4.72508
 40
0.5
100
AcDbArc
 50
180
 51
-90
  0
LINE
  5
B5E
330
A02
100
AcDbEntity
  8
Facebinder
100
AcDbLine
 10
292.894
 20
-65.7333
 30
-4.72508
 11
292.894
 21
-52.7939
 31
-3.47915
  0
ARC
  5
B5F
330
A02
100
AcDbEntity
  8
Facebinder
100
AcDbCircle
 10
293.394
 20
-52.7939
 30
-3.47915
 40
0.497698
100
AcDbArc
 50
90
 51
180
  0
LINE
  5
B60
330
A02
100
AcDbEntity
  8
Facebinder
100
AcDbLine
 10
293.394
 20
-52.2962
 30
-3.43123
 11
306.394
 21
-52.2962
 31
-3.43123
  0
ARC
  5
B61
330
A02
100
AcDbEntity
  8
Facebinder
100
AcDbCircle
 10
306.394
 20
-52.7939
 30
-3.47915
 40
0.5
100
AcDbArc
 50
0
 51
90
  0
LINE
  5
B62
330
A02
100
AcDbEntity
  8
Facebinder
100
AcDbLine
 10
306.894
 20
-52.7939
 30
-3.47915
 11
306.894
 21
-65.7333
 31
-4.72508
  0
ARC
  5
B63
330
A02
100
AcDbEntity
  8
Facebinder
100
AcDbCircle
 10
306.394
 20
-65.7333
 30
-4.72508
 40
0.497698
100
AcDbArc
 50
-90
 51
0
  0
LINE
  5
B64
330
A02
100
AcDbEntity
  8
Facebinder
100
AcDbLine
 10
15.881
 20
-47.2687
 30
-2.94714
 11
2.8815
 21
-47.2687
 31
-2.94714
  0
ARC
  5
B65
330
A02
100
AcDbEntity
  8
Facebinder
100
AcDbCircle
 10
2.8815
 20
-46.771
 30
-2.89922
 40
0.5
100
AcDbArc
 50
180
 51
-90
  0
LINE
  5
B66
330
A02
100
AcDbEntity
  8
Facebinder
100
AcDbLine
 10
2.3815
 20
-46.771
 30
-2.89922
 11
2.3815
 21
-33.8316
 31
-1.65329
  0
ARC
  5
B67
330
A02
100
AcDbEntity
  8
Facebinder
100
AcDbCircle
 10
2.8815
 20
-33.8316
 30
-1.65329
 40
0.497698
100
AcDbArc
 50
90
 51
180
  0
LINE
  5
B68
330
A02
100
AcDbEntity
  8
Facebinder
100
AcDbLine
 10
2.8815
 20
-33.3339
 30
-1.60537
 11
15.881
 21
-33.3339
 31
-1.60537
  0
ARC
  5
B69
330
A02
100
AcDbEntity
  8
Facebinder
100
AcDbCircle
 10
15.881
 20
-33.8316
 30
-1.65329
 40
0.5
100
AcDbArc
 50
0
 51
90
  0
LINE
  5
B6A
330
A02
100
AcDbEntity
  8
Facebinder
100
AcDbLine
 10
16.381
 20
-33.8316
 30
-1.65329
 11
16.381
 21
-46.771
 31
-2.89922
  0
ARC
  5
B6B
330
A02
100
AcDbEntity
  8
Facebinder
100
AcDbCircle
 10
15.881
 20
-46.771
 30
-2.89922
 40
0.497698
100
AcDbArc
 50
-90
 51
0
  0
LINE
  5
B6C
330
A02
100
AcDbEntity
  8
Facebinder
100
AcDbLine
 10
20.6435
 20
-66.231
 30
-4.773
 11
7.64401
 21
-66.231
 31
-4.773
  0
ARC
  5
B6D
330
A02
100
AcDbEntity
  8
Facebinder
100
AcDbCircle
 10
7.64401
 20
-65.7333
 30
-4.72508
 40
0.5
100
AcDbArc
 50
180
 51
-90
  0
LINE
  5
B6E
330
A02
100
AcDbEntity
  8
Facebinder
100
AcDbLine
 10
7.14401
 20
-65.7333
 30
-4.72508
 11
7.14401
 21
-52.7939
 31
-3.47915
  0
ARC
  5
B6F
330
A02
100
AcDbEntity
  8
Facebinder
100
AcDbCircle
 10
7.64401
 20
-52.7939
 30
-3.47915
 40
0.497698
100
AcDbArc
 50
90
 51
180
  0
LINE
  5
B70
330
A02
100
AcDbEntity
  8
Facebinder
100
AcDbLine
 10
7.64401
 20
-52.2962
 30
-3.43123
 11
20.6435
 21
-52.2962
 31
-3.43123
  0
ARC
  5
B71
330
A02
100
AcDbEntity
  8
Facebinder
100
AcDbCircle
 10
20.6435
 20
-52.7939
 30
-3.47915
 40
0.5
100
AcDbArc
 50
0
 51
90
  0
LINE
  5
B72
330
A02
100
AcDbEntity
  8
Facebinder
100
AcDbLine
 10
21.1435
 20
-52.7939
 30
-3.47915
 11
21.1435
 21
-65.7333
 31
-4.72508
  0
ARC
  5
B73
330
A02
100
AcDbEntity
  8
Facebinder
100
AcDbCircle
 10
20.6435
 20
-65.7333
 30
-4.72508
 40
0.497698
100
AcDbArc
 50
-90
 51
0
  0
LINE
  5
B74
330
A02
100
AcDbEntity
  8
Facebinder
100
AcDbLine
 10
4.76252
 20
-84.6954
 30
-6.55092
 11
4.76252
 21
-71.7562
 31
-5.30501
  0
ARC
  5
B75
330
A02
100
AcDbEntity
  8
Facebinder
100
AcDbCircle
 10
5.26252
 20
-71.7562
 30
-5.30501
 40
0.497698
100
AcDbArc
 50
90
 51
180
  0
LINE
  5
B76
330
A02
100
AcDbEntity
  8
Facebinder
100
AcDbLine
 10
5.26252
 20
-71.2585
 30
-5.25709
 11
23.0247
 21
-71.2585
 31
-5.25709
  0
ARC
  5
B77
330
A02
100
AcDbEntity
  8
Facebinder
100
AcDbCircle
 10
23.0247
 20
-71.7562
 30
-5.30501
 40
0.5
100
AcDbArc
 50
0
 51
90
  0
LINE
  5
B78
330
A02
100
AcDbEntity
  8
Facebinder
100
AcDbLine
 10
23.5247
 20
-71.7562
 30
-5.30501
 11
23.5247
 21
-84.6954
 31
-6.55092
  0
ARC
  5
B79
330
A02
100
AcDbEntity
  8
Facebinder
100
AcDbCircle
 10
23.0247
 20
-84.6954
 30
-6.55092
 40
0.497698
100
AcDbArc
 50
-90
 51
0
  0
LINE
  5
B7A
330
A02
100
AcDbEntity
  8
Facebinder
100
AcDbLine
 10
23.0247
 20
-85.1931
 30
-6.59884
 11
5.26252
 21
-85.1931
 31
-6.59884
  0
ARC
  5
B7B
330
A02
100
AcDbEntity
  8
Facebinder
100
AcDbCircle
 10
5.26252
 20
-84.6954
 30
-6.55092
 40
0.5
100
AcDbArc
 50
180
 51
-90
  0
LINE
  5
B7C
330
A02
100
AcDbEntity
  8
Facebinder
100
AcDbLine
 10
28.2872
 20
-90.7186
 30
-7.13088
 11
28.2872
 21
-103.658
 31
-8.37682
  0
ARC
  5
B7D
330
A02
100
AcDbEntity
  8
Facebinder
100
AcDbCircle
 10
27.7872
 20
-103.658
 30
-8.37682
 40
0.497698
100
AcDbArc
 50
-90
 51
0
  0
LINE
  5
B7E
330
A02
100
AcDbEntity
  8
Facebinder
100
AcDbLine
 10
27.7872
 20
-104.156
 30
-8.42474
 11
14.7877
 21
-104.156
 31
-8.42474
  0
ARC
  5
B7F
330
A02
100
AcDbEntity
  8
Facebinder
100
AcDbCircle
 10
14.7877
 20
-103.658
 30
-8.37682
 40
0.5
100
AcDbArc
 50
180
 51
-90
  0
LINE
  5
B80
330
A02
100
AcDbEntity
  8
Facebinder
100
AcDbLine
 10
14.2877
 20
-103.658
 30
-8.37682
 11
14.2877
 21
-90.7186
 31
-7.13088
  0
ARC
  5
B81
330
A02
100
AcDbEntity
  8
Facebinder
100
AcDbCircle
 10
14.7877
 20
-90.7186
 30
-7.13088
 40
0.497698
100
AcDbArc
 50
90
 51
180
  0
LINE
  5
B82
330
A02
100
AcDbEntity
  8
Facebinder
100
AcDbLine
 10
14.7877
 20
-90.2209
 30
-7.08296
 11
27.7872
 21
-90.2209
 31
-7.08296
  0
ARC
  5
B83
330
A02
100
AcDbEntity
  8
Facebinder
100
AcDbCircle
 10
27.7872
 20
-90.7186
 30
-7.13088
 40
0.5
100
AcDbArc
 50
0
 51
90
  0
LINE
  5
B84
330
A02
100
AcDbEntity
  8
Facebinder
100
AcDbLine
 10
21.1438
 20
-109.681
 30
-8.95673
 11
21.1438
 21
-122.62
 31
-10.2027
  0
ARC
  5
B85
330
A02
100
AcDbEntity
  8
Facebinder
100
AcDbCircle
 10
20.6438
 20
-122.62
 30
-10.2027
 40
0.497698
100
AcDbArc
 50
-90
 51
0
  0
LINE
  5
B86
330
A02
100
AcDbEntity
  8
Facebinder
100
AcDbLine
 10
20.6438
 20
-123.118
 30
-10.2506
 11
5.26276
 21
-123.118
 31
-10.2506
  0
ARC
  5
B87
330
A02
100
AcDbEntity
  8
Facebinder
100
AcDbCircle
 10
5.26276
 20
-122.62
 30
-10.2027
 40
0.5
100
AcDbArc
 50
180
 51
-90
  0
LINE
  5
B88
330
A02
100
AcDbEntity
  8
Facebinder
100
AcDbLine
 10
4.76276
 20
-122.62
 30
-10.2027
 11
4.76276
 21
-109.681
 31
-8.95673
  0
ARC
  5
B89
330
A02
100
AcDbEntity
  8
Facebinder
100
AcDbCircle
 10
5.26276
 20
-109.681
 30
-8.95673
 40
0.497698
100
AcDbArc
 50
90
 51
180
  0
LINE
  5
B8A
330
A02
100
AcDbEntity
  8
Facebinder
100
AcDbLine
 10
5.26276
 20
-109.183
 30
-8.90881
 11
20.6438
 21
-109.183
 31
-8.90881
  0
ARC
  5
B8B
330
A02
100
AcDbEntity
  8
Facebinder
100
AcDbCircle
 10
20.6438
 20
-109.681
 30
-8.95673
 40
0.5
100
AcDbArc
 50
0
 51
90
  0
LINE
  5
B8C
330
A02
100
AcDbEntity
  8
Facebinder
100
AcDbLine
 10
44.9563
 20
-109.681
 30
-8.95673
 11
44.9563
 21
-122.62
 31
-10.2027
  0
ARC
  5
B8D
330
A02
100
AcDbEntity
  8
Facebinder
100
AcDbCircle
 10
44.4563
 20
-122.62
 30
-10.2027
 40
0.497698
100
AcDbArc
 50
-90
 51
0
  0
LINE
  5
B8E
330
A02
100
AcDbEntity
  8
Facebinder
100
AcDbLine
 10
44.4563
 20
-123.118
 30
-10.2506
 11
29.0738
 21
-123.118
 31
-10.2506
  0
ARC
  5
B8F
330
A02
100
AcDbEntity
  8
Facebinder
100
AcDbCircle
 10
29.0738
 20
-122.62
 30
-10.2027
 40
0.5
100
AcDbArc
 50
180
 51
-90
  0
LINE
  5
B90
330
A02
100
AcDbEntity
  8
Facebinder
100
AcDbLine
 10
28.5738
 20
-122.62
 30
-10.2027
 11
28.5738
 21
-109.681
 31
-8.95673
  0
ARC
  5
B91
330
A02
100
AcDbEntity
  8
Facebinder
100
AcDbCircle
 10
29.0738
 20
-109.681
 30
-8.95673
 40
0.497698
100
AcDbArc
 50
90
 51
180
  0
LINE
  5
B92
330
A02
100
AcDbEntity
  8
Facebinder
100
AcDbLine
 10
29.0738
 20
-109.183
 30
-8.90881
 11
44.4563
 21
-109.183
 31
-8.90881
  0
ARC
  5
B93
330
A02
100
AcDbEntity
  8
Facebinder
100
AcDbCircle
 10
44.4563
 20
-109.681
 30
-8.95673
 40
0.5
100
AcDbArc
 50
0
 51
90
  0
LINE
  5
B94
330
A02
100
AcDbEntity
  8
Facebinder
100
AcDbLine
 10
330.163
 20
-30.422
 30
-1.32498
 11
325.163
 21
-30.422
 31
-1.32498
  0
ARC
  5
B95
330
A02
100
AcDbEntity
  8
Facebinder
100
AcDbCircle
 10
325.163
 20
-27.4855
 30
-1.04223
 40
2.93642
100
AcDbArc
 50
90
 51
-90
  0
LINE
  5
B96
330
A02
100
AcDbEntity
  8
Facebinder
100
AcDbLine
 10
325.163
 20
-24.5491
 30
-0.759488
 11
330.163
 21
-24.5491
 31
-0.759488
  0
ARC
  5
B97
330
A02
100
AcDbEntity
  8
Facebinder
100
AcDbCircle
 10
330.163
 20
-27.4855
 30
-1.04223
 40
2.93642
100
AcDbArc
 50
-90
 51
90
  0
LINE
  5
B98
330
A02
100
AcDbEntity
  8
Facebinder
100
AcDbLine
 10
331.494
 20
-33.3339
 30
-1.60537
 11
344.494
 21
-33.3339
 31
-1.60537
  0
ARC
  5
B99
330
A02
100
AcDbEntity
  8
Facebinder
100
AcDbCircle
 10
344.494
 20
-33.8316
 30
-1.65329
 40
0.5
100
AcDbArc
 50
0
 51
90
  0
LINE
  5
B9A
330
A02
100
AcDbEntity
  8
Facebinder
100
AcDbLine
 10
344.994
 20
-33.8316
 30
-1.65329
 11
344.994
 21
-46.771
 31
-2.89922
  0
ARC
  5
B9B
330
A02
100
AcDbEntity
  8
Facebinder
100
AcDbCircle
 10
344.494
 20
-46.771
 30
-2.89922
 40
0.497698
100
AcDbArc
 50
-90
 51
0
  0
LINE
  5
B9C
330
A02
100
AcDbEntity
  8
Facebinder
100
AcDbLine
 10
344.494
 20
-47.2687
 30
-2.94714
 11
331.494
 21
-47.2687
 31
-2.94714
  0
ARC
  5
B9D
330
A02
100
AcDbEntity
  8
Facebinder
100
AcDbCircle
 10
331.494
 20
-46.771
 30
-2.89922
 40
0.5
100
AcDbArc
 50
180
 51
-90
  0
LINE
  5
B9E
330
A02
100
AcDbEntity
  8
Facebinder
100
AcDbLine
 10
330.994
 20
-46.771
 30
-2.89922
 11
330.994
 21
-33.8316
 31
-1.65329
  0
ARC
  5
B9F
330
A02
100
AcDbEntity
  8
Facebinder
100
AcDbCircle
 10
331.494
 20
-33.8316
 30
-1.65329
 40
0.497698
100
AcDbArc
 50
90
 51
180
  0
LINE
  5
BA0
330
A02
100
AcDbEntity
  8
Facebinder
100
AcDbLine
 10
330.994
 20
-21.1394
 30
-0.431169
 11
330.994
 21
-8.20023
 31
0.81473
  0
ARC
  5
BA1
330
A02
100
AcDbEntity
  8
Facebinder
100
AcDbCircle
 10
331.494
 20
-8.20023
 30
0.81473
 40
0.497698
100
AcDbArc
 50
90
 51
180
  0
LINE
  5
BA2
330
A02
100
AcDbEntity
  8
Facebinder
100
AcDbLine
 10
331.494
 20
-7.70254
 30
0.862653
 11
344.494
 21
-7.70254
 31
0.862653
  0
ARC
  5
BA3
330
A02
100
AcDbEntity
  8
Facebinder
100
AcDbCircle
 10
344.494
 20
-8.20023
 30
0.81473
 40
0.5
100
AcDbArc
 50
0
 51
90
  0
LINE
  5
BA4
330
A02
100
AcDbEntity
  8
Facebinder
100
AcDbLine
 10
344.994
 20
-8.20023
 30
0.81473
 11
344.994
 21
-21.1394
 31
-0.431169
  0
ARC
  5
BA5
330
A02
100
AcDbEntity
  8
Facebinder
100
AcDbCircle
 10
344.494
 20
-21.1394
 30
-0.431169
 40
0.497698
100
AcDbArc
 50
-90
 51
0
  0
LINE
  5
BA6
330
A02
100
AcDbEntity
  8
Facebinder
100
AcDbLine
 10
344.494
 20
-21.6371
 30
-0.479092
 11
331.494
 21
-21.6371
 31
-0.479092
  0
ARC
  5
BA7
330
A02
100
AcDbEntity
  8
Facebinder
100
AcDbCircle
 10
331.494
 20
-21.1394
 30
-0.431169
 40
0.5
100
AcDbArc
 50
180
 51
-90
  0
LINE
  5
BA8
330
A02
100
AcDbEntity
  8
Facebinder
100
AcDbLine
 10
331.494
 20
-52.2962
 30
-3.43123
 11
344.494
 21
-52.2962
 31
-3.43123
  0
ARC
  5
BA9
330
A02
100
AcDbEntity
  8
Facebinder
100
AcDbCircle
 10
344.494
 20
-52.7939
 30
-3.47915
 40
0.5
100
AcDbArc
 50
0
 51
90
  0
LINE
  5
BAA
330
A02
100
AcDbEntity
  8
Facebinder
100
AcDbLine
 10
344.994
 20
-52.7939
 30
-3.47915
 11
344.994
 21
-65.7333
 31
-4.72508
  0
ARC
  5
BAB
330
A02
100
AcDbEntity
  8
Facebinder
100
AcDbCircle
 10
344.494
 20
-65.7333
 30
-4.72508
 40
0.497698
100
AcDbArc
 50
-90
 51
0
  0
LINE
  5
BAC
330
A02
100
AcDbEntity
  8
Facebinder
100
AcDbLine
 10
344.494
 20
-66.231
 30
-4.773
 11
331.494
 21
-66.231
 31
-4.773
  0
ARC
  5
BAD
330
A02
100
AcDbEntity
  8
Facebinder
100
AcDbCircle
 10
331.494
 20
-65.7333
 30
-4.72508
 40
0.5
100
AcDbArc
 50
180
 51
-90
  0
LINE
  5
BAE
330
A02
100
AcDbEntity
  8
Facebinder
100
AcDbLine
 10
330.994
 20
-65.7333
 30
-4.72508
 11
330.994
 21
-52.7939
 31
-3.47915
  0
ARC
  5
BAF
330
A02
100
AcDbEntity
  8
Facebinder
100
AcDbCircle
 10
331.494
 20
-52.7939
 30
-3.47915
 40
0.497698
100
AcDbArc
 50
90
 51
180
  0
LINE
  5
BB0
330
A02
100
AcDbEntity
  8
Facebinder
100
AcDbLine
 10
149.231
 20
-123.118
 30
-10.2506
 11
124.324
 21
-123.118
 31
-10.2506
  0
ARC
  5
BB1
330
A02
100
AcDbEntity
  8
Facebinder
100
AcDbCircle
 10
124.324
 20
-122.62
 30
-10.2026
 40
0.5
100
AcDbArc
 50
180
 51
-90
  0
LINE
  5
BB2
330
A02
100
AcDbEntity
  8
Facebinder
100
AcDbLine
 10
123.824
 20
-122.62
 30
-10.2026
 11
123.824
 21
-109.681
 31
-8.95673
  0
ARC
  5
BB3
330
A02
100
AcDbEntity
  8
Facebinder
100
AcDbCircle
 10
124.324
 20
-109.681
 30
-8.95673
 40
0.497698
100
AcDbArc
 50
90
 51
180
  0
LINE
  5
BB4
330
A02
100
AcDbEntity
  8
Facebinder
100
AcDbLine
 10
124.324
 20
-109.183
 30
-8.90881
 11
149.231
 21
-109.183
 31
-8.90881
  0
ARC
  5
BB5
330
A02
100
AcDbEntity
  8
Facebinder
100
AcDbCircle
 10
149.231
 20
-109.681
 30
-8.95673
 40
0.5
100
AcDbArc
 50
0
 51
90
  0
LINE
  5
BB6
330
A02
100
AcDbEntity
  8
Facebinder
100
AcDbLine
 10
149.731
 20
-109.681
 30
-8.95673
 11
149.731
 21
-122.62
 31
-10.2026
  0
ARC
  5
BB7
330
A02
100
AcDbEntity
  8
Facebinder
100
AcDbCircle
 10
149.231
 20
-122.62
 30
-10.2026
 40
0.497698
100
AcDbArc
 50
-90
 51
0
  0
LINE
  5
BB8
330
A02
100
AcDbEntity
  8
Facebinder
100
AcDbLine
 10
176.449
 20
-124.612
 30
-10.3945
 11
176.449
 21
-109.681
 31
-8.95673
  0
ARC
  5
BB9
330
A02
100
AcDbEntity
  8
Facebinder
100
AcDbCircle
 10
176.949
 20
-109.681
 30
-8.95673
 40
0.497698
100
AcDbArc
 50
90
 51
180
  0
LINE
  5
BBA
330
A02
100
AcDbEntity
  8
Facebinder
100
AcDbLine
 10
176.949
 20
-109.183
 30
-8.90881
 11
189.95
 21
-109.183
 31
-8.90881
  0
ARC
  5
BBB
330
A02
100
AcDbEntity
  8
Facebinder
100
AcDbCircle
 10
189.95
 20
-109.681
 30
-8.95673
 40
0.5
100
AcDbArc
 50
0
 51
90
  0
LINE
  5
BBC
330
A02
100
AcDbEntity
  8
Facebinder
100
AcDbLine
 10
190.45
 20
-109.681
 30
-8.95673
 11
190.45
 21
-124.612
 31
-10.3945
  0
ARC
  5
BBD
330
A02
100
AcDbEntity
  8
Facebinder
100
AcDbCircle
 10
189.95
 20
-124.612
 30
-10.3945
 40
0.497698
100
AcDbArc
 50
-90
 51
0
  0
LINE
  5
BBE
330
A02
100
AcDbEntity
  8
Facebinder
100
AcDbLine
 10
189.95
 20
-125.11
 30
-10.4424
 11
176.949
 21
-125.11
 31
-10.4424
  0
ARC
  5
BBF
330
A02
100
AcDbEntity
  8
Facebinder
100
AcDbCircle
 10
176.949
 20
-124.612
 30
-10.3945
 40
0.5
100
AcDbArc
 50
180
 51
-90
  0
LINE
  5
BC0
330
A02
100
AcDbEntity
  8
Facebinder
100
AcDbLine
 10
325.944
 20
-109.681
 30
-8.95673
 11
325.944
 21
-122.62
 31
-10.2027
  0
ARC
  5
BC1
330
A02
100
AcDbEntity
  8
Facebinder
100
AcDbCircle
 10
325.444
 20
-122.62
 30
-10.2027
 40
0.497698
100
AcDbArc
 50
-90
 51
0
  0
LINE
  5
BC2
330
A02
100
AcDbEntity
  8
Facebinder
100
AcDbLine
 10
325.444
 20
-123.118
 30
-10.2506
 11
312.444
 21
-123.118
 31
-10.2506
  0
ARC
  5
BC3
330
A02
100
AcDbEntity
  8
Facebinder
100
AcDbCircle
 10
312.444
 20
-122.62
 30
-10.2027
 40
0.5
100
AcDbArc
 50
180
 51
-90
  0
LINE
  5
BC4
330
A02
100
AcDbEntity
  8
Facebinder
100
AcDbLine
 10
311.944
 20
-122.62
 30
-10.2027
 11
311.944
 21
-109.681
 31
-8.95673
  0
ARC
  5
BC5
330
A02
100
AcDbEntity
  8
Facebinder
100
AcDbCircle
 10
312.444
 20
-109.681
 30
-8.95673
 40
0.497698
100
AcDbArc
 50
90
 51
180
  0
LINE
  5
BC6
330
A02
100
AcDbEntity
  8
Facebinder
100
AcDbLine
 10
312.444
 20
-109.183
 30
-8.90881
 11
325.444
 21
-109.183
 31
-8.90881
  0
ARC
  5
BC7
330
A02
100
AcDbEntity
  8
Facebinder
100
AcDbCircle
 10
325.444
 20
-109.681
 30
-8.95673
 40
0.5
100
AcDbArc
 50
0
 51
90
  0
LINE
  5
BC8
330
A02
100
AcDbEntity
  8
Facebinder
100
AcDbLine
 10
306.394
 20
-123.118
 30
-10.2506
 11
293.394
 21
-123.118
 31
-10.2506
  0
ARC
  5
BC9
330
A02
100
AcDbEntity
  8
Facebinder
100
AcDbCircle
 10
293.394
 20
-122.62
 30
-10.2027
 40
0.5
100
AcDbArc
 50
180
 51
-90
  0
LINE
  5
BCA
330
A02
100
AcDbEntity
  8
Facebinder
100
AcDbLine
 10
292.894
 20
-122.62
 30
-10.2027
 11
292.894
 21
-109.681
 31
-8.95673
  0
ARC
  5
BCB
330
A02
100
AcDbEntity
  8
Facebinder
100
AcDbCircle
 10
293.394
 20
-109.681
 30
-8.95673
 40
0.497698
100
AcDbArc
 50
90
 51
180
  0
LINE
  5
BCC
330
A02
100
AcDbEntity
  8
Facebinder
100
AcDbLine
 10
293.394
 20
-109.183
 30
-8.90881
 11
306.394
 21
-109.183
 31
-8.90881
  0
ARC
  5
BCD
330
A02
100
AcDbEntity
  8
Facebinder
100
AcDbCircle
 10
306.394
 20
-109.681
 30
-8.95673
 40
0.5
100
AcDbArc
 50
0
 51
90
  0
LINE
  5
BCE
330
A02
100
AcDbEntity
  8
Facebinder
100
AcDbLine
 10
306.894
 20
-109.681
 30
-8.95673
 11
306.894
 21
-122.62
 31
-10.2027
  0
ARC
  5
BCF
330
A02
100
AcDbEntity
  8
Facebinder
100
AcDbCircle
 10
306.394
 20
-122.62
 30
-10.2027
 40
0.497698
100
AcDbArc
 50
-90
 51
0
  0
LINE
  5
BD0
330
A02
100
AcDbEntity
  8
Facebinder
100
AcDbLine
 10
312.444
 20
-90.2209
 30
-7.08296
 11
325.444
 21
-90.2209
 31
-7.08296
  0
ARC
  5
BD1
330
A02
100
AcDbEntity
  8
Facebinder
100
AcDbCircle
 10
325.444
 20
-90.7186
 30
-7.13088
 40
0.5
100
AcDbArc
 50
0
 51
90
  0
LINE
  5
BD2
330
A02
100
AcDbEntity
  8
Facebinder
100
AcDbLine
 10
325.944
 20
-90.7186
 30
-7.13088
 11
325.944
 21
-103.658
 31
-8.37682
  0
ARC
  5
BD3
330
A02
100
AcDbEntity
  8
Facebinder
100
AcDbCircle
 10
325.444
 20
-103.658
 30
-8.37682
 40
0.497698
100
AcDbArc
 50
-90
 51
0
  0
LINE
  5
BD4
330
A02
100
AcDbEntity
  8
Facebinder
100
AcDbLine
 10
325.444
 20
-104.156
 30
-8.42474
 11
312.444
 21
-104.156
 31
-8.42474
  0
ARC
  5
BD5
330
A02
100
AcDbEntity
  8
Facebinder
100
AcDbCircle
 10
312.444
 20
-103.658
 30
-8.37682
 40
0.5
100
AcDbArc
 50
180
 51
-90
  0
LINE
  5
BD6
330
A02
100
AcDbEntity
  8
Facebinder
100
AcDbLine
 10
311.944
 20
-103.658
 30
-8.37682
 11
311.944
 21
-90.7186
 31
-7.13088
  0
ARC
  5
BD7
330
A02
100
AcDbEntity
  8
Facebinder
100
AcDbCircle
 10
312.444
 20
-90.7186
 30
-7.13088
 40
0.497698
100
AcDbArc
 50
90
 51
180
  0
LINE
  5
BD8
330
A02
100
AcDbEntity
  8
Facebinder
100
AcDbLine
 10
312.444
 20
-52.2962
 30
-3.43123
 11
325.444
 21
-52.2962
 31
-3.43123
  0
ARC
  5
BD9
330
A02
100
AcDbEntity
  8
Facebinder
100
AcDbCircle
 10
325.444
 20
-52.7939
 30
-3.47915
 40
0.5
100
AcDbArc
 50
0
 51
90
  0
LINE
  5
BDA
330
A02
100
AcDbEntity
  8
Facebinder
100
AcDbLine
 10
325.944
 20
-52.7939
 30
-3.47915
 11
325.944
 21
-65.7333
 31
-4.72508
  0
ARC
  5
BDB
330
A02
100
AcDbEntity
  8
Facebinder
100
AcDbCircle
 10
325.444
 20
-65.7333
 30
-4.72508
 40
0.497698
100
AcDbArc
 50
-90
 51
0
  0
LINE
  5
BDC
330
A02
100
AcDbEntity
  8
Facebinder
100
AcDbLine
 10
325.444
 20
-66.231
 30
-4.773
 11
312.444
 21
-66.231
 31
-4.773
  0
ARC
  5
BDD
330
A02
100
AcDbEntity
  8
Facebinder
100
AcDbCircle
 10
312.444
 20
-65.7333
 30
-4.72508
 40
0.5
100
AcDbArc
 50
180
 51
-90
  0
LINE
  5
BDE
330
A02
100
AcDbEntity
  8
Facebinder
100
AcDbLine
 10
311.944
 20
-65.7333
 30
-4.72508
 11
311.944
 21
-52.7939
 31
-3.47915
  0
ARC
  5
BDF
330
A02
100
AcDbEntity
  8
Facebinder
100
AcDbCircle
 10
312.444
 20
-52.7939
 30
-3.47915
 40
0.497698
100
AcDbArc
 50
90
 51
180
  0
LINE
  5
BE0
330
A02
100
AcDbEntity
  8
Facebinder
100
AcDbLine
 10
311.944
 20
-46.771
 30
-2.89922
 11
311.944
 21
-33.8316
 31
-1.65329
  0
ARC
  5
BE1
330
A02
100
AcDbEntity
  8
Facebinder
100
AcDbCircle
 10
312.444
 20
-33.8316
 30
-1.65329
 40
0.497698
100
AcDbArc
 50
90
 51
180
  0
LINE
  5
BE2
330
A02
100
AcDbEntity
  8
Facebinder
100
AcDbLine
 10
312.444
 20
-33.3339
 30
-1.60537
 11
325.444
 21
-33.3339
 31
-1.60537
  0
ARC
  5
BE3
330
A02
100
AcDbEntity
  8
Facebinder
100
AcDbCircle
 10
325.444
 20
-33.8316
 30
-1.65329
 40
0.5
100
AcDbArc
 50
0
 51
90
  0
LINE
  5
BE4
330
A02
100
AcDbEntity
  8
Facebinder
100
AcDbLine
 10
325.944
 20
-33.8316
 30
-1.65329
 11
325.944
 21
-46.771
 31
-2.89922
  0
ARC
  5
BE5
330
A02
100
AcDbEntity
  8
Facebinder
100
AcDbCircle
 10
325.444
 20
-46.771
 30
-2.89922
 40
0.497698
100
AcDbArc
 50
-90
 51
0
  0
LINE
  5
BE6
330
A02
100
AcDbEntity
  8
Facebinder
100
AcDbLine
 10
325.444
 20
-47.2687
 30
-2.94714
 11
312.444
 21
-47.2687
 31
-2.94714
  0
ARC
  5
BE7
330
A02
100
AcDbEntity
  8
Facebinder
100
AcDbCircle
 10
312.444
 20
-46.771
 30
-2.89922
 40
0.5
100
AcDbArc
 50
180
 51
-90
  0
LINE
  5
BE8
330
A02
100
AcDbEntity
  8
Facebinder
100
AcDbLine
 10
330.994
 20
-122.62
 30
-10.2027
 11
330.994
 21
-109.681
 31
-8.95673
  0
ARC
  5
BE9
330
A02
100
AcDbEntity
  8
Facebinder
100
AcDbCircle
 10
331.494
 20
-109.681
 30
-8.95673
 40
0.497698
100
AcDbArc
 50
90
 51
180
  0
LINE
  5
BEA
330
A02
100
AcDbEntity
  8
Facebinder
100
AcDbLine
 10
331.494
 20
-109.183
 30
-8.90881
 11
344.494
 21
-109.183
 31
-8.90881
  0
ARC
  5
BEB
330
A02
100
AcDbEntity
  8
Facebinder
100
AcDbCircle
 10
344.494
 20
-109.681
 30
-8.95673
 40
0.5
100
AcDbArc
 50
0
 51
90
  0
LINE
  5
BEC
330
A02
100
AcDbEntity
  8
Facebinder
100
AcDbLine
 10
344.994
 20
-109.681
 30
-8.95673
 11
344.994
 21
-122.62
 31
-10.2027
  0
ARC
  5
BED
330
A02
100
AcDbEntity
  8
Facebinder
100
AcDbCircle
 10
344.494
 20
-122.62
 30
-10.2027
 40
0.497698
100
AcDbArc
 50
-90
 51
0
  0
LINE
  5
BEE
330
A02
100
AcDbEntity
  8
Facebinder
100
AcDbLine
 10
344.494
 20
-123.118
 30
-10.2506
 11
331.494
 21
-123.118
 31
-10.2506
  0
ARC
  5
BEF
330
A02
100
AcDbEntity
  8
Facebinder
100
AcDbCircle
 10
331.494
 20
-122.62
 30
-10.2027
 40
0.5
100
AcDbArc
 50
180
 51
-90
  0
LINE
  5
BF0
330
A02
100
AcDbEntity
  8
Facebinder
100
AcDbLine
 10
251.138
 20
-90.7186
 30
-7.13088
 11
251.138
 21
-105.65
 31
-8.56859
  0
ARC
  5
BF1
330
A02
100
AcDbEntity
  8
Facebinder
100
AcDbCircle
 10
250.638
 20
-105.65
 30
-8.56859
 40
0.497698
100
AcDbArc
 50
-90
 51
0
  0
LINE
  5
BF2
330
A02
100
AcDbEntity
  8
Facebinder
100
AcDbLine
 10
250.638
 20
-106.147
 30
-8.61651
 11
244.138
 21
-106.147
 31
-8.61651
  0
ARC
  5
BF3
330
A02
100
AcDbEntity
  8
Facebinder
100
AcDbCircle
 10
244.138
 20
-105.65
 30
-8.56859
 40
0.5
100
AcDbArc
 50
180
 51
-90
  0
LINE
  5
BF4
330
A02
100
AcDbEntity
  8
Facebinder
100
AcDbLine
 10
243.638
 20
-105.65
 30
-8.56859
 11
243.638
 21
-90.7186
 31
-7.13088
  0
ARC
  5
BF5
330
A02
100
AcDbEntity
  8
Facebinder
100
AcDbCircle
 10
244.138
 20
-90.7186
 30
-7.13088
 40
0.497698
100
AcDbArc
 50
90
 51
180
  0
LINE
  5
BF6
330
A02
100
AcDbEntity
  8
Facebinder
100
AcDbLine
 10
244.138
 20
-90.2209
 30
-7.08296
 11
250.638
 21
-90.2209
 31
-7.08296
  0
ARC
  5
BF7
330
A02
100
AcDbEntity
  8
Facebinder
100
AcDbCircle
 10
250.638
 20
-90.7186
 30
-7.13088
 40
0.5
100
AcDbArc
 50
0
 51
90
  0
LINE
  5
BF8
330
A02
100
AcDbEntity
  8
Facebinder
100
AcDbLine
 10
268.188
 20
-90.2209
 30
-7.08296
 11
274.687
 21
-90.2209
 31
-7.08296
  0
ARC
  5
BF9
330
A02
100
AcDbEntity
  8
Facebinder
100
AcDbCircle
 10
274.687
 20
-90.7186
 30
-7.13088
 40
0.5
100
AcDbArc
 50
0
 51
90
  0
LINE
  5
BFA
330
A02
100
AcDbEntity
  8
Facebinder
100
AcDbLine
 10
275.187
 20
-90.7186
 30
-7.13088
 11
275.187
 21
-105.65
 31
-8.56859
  0
ARC
  5
BFB
330
A02
100
AcDbEntity
  8
Facebinder
100
AcDbCircle
 10
274.687
 20
-105.65
 30
-8.56859
 40
0.497698
100
AcDbArc
 50
-90
 51
0
  0
LINE
  5
BFC
330
A02
100
AcDbEntity
  8
Facebinder
100
AcDbLine
 10
274.687
 20
-106.147
 30
-8.61651
 11
268.188
 21
-106.147
 31
-8.61651
  0
ARC
  5
BFD
330
A02
100
AcDbEntity
  8
Facebinder
100
AcDbCircle
 10
268.188
 20
-105.65
 30
-8.56859
 40
0.5
100
AcDbArc
 50
180
 51
-90
  0
LINE
  5
BFE
330
A02
100
AcDbEntity
  8
Facebinder
100
AcDbLine
 10
267.688
 20
-105.65
 30
-8.56859
 11
267.688
 21
-90.7186
 31
-7.13088
  0
ARC
  5
BFF
330
A02
100
AcDbEntity
  8
Facebinder
100
AcDbCircle
 10
268.188
 20
-90.7186
 30
-7.13088
 40
0.497698
100
AcDbArc
 50
90
 51
180
  0
LINE
  5
C00
330
A02
100
AcDbEntity
  8
Facebinder
100
AcDbLine
 10
252.912
 20
-90.2209
 30
-7.08296
 11
265.912
 21
-90.2209
 31
-7.08296
  0
ARC
  5
C01
330
A02
100
AcDbEntity
  8
Facebinder
100
AcDbCircle
 10
265.912
 20
-90.7186
 30
-7.13088
 40
0.5
100
AcDbArc
 50
0
 51
90
  0
LINE
  5
C02
330
A02
100
AcDbEntity
  8
Facebinder
100
AcDbLine
 10
266.412
 20
-90.7186
 30
-7.13088
 11
266.412
 21
-103.658
 31
-8.37682
  0
ARC
  5
C03
330
A02
100
AcDbEntity
  8
Facebinder
100
AcDbCircle
 10
265.912
 20
-103.658
 30
-8.37682
 40
0.497698
100
AcDbArc
 50
-90
 51
0
  0
LINE
  5
C04
330
A02
100
AcDbEntity
  8
Facebinder
100
AcDbLine
 10
265.912
 20
-104.156
 30
-8.42474
 11
252.912
 21
-104.156
 31
-8.42474
  0
ARC
  5
C05
330
A02
100
AcDbEntity
  8
Facebinder
100
AcDbCircle
 10
252.912
 20
-103.658
 30
-8.37682
 40
0.5
100
AcDbArc
 50
180
 51
-90
  0
LINE
  5
C06
330
A02
100
AcDbEntity
  8
Facebinder
100
AcDbLine
 10
252.412
 20
-103.658
 30
-8.37682
 11
252.412
 21
-90.7186
 31
-7.13088
  0
ARC
  5
C07
330
A02
100
AcDbEntity
  8
Facebinder
100
AcDbCircle
 10
252.912
 20
-90.7186
 30
-7.13088
 40
0.497698
100
AcDbArc
 50
90
 51
180
  0
LINE
  5
C08
330
A02
100
AcDbEntity
  8
Facebinder
100
AcDbLine
 10
255.9
 20
-71.7562
 30
-5.30501
 11
255.9
 21
-86.6874
 31
-6.74273
  0
ARC
  5
C09
330
A02
100
AcDbEntity
  8
Facebinder
100
AcDbCircle
 10
255.4
 20
-86.6874
 30
-6.74273
 40
0.497698
100
AcDbArc
 50
-90
 51
0
  0
LINE
  5
C0A
330
A02
100
AcDbEntity
  8
Facebinder
100
AcDbLine
 10
255.4
 20
-87.1851
 30
-6.79065
 11
248.899
 21
-87.1851
 31
-6.79065
  0
ARC
  5
C0B
330
A02
100
AcDbEntity
  8
Facebinder
100
AcDbCircle
 10
248.899
 20
-86.6874
 30
-6.74273
 40
0.5
100
AcDbArc
 50
180
 51
-90
  0
LINE
  5
C0C
330
A02
100
AcDbEntity
  8
Facebinder
100
AcDbLine
 10
248.399
 20
-86.6874
 30
-6.74273
 11
248.399
 21
-71.7562
 31
-5.30501
  0
ARC
  5
C0D
330
A02
100
AcDbEntity
  8
Facebinder
100
AcDbCircle
 10
248.899
 20
-71.7562
 30
-5.30501
 40
0.497698
100
AcDbArc
 50
90
 51
180
  0
LINE
  5
C0E
330
A02
100
AcDbEntity
  8
Facebinder
100
AcDbLine
 10
248.899
 20
-71.2585
 30
-5.25709
 11
255.4
 21
-71.2585
 31
-5.25709
  0
ARC
  5
C0F
330
A02
100
AcDbEntity
  8
Facebinder
100
AcDbCircle
 10
255.4
 20
-71.7562
 30
-5.30501
 40
0.5
100
AcDbArc
 50
0
 51
90
  0
LINE
  5
C10
330
A02
100
AcDbEntity
  8
Facebinder
100
AcDbLine
 10
271.175
 20
-71.7562
 30
-5.30501
 11
271.175
 21
-84.6956
 31
-6.55094
  0
ARC
  5
C11
330
A02
100
AcDbEntity
  8
Facebinder
100
AcDbCircle
 10
270.675
 20
-84.6956
 30
-6.55094
 40
0.497698
100
AcDbArc
 50
-90
 51
0
  0
LINE
  5
C12
330
A02
100
AcDbEntity
  8
Facebinder
100
AcDbLine
 10
270.675
 20
-85.1933
 30
-6.59886
 11
257.674
 21
-85.1933
 31
-6.59886
  0
ARC
  5
C13
330
A02
100
AcDbEntity
  8
Facebinder
100
AcDbCircle
 10
257.674
 20
-84.6956
 30
-6.55094
 40
0.5
100
AcDbArc
 50
180
 51
-90
  0
LINE
  5
C14
330
A02
100
AcDbEntity
  8
Facebinder
100
AcDbLine
 10
257.174
 20
-84.6956
 30
-6.55094
 11
257.174
 21
-71.7562
 31
-5.30501
  0
ARC
  5
C15
330
A02
100
AcDbEntity
  8
Facebinder
100
AcDbCircle
 10
257.674
 20
-71.7562
 30
-5.30501
 40
0.497698
100
AcDbArc
 50
90
 51
180
  0
LINE
  5
C16
330
A02
100
AcDbEntity
  8
Facebinder
100
AcDbLine
 10
257.674
 20
-71.2585
 30
-5.25709
 11
270.675
 21
-71.2585
 31
-5.25709
  0
ARC
  5
C17
330
A02
100
AcDbEntity
  8
Facebinder
100
AcDbCircle
 10
270.675
 20
-71.7562
 30
-5.30501
 40
0.5
100
AcDbArc
 50
0
 51
90
  0
LINE
  5
C18
330
A02
100
AcDbEntity
  8
Facebinder
100
AcDbLine
 10
272.949
 20
-71.2585
 30
-5.25709
 11
279.45
 21
-71.2585
 31
-5.25709
  0
ARC
  5
C19
330
A02
100
AcDbEntity
  8
Facebinder
100
AcDbCircle
 10
279.45
 20
-71.7562
 30
-5.30501
 40
0.5
100
AcDbArc
 50
0
 51
90
  0
LINE
  5
C1A
330
A02
100
AcDbEntity
  8
Facebinder
100
AcDbLine
 10
279.95
 20
-71.7562
 30
-5.30501
 11
279.95
 21
-86.6874
 31
-6.74273
  0
ARC
  5
C1B
330
A02
100
AcDbEntity
  8
Facebinder
100
AcDbCircle
 10
279.45
 20
-86.6874
 30
-6.74273
 40
0.497698
100
AcDbArc
 50
-90
 51
0
  0
LINE
  5
C1C
330
A02
100
AcDbEntity
  8
Facebinder
100
AcDbLine
 10
279.45
 20
-87.1851
 30
-6.79065
 11
272.949
 21
-87.1851
 31
-6.79065
  0
ARC
  5
C1D
330
A02
100
AcDbEntity
  8
Facebinder
100
AcDbCircle
 10
272.949
 20
-86.6874
 30
-6.74273
 40
0.5
100
AcDbArc
 50
180
 51
-90
  0
LINE
  5
C1E
330
A02
100
AcDbEntity
  8
Facebinder
100
AcDbLine
 10
272.449
 20
-86.6874
 30
-6.74273
 11
272.449
 21
-71.7562
 31
-5.30501
  0
ARC
  5
C1F
330
A02
100
AcDbEntity
  8
Facebinder
100
AcDbCircle
 10
272.949
 20
-71.7562
 30
-5.30501
 40
0.497698
100
AcDbArc
 50
90
 51
180
  0
ENDSEC
  0
SECTION
  2
OBJECTS
  0
DICTIONARY
  5
F000
330
0
100
AcDbDictionary
  3
ACAD_GROUP
350
F001
  0
DICTIONARY
  5
F001
330
F000
100
AcDbDictionary
  0
ENDSEC
  0
EOF